if (_typeface_js && _typeface_js.loadFace) _typeface_js.loadFace({"glyphs":{"ᴴ":{"x_min":213,"x_max":622,"ha":836,"o":"m 213 1020 l 300 1020 l 300 787 l 537 787 l 537 1020 l 622 1020 l 622 453 l 537 453 l 537 723 l 300 723 l 300 453 l 213 453 l 213 1020 "},"⟆":{"x_min":211.203125,"x_max":624,"ha":836,"o":"m 211 -227 l 211 -129 q 247 -132 224 -132 q 324 -117 270 -132 q 513 80 513 -68 q 396 498 513 177 q 279 928 279 819 q 429 1067 279 1067 q 608 919 573 1067 l 516 886 q 445 979 485 979 q 380 925 380 979 q 502 527 380 870 q 624 65 624 183 q 325 -219 624 -163 q 252 -227 287 -227 q 211 -227 217 -227 "},"ₑ":{"x_min":207,"x_max":629,"ha":836,"o":"m 629 229 l 629 196 l 289 196 l 289 193 q 329 86 289 124 q 444 48 370 48 q 523 58 482 48 q 611 90 564 69 l 611 21 q 524 -2 566 5 q 444 -11 482 -11 q 269 48 332 -11 q 207 212 207 107 q 268 374 207 313 q 432 435 329 435 q 576 380 523 435 q 629 229 629 325 m 550 250 q 518 343 550 311 q 429 376 487 376 q 335 342 372 376 q 291 250 298 308 l 550 250 "},"ȋ":{"x_min":121,"x_max":741,"ha":836,"o":"m 209 896 q 263 1042 209 993 q 417 1091 318 1091 q 572 1042 517 1091 q 627 896 627 993 l 550 896 q 508 972 540 947 q 417 998 475 998 q 326 972 358 998 q 286 896 293 947 l 209 896 m 173 760 l 493 760 l 493 97 l 741 97 l 741 0 l 121 0 l 121 97 l 368 97 l 368 663 l 173 663 l 173 760 "},"➛":{"x_min":31,"x_max":804.78125,"ha":836,"o":"m 31 509 l 391 509 l 304 673 q 804 478 484 542 q 304 282 484 413 l 391 447 l 31 447 l 31 509 "},"⇜":{"x_min":45,"x_max":792,"ha":836,"o":"m 194 436 l 282 436 l 321 390 l 424 507 l 526 390 l 627 507 l 729 390 l 769 436 l 792 436 l 792 325 l 729 253 l 627 370 l 526 253 l 424 370 l 321 253 l 260 325 l 194 325 l 303 216 l 242 155 l 45 352 l 45 408 l 242 605 l 303 544 l 194 436 "},"Ƹ":{"x_min":18,"x_max":818,"ha":836,"o":"m 682 295 l 818 295 q 714 63 818 145 q 413 -19 611 -19 q 121 63 224 -19 q 18 295 18 145 q 73 459 18 388 q 198 561 131 532 q 356 600 285 600 l 102 899 l 102 1013 l 758 1013 l 758 898 l 259 898 l 510 598 l 510 486 l 392 486 q 217 435 279 486 q 155 295 155 386 q 222 146 155 197 q 418 96 289 96 q 614 146 546 96 q 682 295 682 197 "},"ˌ":{"x_min":372,"x_max":464,"ha":836,"o":"m 464 170 l 464 -206 l 372 -206 l 372 170 l 464 170 "},"დ":{"x_min":37,"x_max":799,"ha":836,"o":"m 149 -152 q 234 -110 176 -122 l 234 -103 q 37 394 37 85 q 270 702 37 702 q 386 635 332 702 l 400 635 q 556 702 441 702 q 799 383 799 702 l 799 370 q 564 27 799 27 q 332 384 332 27 l 332 542 q 282 606 332 606 l 253 606 q 166 391 166 606 l 166 317 q 380 -64 166 22 q 666 -288 595 -152 l 529 -288 q 363 -170 468 -170 q 179 -223 258 -170 l 149 -152 m 671 298 l 671 442 q 569 606 671 606 l 521 606 q 441 482 441 606 l 441 314 q 567 125 441 125 q 671 298 671 125 "},"ط":{"x_min":7,"x_max":806,"ha":836,"o":"m 377 124 l 464 124 q 609 155 559 124 q 681 248 681 201 q 653 304 681 279 q 586 327 629 327 q 468 253 538 327 q 377 124 417 200 m 509 -1 l 158 -1 l 7 -1 l 7 124 l 159 124 l 159 1055 l 284 1055 l 284 195 q 368 323 335 282 q 569 444 464 444 q 747 388 685 444 q 806 253 806 335 q 681 49 806 124 q 509 -1 595 -1 "},"𝚏":{"x_min":132,"x_max":721,"ha":836,"o":"m 721 1055 l 721 951 l 579 951 q 486 923 512 951 q 460 826 460 896 l 460 759 l 721 759 l 721 662 l 460 662 l 460 0 l 335 0 l 335 662 l 132 662 l 132 759 l 335 759 l 335 811 q 392 995 335 936 q 571 1055 449 1055 l 721 1055 "},"ϼ":{"x_min":58,"x_max":752,"ha":836,"o":"m 254 -213 l 254 -289 l 129 -289 l 129 -213 l 58 -213 l 58 -98 l 129 -98 l 129 366 q 203 671 129 581 q 437 778 292 778 q 673 670 594 778 q 752 376 752 564 q 673 85 752 191 q 457 -19 594 -19 q 335 9 387 -19 q 254 95 283 39 l 254 -98 l 581 -98 l 581 -213 l 254 -213 m 575 159 q 621 379 621 233 q 575 598 621 524 q 438 672 529 672 q 300 597 347 672 q 254 379 254 523 q 300 160 254 235 q 438 86 347 86 q 575 159 529 86 "},"ȡ":{"x_min":12,"x_max":802,"ha":836,"o":"m 594 97 q 648 85 602 85 q 733 190 733 85 q 690 233 733 233 q 594 97 647 233 m 534 275 q 542 172 534 196 q 690 338 620 338 q 802 191 802 338 q 632 -20 802 -20 q 551 -8 584 -20 q 517 -101 531 -62 l 436 -101 l 483 30 q 435 100 461 39 l 424 125 q 367 28 405 64 q 247 -20 315 -20 q 75 85 137 -20 q 12 380 12 192 q 75 671 12 565 q 247 777 138 777 q 343 747 301 777 q 409 661 385 717 l 409 1055 l 534 1055 l 534 275 m 153 597 q 117 378 117 523 q 153 159 117 233 q 261 85 190 85 q 371 160 333 85 q 409 378 409 234 q 371 597 409 522 q 261 671 333 671 q 153 597 190 671 "},"◦":{"x_min":216,"x_max":619,"ha":836,"o":"m 256 516 q 302 401 256 448 q 416 355 348 355 q 531 402 484 355 q 579 516 579 449 q 531 630 579 583 q 417 677 484 677 q 302 630 349 677 q 256 516 256 583 m 216 516 q 274 658 216 600 q 417 717 332 717 q 560 658 501 717 q 619 516 619 600 q 559 373 619 432 q 416 315 500 315 q 274 373 332 315 q 216 516 216 431 "},"ņ":{"x_min":132,"x_max":712,"ha":836,"o":"m 372 -135 l 534 -135 l 408 -369 l 309 -369 l 372 -135 m 712 470 l 712 0 l 587 0 l 587 470 q 551 620 587 572 q 438 669 515 669 q 304 606 351 669 q 257 429 257 544 l 257 0 l 132 0 l 132 760 l 257 760 l 257 645 q 347 744 290 710 q 481 778 403 778 q 654 701 597 778 q 712 470 712 625 "},"ỳ":{"x_min":70.75,"x_max":782.140625,"ha":836,"o":"m 288 1115 l 479 861 l 374 861 l 154 1115 l 288 1115 m 582 243 q 502 34 550 164 q 412 -183 435 -144 q 334 -262 381 -236 q 225 -289 287 -289 l 125 -289 l 125 -185 l 198 -185 q 285 -153 253 -185 q 364 11 316 -121 l 70 759 l 202 759 l 428 165 l 649 760 l 782 760 l 582 243 "},"қ":{"x_min":160,"x_max":815,"ha":836,"o":"m 724 125 l 815 125 l 815 -194 l 682 -194 l 682 0 l 662 0 l 381 392 l 289 304 l 289 0 l 160 0 l 160 760 l 289 760 l 289 444 l 616 760 l 768 760 l 469 473 l 724 125 "},"ѕ":{"x_min":144.078125,"x_max":698,"ha":836,"o":"m 659 732 l 659 610 q 551 657 605 641 q 441 673 497 673 q 314 645 356 673 q 273 561 273 618 q 304 485 273 510 q 459 436 335 460 l 509 427 q 650 356 602 409 q 698 219 698 303 q 618 43 698 106 q 395 -20 538 -20 q 277 -8 339 -20 q 144 27 215 3 l 144 155 q 277 101 214 119 q 398 84 341 84 q 526 117 481 84 q 572 211 572 151 q 405 331 572 298 l 400 333 l 353 342 q 196 413 245 363 q 147 549 147 463 q 220 717 147 658 q 431 777 294 777 q 549 765 492 777 q 659 732 605 754 "},"Ḏ":{"x_min":93,"x_max":750,"ha":836,"o":"m 182 -142 l 588 -142 l 588 -242 l 182 -242 l 182 -142 m 296 113 q 537 198 469 113 q 606 505 606 283 q 537 814 606 729 q 296 900 469 900 l 231 900 l 231 113 l 296 113 m 298 1013 q 640 889 530 1013 q 750 505 750 766 q 640 123 750 246 q 298 0 530 0 l 93 0 l 93 1013 l 298 1013 "},"ℂ":{"x_min":95,"x_max":728,"ha":836,"o":"m 348 89 q 496 52 412 52 q 617 73 564 52 q 728 125 671 95 l 728 36 q 654 6 721 32 q 496 -19 586 -19 q 206 124 317 -19 q 95 505 95 268 q 205 893 95 756 q 504 1031 315 1031 q 637 1013 588 1031 q 728 975 686 995 l 728 887 q 623 935 666 915 q 502 955 580 955 q 348 922 423 955 l 348 89 m 277 869 q 264 854 271 864 q 171 505 171 734 q 262 167 171 296 q 277 148 270 156 l 277 869 "},"ŭ":{"x_min":132,"x_max":712,"ha":836,"o":"m 208 1090 l 286 1090 q 326 1014 293 1039 q 417 989 358 989 q 507 1014 475 989 q 549 1090 540 1039 l 626 1090 q 571 944 626 993 q 416 896 516 896 q 262 944 317 896 q 208 1090 208 993 m 132 287 l 132 758 l 257 758 l 257 287 q 293 137 257 185 q 405 89 329 89 q 540 151 493 89 q 587 328 587 213 l 587 758 l 712 758 l 712 0 l 587 0 l 587 114 q 496 14 553 48 q 362 -20 439 -20 q 188 56 245 -20 q 132 287 132 132 "},"ﺴ":{"x_min":-13,"x_max":850.4375,"ha":836,"o":"m 489 403 q 511 196 489 290 q 567 115 531 115 q 635 305 635 115 l 635 504 l 746 504 l 746 272 q 774 150 746 178 q 827 121 804 121 l 850 121 l 850 -4 l 807 -4 q 698 60 738 -4 q 622 -17 662 1 q 558 -24 607 -24 q 468 25 505 -24 q 431 124 439 62 q 363 12 411 50 q 293 -17 329 -17 q 222 20 247 -17 q 180 93 197 57 q 119 25 167 54 q 34 0 80 0 l -13 0 l -13 125 l 15 125 q 73 148 52 125 q 117 276 117 196 l 117 407 l 227 407 l 227 301 q 244 179 227 247 q 292 122 259 122 q 352 201 324 122 q 378 403 378 271 l 489 403 "},"╲":{"x_min":-73.921875,"x_max":910.109375,"ha":836,"o":"m 910 -419 l 789 -419 l -73 1351 l 46 1351 l 910 -419 "},"◴":{"x_min":3.96875,"x_max":832,"ha":836,"o":"m 210 2 q 3 360 3 122 q 210 719 3 599 q 417 778 313 778 q 624 719 520 778 q 832 360 832 599 q 624 2 832 122 q 417 -57 520 -57 q 210 2 313 -57 m 379 692 q 252 647 315 683 q 88 399 103 561 l 379 399 l 379 692 m 88 322 q 252 74 104 160 q 417 26 334 26 q 582 74 500 26 q 749 360 749 170 q 582 647 749 551 q 456 692 519 683 l 456 322 l 88 322 "},"┗":{"x_min":309,"x_max":849.484375,"ha":836,"o":"m 309 278 l 309 1350 l 526 1350 l 526 511 l 849 511 l 849 278 l 309 278 "},"໊":{"x_min":65,"x_max":921,"ha":836,"o":"m 228 830 q 65 1017 65 830 q 263 1207 65 1207 q 339 1163 297 1207 q 410 1120 382 1120 q 486 1164 436 1120 q 584 1207 535 1207 q 734 1061 734 1207 q 627 933 734 975 q 761 941 716 933 q 816 1021 816 951 l 921 1021 q 849 871 921 933 q 628 847 822 847 l 496 847 l 496 937 q 638 1076 638 1009 q 586 1114 638 1114 q 524 1075 569 1114 q 416 1036 478 1036 q 320 1066 344 1036 q 261 1114 278 1114 q 163 1016 163 1114 q 232 907 163 907 l 274 908 q 243 972 243 908 q 307 1033 243 1033 q 377 960 377 1033 q 334 857 377 891 q 228 830 299 830 "},"≷":{"x_min":58,"x_max":775,"ha":836,"o":"m 775 0 l 775 -123 l 58 101 l 58 215 l 775 440 l 775 315 l 231 158 l 775 0 m 58 397 l 601 556 l 58 712 l 58 837 l 775 613 l 775 499 l 58 274 l 58 397 "},"⍈":{"x_min":4,"x_max":832,"ha":836,"o":"m 832 -138 l 4 -138 l 4 1151 l 832 1151 l 832 -138 m 755 -61 l 755 445 l 566 257 l 505 318 l 614 427 l 81 427 l 81 -61 l 755 -61 m 755 519 l 755 1074 l 81 1074 l 81 538 l 614 538 l 505 646 l 566 707 l 755 519 "},"ɭ":{"x_min":108.9375,"x_max":702,"ha":836,"o":"m 434 -13 q 464 -140 434 -97 q 556 -183 495 -183 l 702 -183 l 702 -289 l 543 -289 q 370 -217 431 -289 q 309 -13 309 -145 l 309 965 l 108 965 l 108 1063 l 434 1063 l 434 -13 "},"ﺽ":{"x_min":-163,"x_max":825,"ha":836,"o":"m 396 125 l 482 125 q 628 156 578 125 q 700 249 700 202 q 672 305 700 279 q 605 327 648 327 q 487 253 556 327 q 396 125 435 200 m 302 196 q 386 323 353 283 q 587 444 482 444 q 765 388 704 444 q 825 253 825 335 q 700 50 825 124 q 527 0 613 0 l 379 0 q 318 20 354 0 q 289 48 288 38 q 256 -158 289 -69 q 190 -275 224 -246 q 71 -334 123 -334 q -78 -272 -17 -334 q -163 -49 -163 -186 q -95 195 -163 78 l 21 195 q -49 -48 -49 57 q -8 -179 -49 -145 q 67 -207 25 -207 q 136 -164 111 -207 q 181 0 181 -92 q 174 112 181 70 q 143 305 152 256 l 259 305 q 268 257 259 294 q 302 196 275 230 m 227 556 l 329 556 l 329 454 l 227 454 l 227 556 "},"ຂ":{"x_min":73,"x_max":811.90625,"ha":836,"o":"m 262 552 q 218 596 262 596 q 175 552 175 596 q 218 509 175 509 q 262 552 262 509 m 215 409 q 73 563 73 409 q 200 721 73 655 q 430 789 327 789 q 759 557 759 789 q 516 317 759 397 l 393 277 q 202 159 202 215 q 361 90 202 90 q 484 138 412 90 q 611 186 556 186 q 811 41 718 186 l 720 -24 q 606 74 649 74 q 503 31 572 74 q 361 -12 434 -12 q 77 156 77 -12 q 373 387 77 291 l 493 427 q 638 561 638 474 q 427 689 638 689 q 324 650 376 689 q 367 555 367 612 q 215 409 367 409 "},"۰":{"x_min":343,"x_max":492,"ha":836,"o":"m 343 475 l 492 475 l 492 305 l 343 305 l 343 475 "},"ἣ":{"x_min":132,"x_max":712,"ha":836,"o":"m 712 470 l 712 -289 l 587 -289 l 587 470 q 551 620 587 572 q 438 669 515 669 q 304 606 351 669 q 257 429 257 544 l 257 0 l 132 0 l 132 760 l 257 760 l 257 645 q 346 744 290 710 q 481 778 403 778 q 654 701 597 778 q 712 470 712 625 m 167 1000 l 167 1119 l 329 1119 l 329 1000 l 233 1000 q 329 894 233 894 l 329 826 q 167 1000 167 826 m 492 1111 l 682 856 l 578 856 l 358 1111 l 492 1111 "},"☝":{"x_min":96,"x_max":741,"ha":836,"o":"m 116 78 l 650 28 q 692 44 675 28 q 710 82 710 61 l 710 322 q 672 374 710 359 l 672 921 q 622 978 672 978 q 573 921 573 978 l 573 402 l 521 411 l 521 651 q 469 707 521 707 q 421 651 421 707 l 421 437 l 367 443 l 367 594 q 315 651 367 651 q 267 594 267 651 l 267 476 l 216 489 l 216 531 q 165 588 216 588 q 116 531 116 588 l 116 78 m 96 550 q 166 613 96 613 q 237 550 237 613 l 237 499 l 247 497 l 247 613 q 317 676 247 676 q 388 613 388 676 l 388 459 l 401 457 l 401 670 q 472 733 401 733 q 542 670 542 733 l 542 425 l 553 422 l 553 941 q 623 1004 553 1004 q 694 941 694 1004 l 694 390 q 741 324 741 368 l 741 70 q 720 21 741 42 q 669 0 699 0 l 96 51 l 96 503 l 96 550 "},"ﭬ":{"x_min":-13,"x_max":564,"ha":836,"o":"m 288 1051 l 390 1051 l 390 949 l 288 949 l 288 1051 m 373 882 l 475 882 l 475 780 l 373 780 l 373 882 m 204 882 l 306 882 l 306 780 l 204 780 l 204 882 m 405 364 q 434 445 434 393 q 389 519 434 484 q 337 536 367 536 q 275 507 302 536 q 248 445 248 479 q 284 364 248 390 q 340 348 311 348 q 405 364 389 348 m -13 125 l 150 125 q 309 140 207 125 q 404 211 363 148 q 435 277 425 244 q 326 239 392 239 q 185 285 238 239 q 119 431 119 344 q 124 496 119 466 q 241 643 140 596 q 346 668 294 668 q 451 634 407 668 q 548 516 517 585 q 564 386 564 481 q 511 148 564 245 q 376 26 460 56 q 204 0 302 0 l -13 0 l -13 125 "},"╋":{"x_min":-13,"x_max":850,"ha":836,"o":"m 310 -419 l 310 278 l -13 278 l -13 511 l 310 511 l 310 1351 l 527 1351 l 527 511 l 850 511 l 850 278 l 527 278 l 527 -419 l 310 -419 "},"Ɲ":{"x_min":20,"x_max":712,"ha":836,"o":"m 129 1012 l 284 1012 l 593 179 l 593 1013 l 712 1013 l 712 0 l 555 0 l 248 833 l 248 -13 q 193 -217 248 -145 q 38 -289 138 -289 l 20 -289 l 20 -183 q 101 -141 74 -183 q 129 -13 129 -99 l 129 1012 "},"ﻯ":{"x_min":17,"x_max":836.515625,"ha":836,"o":"m 776 8 q 534 -156 686 -123 q 351 -182 414 -182 q 215 -164 264 -182 q 17 83 17 -93 q 59 239 17 162 l 184 239 q 140 82 140 150 q 251 -47 140 -16 q 359 -61 302 -61 q 514 -37 441 -61 q 631 39 587 -13 q 672 110 672 87 q 653 170 672 141 q 540 244 630 205 q 475 363 475 274 q 538 506 475 464 q 656 540 591 540 q 790 490 753 540 q 836 353 824 445 l 711 353 q 698 411 711 394 q 653 431 679 434 q 623 416 639 430 q 600 357 600 396 q 685 300 600 329 q 784 208 746 278 q 806 105 806 169 q 776 8 806 53 "},"✉":{"x_min":43,"x_max":794,"ha":836,"o":"m 498 415 l 726 571 l 110 571 l 338 415 q 345 424 341 420 q 379 447 360 438 q 418 455 397 455 q 457 447 439 455 q 491 424 479 437 q 498 415 495 419 m 519 332 l 742 181 l 742 519 l 519 369 q 521 351 521 360 q 519 332 521 340 m 338 286 l 110 130 l 726 130 l 497 286 q 491 277 494 281 q 457 255 476 263 q 418 248 439 248 q 379 255 397 248 q 345 277 360 263 q 338 286 342 281 m 316 369 l 95 519 l 95 181 l 316 331 q 315 351 315 340 q 316 369 315 360 m 43 78 l 43 623 l 794 623 l 794 78 l 43 78 "},"⇱":{"x_min":47,"x_max":788.71875,"ha":836,"o":"m 202 547 l 241 587 l 520 587 l 520 501 l 366 501 l 788 79 l 709 0 l 288 422 l 288 268 l 202 268 l 202 547 m 788 743 l 788 693 l 97 693 l 97 0 l 47 0 l 47 743 l 788 743 "},"⁸":{"x_min":214,"x_max":623,"ha":836,"o":"m 418 722 q 330 692 361 722 q 299 612 299 664 q 330 531 299 560 q 418 502 362 502 q 506 530 476 502 q 538 612 538 559 q 506 692 538 664 q 418 722 474 722 m 344 754 q 259 800 289 766 q 229 882 229 834 q 279 989 229 949 q 418 1029 330 1029 q 557 989 506 1029 q 608 882 608 949 q 577 800 608 834 q 492 754 547 766 q 589 703 556 741 q 623 604 623 665 q 568 485 623 528 q 418 442 514 442 q 268 484 322 442 q 214 604 214 528 q 247 703 214 665 q 344 754 280 741 m 314 875 q 340 806 314 830 q 418 782 367 782 q 496 806 469 782 q 523 875 523 830 q 496 945 523 921 q 418 970 470 970 q 340 945 367 970 q 314 875 314 921 "},"k":{"x_min":160,"x_max":815.25,"ha":836,"o":"m 160 1055 l 289 1055 l 289 444 l 616 760 l 768 760 l 469 473 l 815 0 l 662 0 l 381 392 l 289 304 l 289 0 l 160 0 l 160 1055 "},"ȇ":{"x_min":83,"x_max":754,"ha":836,"o":"m 218 896 q 272 1041 218 992 q 426 1090 327 1090 q 581 1041 526 1090 q 636 896 636 992 l 559 896 q 517 972 549 947 q 427 997 484 997 q 335 972 368 997 q 295 896 302 947 l 218 896 m 754 411 l 754 350 l 213 350 l 213 345 q 277 153 213 221 q 460 85 342 85 q 585 104 520 85 q 725 162 650 123 l 725 38 q 587 -5 653 9 q 459 -20 521 -20 q 182 86 282 -20 q 83 378 83 192 q 180 669 83 560 q 441 777 278 777 q 670 679 586 777 q 754 411 754 581 m 628 447 q 578 614 628 557 q 436 672 529 672 q 287 612 346 672 q 218 447 228 552 l 628 447 "},"ί":{"x_min":210.59375,"x_max":662,"ha":836,"o":"m 481 760 l 481 268 q 504 138 481 169 q 601 105 528 105 l 662 105 l 662 0 l 586 0 q 408 65 463 0 q 353 275 353 131 l 353 663 l 210 663 l 210 760 l 481 760 m 513 1111 l 647 1111 l 427 856 l 322 856 l 513 1111 "},"Ù":{"x_min":100,"x_max":736,"ha":836,"o":"m 100 388 l 100 1012 l 238 1012 l 238 325 q 242 220 238 251 q 256 171 246 188 q 318 111 277 131 q 418 91 359 91 q 517 111 477 91 q 580 171 558 131 q 594 219 590 188 q 599 324 599 251 l 599 1012 l 736 1012 l 736 388 q 716 167 736 232 q 649 59 697 102 q 547 0 605 19 q 418 -20 489 -20 q 289 0 346 -20 q 186 59 231 19 q 119 168 139 101 q 100 388 100 234 m 380 1287 l 514 1109 l 410 1109 l 256 1287 l 380 1287 "},"╾":{"x_min":-13,"x_max":850.4375,"ha":836,"o":"m -13 278 l -13 511 l 432 511 l 432 453 l 850 453 l 850 336 l 432 336 l 432 278 l -13 278 "},"ᵗ":{"x_min":226,"x_max":611,"ha":836,"o":"m 432 999 l 432 878 l 611 878 l 611 824 l 432 824 l 432 593 q 452 527 432 546 q 522 509 472 509 l 611 509 l 611 453 l 515 453 q 389 484 425 453 q 353 593 353 516 l 353 824 l 226 824 l 226 878 l 353 878 l 353 999 l 432 999 "},"ὓ":{"x_min":34.59375,"x_max":766,"ha":836,"o":"m 428 105 q 595 226 532 105 q 636 433 636 306 q 619 589 636 502 q 532 758 604 670 l 659 758 l 659 759 q 737 614 706 697 q 766 432 766 536 q 679 142 766 279 q 410 -1 588 -1 q 232 64 288 -1 q 177 274 177 130 l 177 662 l 34 662 l 34 759 l 305 759 l 305 267 q 328 137 305 168 q 428 105 352 105 m 167 1000 l 167 1119 l 329 1119 l 329 1000 l 233 1000 q 329 894 233 894 l 329 826 q 167 1000 167 826 m 492 1110 l 683 856 l 579 856 l 358 1110 l 492 1110 "},"≚":{"x_min":60,"x_max":777,"ha":836,"o":"m 60 356 l 777 356 l 777 239 l 60 239 l 60 356 m 60 631 l 777 631 l 777 516 l 60 516 l 60 631 m 205 1088 l 306 1088 l 418 799 l 534 1088 l 631 1088 l 473 680 l 363 680 l 205 1088 "},"┢":{"x_min":309,"x_max":849.484375,"ha":836,"o":"m 309 -419 l 309 512 l 363 512 l 363 1351 l 472 1351 l 472 511 l 849 511 l 849 278 l 526 278 l 526 -419 l 309 -419 "},"☈":{"x_min":40,"x_max":789.828125,"ha":836,"o":"m 82 1016 l 749 1016 q 789 959 789 1016 q 772 918 789 936 l 405 530 l 716 201 l 784 346 l 784 51 l 501 51 l 648 136 l 311 498 q 302 540 302 508 q 335 593 302 558 l 644 918 l 132 918 l 132 47 q 85 0 132 0 q 40 46 40 0 l 40 976 q 82 1016 40 1016 "},"ჳ":{"x_min":108,"x_max":730,"ha":836,"o":"m 729 -14 q 414 -288 729 -288 q 108 -13 108 -288 l 129 61 l 251 47 l 237 -13 q 417 -192 237 -192 q 601 -14 601 -192 l 601 7 q 385 210 601 210 l 308 210 l 308 319 l 385 319 q 579 551 579 319 l 579 600 l 253 600 l 253 451 l 136 451 l 136 698 l 730 698 q 542 268 730 393 q 729 7 729 191 l 729 -14 "},"∝":{"x_min":126,"x_max":709,"ha":836,"o":"m 462 431 q 392 555 424 521 q 320 589 361 589 q 241 543 272 589 q 211 427 211 498 q 238 309 211 353 q 312 266 266 266 q 394 305 358 266 q 462 431 430 345 m 709 170 q 611 204 654 170 q 514 326 567 238 q 425 206 470 242 q 323 170 380 170 q 182 242 238 170 q 126 427 126 315 q 179 614 126 544 q 322 684 233 684 q 432 644 386 684 q 516 518 478 605 q 597 640 547 597 q 709 684 647 684 l 709 589 q 635 549 671 589 q 569 425 600 509 q 638 299 607 333 q 709 266 669 266 l 709 170 "},"Ẹ":{"x_min":134,"x_max":747.75,"ha":836,"o":"m 361 -142 l 500 -142 l 500 -280 l 361 -280 l 361 -142 m 134 1013 l 734 1013 l 734 898 l 271 898 l 271 598 l 714 598 l 714 483 l 271 483 l 271 115 l 747 115 l 747 0 l 134 0 l 134 1013 "},"▎":{"x_min":-13,"x_max":203,"ha":836,"o":"m -13 -347 l -13 1069 l 203 1069 l 203 -347 l -13 -347 "},"≠":{"x_min":60,"x_max":777,"ha":836,"o":"m 60 631 l 498 631 l 665 844 l 750 775 l 639 631 l 777 631 l 777 516 l 550 516 l 425 356 l 777 356 l 777 239 l 338 239 l 169 25 l 85 95 l 196 239 l 60 239 l 60 356 l 283 356 l 408 516 l 60 516 l 60 631 "},"ƀ":{"x_min":47,"x_max":754,"ha":836,"o":"m 255 662 q 337 748 284 718 q 459 778 390 778 q 675 672 596 778 q 754 381 754 567 q 674 87 754 193 q 458 -19 595 -19 q 338 9 390 -19 q 255 95 286 39 l 255 0 l 130 0 l 130 862 l 47 862 l 47 973 l 130 973 l 130 1055 l 255 1055 l 255 973 l 256 973 l 496 973 l 496 862 l 256 862 l 255 862 l 255 662 m 575 159 q 622 379 622 233 q 575 598 622 524 q 439 672 529 672 q 301 597 348 672 q 255 379 255 523 q 301 160 255 235 q 439 86 348 86 q 575 159 529 86 "},"ɼ":{"x_min":245,"x_max":782.328125,"ha":836,"o":"m 782 603 q 700 648 742 634 q 610 663 659 663 q 431 589 493 663 q 370 378 370 516 l 370 -289 l 245 -289 l 245 758 l 370 758 l 370 611 q 465 734 401 691 q 619 778 530 778 q 705 766 665 778 q 782 730 745 754 l 782 603 "},"ﺢ":{"x_min":60,"x_max":863.375,"ha":836,"o":"m 836 125 l 863 125 l 863 0 l 830 0 q 659 101 742 0 q 562 275 603 169 q 508 406 558 285 q 364 335 431 390 q 213 40 213 211 q 263 -116 213 -53 q 537 -227 350 -227 q 812 -147 667 -227 l 812 -271 q 540 -340 710 -340 q 178 -207 293 -340 q 90 46 90 -104 q 233 372 90 221 q 392 477 299 441 q 215 462 323 477 q 60 422 123 450 l 60 547 q 379 590 247 590 q 710 553 577 590 l 710 448 q 615 440 636 448 l 634 378 q 718 205 669 270 q 836 125 779 125 "},"╤":{"x_min":-13,"x_max":850,"ha":836,"o":"m 364 -418 l 364 220 l -13 220 l -13 337 l 850 337 l 850 220 l 473 220 l 473 -418 l 364 -418 m -13 453 l -13 570 l 850 570 l 850 453 l -13 453 "},"ᵸ":{"x_min":213,"x_max":622,"ha":836,"o":"m 213 1020 l 300 1020 l 300 787 l 537 787 l 537 1020 l 622 1020 l 622 453 l 537 453 l 537 723 l 300 723 l 300 453 l 213 453 l 213 1020 "},"ﻌ":{"x_min":-13,"x_max":850,"ha":836,"o":"m 418 125 q 149 0 286 0 l -13 0 l -13 125 l 134 125 q 251 152 207 125 q 318 202 291 176 q 207 321 253 260 q 187 378 187 348 q 195 427 187 399 q 277 499 206 464 q 418 530 337 530 q 558 499 498 530 q 640 427 628 465 q 649 378 649 399 q 628 321 649 348 q 517 202 576 255 q 584 152 538 181 q 701 125 625 125 l 850 125 l 850 0 l 686 0 q 418 125 549 0 m 456 400 q 418 405 435 405 q 379 400 400 405 q 348 370 348 392 q 418 286 348 350 q 488 370 488 350 q 456 400 488 392 "},"ﮔ":{"x_min":-13,"x_max":725,"ha":836,"o":"m 725 1133 l 98 860 l 98 981 l 725 1254 l 725 1133 m 273 0 l -13 0 l -13 125 l 260 125 q 391 195 360 125 q 402 244 402 219 q 365 335 402 291 l 155 593 q 121 690 121 635 q 127 736 121 710 q 219 845 148 816 l 725 1055 l 725 929 l 321 759 q 259 712 273 739 q 255 687 255 704 q 276 641 255 666 l 462 417 q 532 250 532 334 q 489 105 532 173 q 273 0 425 0 "},"ϴ":{"x_min":79,"x_max":756,"ha":836,"o":"m 607 597 q 567 824 607 748 q 417 920 521 920 q 268 824 313 920 q 227 597 227 747 l 607 597 m 612 482 l 223 482 q 268 186 223 279 q 417 91 313 91 q 567 186 521 91 q 612 482 612 277 m 756 505 q 672 110 756 240 q 417 -20 588 -20 q 162 109 245 -20 q 79 505 79 239 q 162 900 79 770 q 417 1031 246 1031 q 672 900 588 1031 q 756 505 756 770 "},"ʔ":{"x_min":132,"x_max":705,"ha":836,"o":"m 303 541 l 345 541 q 533 618 475 541 q 573 736 573 669 q 533 870 573 826 q 345 948 464 948 q 237 933 291 948 q 132 889 184 919 l 132 1006 q 238 1041 183 1030 q 351 1054 293 1054 q 631 947 537 1054 q 705 736 705 862 q 631 543 705 621 q 441 442 555 462 l 441 0 l 303 0 l 303 541 "},"ᾞ":{"x_min":-280,"x_max":744,"ha":836,"o":"m 93 1013 l 231 1013 l 231 597 l 606 597 l 606 1013 l 744 1013 l 744 0 l 606 0 l 606 482 l 231 482 l 231 0 l 93 0 l 93 1013 m 25 1000 q -138 826 25 826 l -138 894 q -42 1000 -42 894 l -138 1000 l -138 1119 l 25 1119 l 25 1000 m -59 1207 l -98 1244 q -123 1264 -112 1258 q -144 1271 -135 1271 q -182 1245 -170 1271 q -195 1165 -195 1220 l -280 1165 q -245 1306 -280 1256 q -148 1357 -210 1357 q -100 1347 -122 1357 q -53 1315 -78 1338 l -14 1278 q 10 1258 0 1264 q 30 1252 21 1252 q 68 1277 56 1252 q 81 1357 81 1302 l 166 1357 q 131 1216 166 1266 q 35 1166 96 1166 q -12 1175 8 1166 q -59 1207 -34 1184 m 517 -289 l 427 -289 q 368 -164 368 -289 l 368 -62 l 469 -62 l 469 -173 q 503 -244 469 -244 l 517 -244 l 517 -289 "},"∸":{"x_min":60,"x_max":777,"ha":836,"o":"m 60 493 l 777 493 l 777 378 l 60 378 l 60 493 m 333 784 l 504 784 l 504 577 l 333 577 l 333 784 "},"⇶":{"x_min":45,"x_max":792,"ha":836,"o":"m 533 216 l 642 325 l 45 325 l 45 436 l 642 436 l 533 545 l 642 654 l 45 654 l 45 765 l 642 765 l 533 873 l 594 934 l 792 737 l 792 681 l 655 545 l 792 408 l 792 352 l 655 216 l 792 80 l 792 24 l 594 -172 l 533 -111 l 642 -3 l 45 -3 l 45 108 l 642 108 l 533 216 "},"∕":{"x_min":69.171875,"x_max":731.75,"ha":836,"o":"m 602 1013 l 731 1013 l 198 -129 l 69 -129 l 602 1013 "},"Ᾰ":{"x_min":25.09375,"x_max":811.09375,"ha":836,"o":"m 205 1289 l 286 1289 q 328 1233 294 1252 q 417 1214 362 1214 q 506 1232 474 1214 q 550 1289 539 1251 l 630 1289 q 569 1166 623 1208 q 417 1125 515 1125 q 266 1166 320 1125 q 205 1289 212 1208 m 417 892 l 273 374 l 562 374 l 417 892 m 335 1012 l 501 1012 l 811 0 l 669 0 l 594 264 l 240 264 l 166 0 l 25 0 l 335 1012 "},"⎢":{"x_min":190,"x_max":322.25,"ha":836,"o":"m 190 1308 l 322 1308 l 322 -350 l 190 -350 l 190 1308 "},"∺":{"x_min":59,"x_max":779,"ha":836,"o":"m 60 493 l 777 493 l 777 378 l 60 378 l 60 493 m 606 784 l 777 784 l 777 577 l 606 577 l 606 784 m 608 298 l 779 298 l 779 91 l 608 91 l 608 298 m 60 784 l 231 784 l 231 577 l 60 577 l 60 784 m 59 298 l 230 298 l 230 91 l 59 91 l 59 298 "},"⇿":{"x_min":16.609375,"x_max":819.390625,"ha":836,"o":"m 216 512 l 84 380 l 216 248 l 216 512 m 620 512 l 620 248 l 751 380 l 620 512 m 270 325 l 270 127 l 16 380 l 270 633 l 270 436 l 566 436 l 566 633 l 819 380 l 566 127 l 566 325 l 270 325 "},"ອ":{"x_min":81,"x_max":767,"ha":836,"o":"m 236 230 q 202 219 211 230 q 193 186 193 208 q 203 152 193 161 q 236 143 214 143 q 269 154 260 143 q 279 186 279 166 q 268 220 279 210 q 236 230 257 230 m 423 371 q 81 579 81 371 q 423 790 81 790 q 767 584 767 790 l 767 158 q 426 -12 767 -12 q 174 37 290 -12 q 84 191 84 76 q 233 337 84 337 q 394 189 394 337 q 352 113 394 141 q 434 90 396 90 q 637 208 637 90 l 637 407 q 423 371 580 371 m 638 581 q 423 687 638 687 q 206 581 206 687 q 424 473 206 473 q 638 581 638 473 "},"Ϋ":{"x_min":24.75,"x_max":810.921875,"ha":836,"o":"m 216 1269 l 354 1269 l 354 1131 l 216 1131 l 216 1269 m 482 1269 l 619 1269 l 619 1131 l 482 1131 l 482 1269 m 24 1013 l 170 1013 l 417 566 l 663 1013 l 810 1013 l 486 454 l 486 0 l 348 0 l 348 454 l 24 1013 "},"ː":{"x_min":297.03125,"x_max":539.140625,"ha":836,"o":"m 417 494 l 297 718 l 539 718 l 417 494 m 417 223 l 539 0 l 297 0 l 417 223 "},"ö":{"x_min":93,"x_max":743.25,"ha":836,"o":"m 417 672 q 274 598 322 672 q 225 378 225 524 q 274 160 225 234 q 417 85 322 85 q 562 160 513 85 q 611 378 611 234 q 562 598 611 524 q 417 672 513 672 m 417 777 q 659 675 575 777 q 743 378 743 572 q 659 82 743 184 q 417 -20 576 -20 q 176 82 259 -20 q 93 378 93 184 q 176 675 93 572 q 417 777 259 777 m 216 1052 l 354 1052 l 354 915 l 216 915 l 216 1052 m 482 1052 l 619 1052 l 619 915 l 482 915 l 482 1052 "},"↲":{"x_min":124.921875,"x_max":712,"ha":836,"o":"m 274 281 l 601 281 l 601 936 l 712 936 l 712 170 l 274 170 l 382 61 l 321 0 l 124 197 l 124 253 l 321 450 l 382 389 l 274 281 "},"▥":{"x_min":4,"x_max":832,"ha":836,"o":"m 4 -53 l 4 774 l 832 774 l 832 -53 l 4 -53 m 679 24 l 754 24 l 754 697 l 679 697 l 679 24 m 530 24 l 602 24 l 602 697 l 530 697 l 530 24 m 381 24 l 453 24 l 453 697 l 381 697 l 381 24 m 230 24 l 304 24 l 304 697 l 230 697 l 230 24 m 81 24 l 153 24 l 153 697 l 81 697 l 81 24 "},"╧":{"x_min":-13,"x_max":850,"ha":836,"o":"m -13 220 l -13 337 l 850 337 l 850 220 l -13 220 m -13 453 l -13 570 l 364 570 l 364 1351 l 473 1351 l 473 570 l 850 570 l 850 453 l -13 453 "},"ẉ":{"x_min":0.09375,"x_max":836.265625,"ha":836,"o":"m 348 -142 l 487 -142 l 487 -280 l 348 -280 l 348 -142 m 0 760 l 123 760 l 255 145 l 364 537 l 470 537 l 580 145 l 712 760 l 836 760 l 658 0 l 539 0 l 417 416 l 297 0 l 177 0 l 0 760 "},"Ȧ":{"x_min":25.1875,"x_max":811.171875,"ha":836,"o":"m 348 1270 l 487 1270 l 487 1131 l 348 1131 l 348 1270 m 417 892 l 273 374 l 562 374 l 417 892 m 335 1012 l 501 1012 l 811 0 l 669 0 l 594 264 l 240 264 l 166 0 l 25 0 l 335 1012 "},"Ḽ":{"x_min":146,"x_max":772.96875,"ha":836,"o":"m 402 -74 l 502 -74 l 669 -328 l 574 -328 l 452 -162 l 330 -328 l 235 -328 l 402 -74 m 146 1012 l 284 1012 l 284 115 l 772 115 l 772 0 l 146 0 l 146 1012 "},"8":{"x_min":89,"x_max":748,"ha":836,"o":"m 418 480 q 276 428 326 480 q 227 284 227 377 q 277 138 227 190 q 418 87 328 87 q 560 138 510 87 q 610 284 610 189 q 559 428 610 377 q 418 480 509 480 m 298 537 q 162 620 211 559 q 113 767 113 681 q 195 959 113 888 q 418 1030 277 1030 q 641 959 559 1030 q 724 767 724 888 q 674 620 724 681 q 538 537 625 559 q 693 446 639 514 q 748 271 748 379 q 660 57 748 134 q 418 -20 572 -20 q 176 56 263 -20 q 89 270 89 133 q 142 446 89 378 q 298 537 196 514 m 249 755 q 292 630 249 673 q 418 588 335 588 q 544 630 501 588 q 588 755 588 673 q 544 881 588 838 q 418 925 501 925 q 292 881 335 925 q 249 755 249 837 "},"ﻱ":{"x_min":17,"x_max":836.515625,"ha":836,"o":"m 776 8 q 534 -156 686 -123 q 351 -182 414 -182 q 215 -164 264 -182 q 17 83 17 -93 q 59 239 17 162 l 184 239 q 140 82 140 150 q 251 -47 140 -16 q 359 -61 302 -61 q 514 -37 441 -61 q 631 39 587 -13 q 672 110 672 87 q 653 170 672 141 q 540 244 630 205 q 475 363 475 274 q 538 506 475 464 q 656 540 591 540 q 790 490 753 540 q 836 353 824 445 l 711 353 q 698 411 711 394 q 653 431 679 434 q 623 416 639 430 q 600 357 600 396 q 685 300 600 329 q 784 208 746 278 q 806 105 806 169 q 776 8 806 53 m 403 -237 l 505 -237 l 505 -339 l 403 -339 l 403 -237 m 234 -237 l 336 -237 l 336 -339 l 234 -339 l 234 -237 "},"ƿ":{"x_min":85,"x_max":765,"ha":836,"o":"m 210 -82 l 210 -289 l 85 -289 l 85 760 l 210 760 l 210 644 q 336 744 245 689 q 534 778 391 778 q 711 702 659 778 q 765 521 765 625 q 210 -82 765 233 m 210 40 q 635 480 635 312 q 596 615 635 571 q 476 660 558 660 q 210 497 327 660 l 210 40 "},"ﺅ":{"x_min":52,"x_max":729,"ha":836,"o":"m 500 307 q 428 268 458 307 q 412 220 412 245 q 446 153 412 183 q 608 126 478 126 q 549 290 608 250 q 500 307 524 307 m 729 125 q 612 -192 729 -74 q 455 -280 581 -223 q 52 -339 327 -339 l 52 -214 q 412 -162 303 -214 q 598 3 564 -91 q 487 9 518 3 q 358 54 393 25 q 280 214 280 121 q 423 422 280 361 q 503 439 462 439 q 612 404 564 439 q 717 246 701 342 q 729 125 729 176 m 367 587 l 420 599 q 380 637 390 613 q 369 692 369 662 q 405 786 369 757 q 508 818 444 818 q 586 795 550 818 l 586 727 q 508 750 551 750 q 452 737 464 750 q 433 698 433 716 q 496 628 433 646 q 600 640 519 621 l 600 571 l 367 519 l 367 587 "},"⁆":{"x_min":234.234375,"x_max":522,"ha":836,"o":"m 522 1055 l 522 -184 l 234 -184 l 234 -87 l 397 -87 l 397 387 l 234 387 l 234 484 l 397 484 l 397 958 l 234 958 l 234 1055 l 522 1055 "},"≭":{"x_min":59,"x_max":777,"ha":836,"o":"m 382 496 q 59 600 254 508 l 59 721 q 441 609 294 609 l 572 871 l 677 819 l 588 644 q 776 721 671 672 l 776 600 q 519 507 629 530 l 453 375 q 777 271 582 363 l 777 150 q 394 263 541 263 l 264 0 l 159 52 l 247 227 q 60 150 163 200 l 60 271 q 316 365 208 341 l 382 496 "},"☊":{"x_min":10,"x_max":826,"ha":836,"o":"m 728 262 q 662 293 701 293 q 597 262 624 293 q 571 188 571 232 q 597 114 571 144 q 663 84 624 84 q 728 114 701 84 q 755 188 755 144 q 728 262 755 232 m 172 293 q 107 263 134 293 q 80 188 80 232 q 107 113 80 144 q 172 83 134 83 q 237 113 210 83 q 264 188 264 144 q 237 263 264 232 q 172 293 210 293 m 753 344 q 777 320 766 334 q 826 188 826 265 q 778 58 826 112 q 663 4 730 4 q 549 58 596 4 q 502 189 502 112 q 548 320 502 266 q 647 373 590 368 q 711 533 711 442 q 624 715 711 640 q 412 791 537 791 q 200 715 287 791 q 114 532 114 639 q 176 373 114 441 q 287 320 242 373 q 334 188 334 266 q 286 57 334 111 q 172 3 239 3 q 57 57 105 3 q 10 188 10 111 q 57 320 10 266 q 76 339 67 330 q 13 531 13 423 q 129 783 13 679 q 412 887 245 887 q 696 783 580 887 q 813 532 813 679 q 753 344 813 426 "},"ħ":{"x_min":47,"x_max":712,"ha":836,"o":"m 712 470 l 712 0 l 587 0 l 587 470 q 551 620 587 572 q 438 669 515 669 q 304 606 351 669 q 257 429 257 544 l 257 0 l 132 0 l 132 862 l 47 862 l 47 973 l 132 973 l 132 1055 l 257 1055 l 257 973 l 496 973 l 496 862 l 257 862 l 257 645 q 347 744 290 710 q 481 778 403 778 q 654 701 597 778 q 712 470 712 625 "},"◉":{"x_min":4,"x_max":832,"ha":836,"o":"m 283 127 q 149 360 149 205 q 283 593 149 515 q 417 632 350 632 q 551 593 484 632 q 687 360 687 515 q 551 127 687 205 q 417 89 484 89 q 283 127 350 89 m 252 646 q 87 360 87 551 q 252 74 87 169 q 417 26 334 26 q 583 74 500 26 q 749 360 749 169 q 583 646 749 551 q 417 695 500 695 q 252 646 334 695 m 210 2 q 4 360 4 121 q 210 718 4 599 q 417 778 313 778 q 624 718 520 778 q 832 360 832 599 q 624 2 832 121 q 417 -57 520 -57 q 210 2 313 -57 "},"≇":{"x_min":60,"x_max":777,"ha":836,"o":"m 244 130 l 60 130 l 60 247 l 285 247 l 332 377 l 60 377 l 60 494 l 374 494 l 425 635 q 415 639 419 638 q 328 670 363 662 q 258 679 293 679 q 157 658 205 679 q 60 595 109 638 l 60 713 q 162 773 112 754 q 268 792 211 792 q 338 784 304 792 q 422 755 372 776 l 462 738 l 520 899 l 625 861 l 570 708 q 586 708 578 708 q 680 728 633 708 q 777 792 726 748 l 777 672 q 677 613 726 632 q 575 595 629 595 q 532 599 554 595 l 494 494 l 777 494 l 777 377 l 452 377 l 405 247 l 777 247 l 777 130 l 363 130 l 316 0 l 210 37 l 244 130 "},"ᶜ":{"x_min":233,"x_max":603,"ha":836,"o":"m 603 474 q 538 450 571 458 q 469 442 504 442 q 295 500 357 442 q 233 665 233 559 q 295 829 233 770 q 469 888 357 888 q 536 880 503 888 q 603 855 569 872 l 603 782 q 540 817 571 806 q 469 829 509 829 q 355 786 395 829 q 316 665 316 744 q 356 543 316 586 q 469 501 396 501 q 542 512 510 501 q 603 547 575 523 l 603 474 "},"⚈":{"x_min":32,"x_max":805,"ha":836,"o":"m 418 773 q 608 723 515 773 q 752 580 700 673 q 805 386 805 487 q 754 193 805 285 q 610 51 703 102 q 418 0 518 0 q 226 51 318 0 q 82 193 133 102 q 32 386 32 285 q 83 580 32 487 q 228 723 135 673 q 418 773 320 773 m 614 322 q 646 330 631 322 q 670 354 661 338 q 680 386 680 370 q 671 419 680 403 q 646 443 662 435 q 614 452 631 452 q 582 443 597 452 q 557 419 566 435 q 549 386 549 403 q 558 354 549 370 q 582 330 567 338 q 614 322 597 322 "},"ﻝ":{"x_min":45,"x_max":745,"ha":836,"o":"m 599 48 q 620 288 620 87 l 620 1055 l 745 1055 l 745 288 q 711 -24 745 24 q 569 -163 637 -129 q 357 -212 467 -212 q 209 -183 290 -212 q 45 50 45 -125 q 87 206 45 143 l 212 206 q 168 50 168 128 q 280 -80 168 -35 q 357 -91 307 -91 q 485 -67 428 -91 q 599 48 552 -40 "},"ἵ":{"x_min":187,"x_max":714.578125,"ha":836,"o":"m 480 760 l 480 268 q 503 138 480 169 q 600 105 527 105 l 661 105 l 661 0 l 585 0 q 407 65 462 0 q 352 275 352 131 l 352 663 l 209 663 l 209 760 l 480 760 m 187 1000 l 187 1119 l 349 1119 l 349 1000 l 253 1000 q 349 894 253 894 l 349 826 q 187 1000 187 826 m 580 1111 l 714 1111 l 494 856 l 389 856 l 580 1111 "},"ນ":{"x_min":51.234375,"x_max":752,"ha":836,"o":"m 177 642 q 220 599 177 599 q 263 642 263 599 q 219 685 263 685 q 177 642 177 685 m 51 -20 l 51 77 l 134 77 q 226 111 197 77 q 255 252 255 146 l 255 498 q 65 637 65 498 q 218 789 65 789 q 380 641 380 789 l 380 199 q 524 85 442 85 q 627 206 627 85 l 627 759 l 752 759 l 752 206 q 527 -20 752 -20 q 352 58 409 -20 q 127 -20 274 -20 l 51 -20 "},"˙":{"x_min":348,"x_max":487,"ha":836,"o":"m 348 1052 l 487 1052 l 487 914 l 348 914 l 348 1052 "},"„":{"x_min":143.546875,"x_max":692,"ha":836,"o":"m 521 205 l 692 205 l 692 64 l 558 -195 l 454 -195 l 521 64 l 521 205 m 210 205 l 381 205 l 381 64 l 248 -195 l 143 -195 l 210 64 l 210 205 "},"ӷ":{"x_min":174,"x_max":684.1875,"ha":836,"o":"m 299 125 l 431 125 l 431 -194 l 298 -194 l 298 0 l 174 0 l 174 760 l 684 760 l 684 635 l 299 635 l 299 125 "},"δ":{"x_min":93,"x_max":743.25,"ha":836,"o":"m 417 672 q 274 598 322 672 q 225 378 225 524 q 274 160 225 234 q 417 85 322 85 q 562 160 513 85 q 611 378 611 234 q 562 598 611 524 q 417 672 513 672 m 226 723 q 186 756 213 729 q 144 860 144 798 q 224 1008 144 952 q 438 1064 304 1064 q 541 1055 507 1064 l 644 1031 l 644 914 q 551 939 599 930 q 438 950 494 950 l 417 950 q 326 920 367 950 l 300 900 q 282 852 282 884 q 290 817 282 830 q 330 787 302 801 q 417 777 346 777 q 659 676 577 777 q 743 379 743 573 q 659 82 743 184 q 417 -20 576 -20 q 176 82 259 -20 q 93 378 93 184 q 176 675 93 572 q 226 723 197 701 "},"٢":{"x_min":104.875,"x_max":730,"ha":836,"o":"m 334 586 q 369 437 353 514 q 391 0 391 332 l 269 0 q 243 437 269 288 q 104 882 209 633 l 239 882 q 286 773 284 776 q 464 669 342 669 q 583 769 546 669 q 610 882 605 827 l 730 882 q 701 725 730 799 q 467 548 634 548 q 334 586 392 548 "},"ᶪ":{"x_min":230.859375,"x_max":604,"ha":836,"o":"m 436 607 q 455 536 436 560 q 512 512 474 512 l 604 512 l 604 445 q 566 331 604 371 q 457 291 527 291 l 370 291 l 370 351 l 448 351 q 506 374 487 351 q 525 445 525 397 l 525 453 l 504 453 q 395 493 434 453 q 357 607 357 533 l 357 994 l 230 994 l 230 1049 l 436 1049 l 436 607 "},"˞":{"x_min":-237.78125,"x_max":599,"ha":836,"o":"m -237 588 l 182 699 l 307 699 l 307 599 q 332 462 307 495 q 429 429 358 429 l 599 429 l 599 324 l 415 324 q 237 389 296 324 q 182 585 182 450 l -237 475 l -237 588 "},"‷":{"x_min":86.8125,"x_max":748.703125,"ha":836,"o":"m 545 760 l 486 760 l 290 1013 l 428 1013 l 545 760 m 748 760 l 690 760 l 493 1013 l 632 1013 l 748 760 m 341 760 l 283 760 l 86 1013 l 225 1013 l 341 760 "},"შ":{"x_min":37,"x_max":729,"ha":836,"o":"m 729 322 q 442 -1 729 -1 q 107 355 107 -1 q 415 708 107 708 q 593 620 545 708 l 607 620 l 607 816 q 510 961 607 961 q 415 818 415 961 l 415 796 l 309 796 l 309 819 q 199 961 309 961 q 142 807 142 961 l 37 807 q 186 1055 37 1055 q 355 924 313 1055 l 369 924 q 524 1055 408 1055 q 729 837 729 1055 l 729 322 m 602 348 q 413 612 602 612 q 234 354 234 612 q 445 97 234 97 q 602 348 602 97 "},"⇓":{"x_min":193.0625,"x_max":643.9375,"ha":836,"o":"m 474 149 l 474 747 l 530 747 l 530 205 l 582 258 l 643 197 l 446 0 l 391 0 l 193 197 l 254 258 l 307 205 l 307 747 l 363 747 l 363 149 l 418 94 l 474 149 "},"р":{"x_min":129,"x_max":752,"ha":836,"o":"m 254 95 l 254 -289 l 129 -289 l 129 760 l 254 760 l 254 662 q 337 748 285 719 q 457 778 389 778 q 673 671 595 778 q 752 376 752 564 q 673 85 752 191 q 457 -19 594 -19 q 335 9 387 -19 q 254 95 283 39 m 621 379 q 575 598 621 524 q 438 672 529 672 q 300 597 347 672 q 254 379 254 523 q 300 160 254 235 q 438 86 347 86 q 575 159 529 86 q 621 379 621 233 "},"⧻":{"x_min":60,"x_max":777,"ha":836,"o":"m 137 493 l 137 795 l 251 795 l 251 493 l 361 493 l 361 795 l 475 795 l 475 493 l 585 493 l 585 795 l 699 795 l 699 493 l 777 493 l 777 378 l 699 378 l 699 77 l 585 77 l 585 378 l 475 378 l 475 77 l 361 77 l 361 378 l 251 378 l 251 77 l 137 77 l 137 378 l 60 378 l 60 493 l 137 493 "},"Ö":{"x_min":79,"x_max":756,"ha":836,"o":"m 613 505 q 567 824 613 728 q 417 920 521 920 q 267 824 313 920 q 222 505 222 728 q 267 186 222 282 q 417 91 313 91 q 567 186 521 91 q 613 505 613 281 m 756 505 q 672 110 756 240 q 417 -20 588 -20 q 162 109 245 -20 q 79 505 79 239 q 162 900 79 770 q 417 1031 246 1031 q 672 900 588 1031 q 756 505 756 770 m 216 1268 l 354 1268 l 354 1130 l 216 1130 l 216 1268 m 482 1268 l 619 1268 l 619 1130 l 482 1130 l 482 1268 "},"ﹸ":{"x_min":220,"x_max":616,"ha":836,"o":"m 446 994 q 427 1002 440 995 q 354 1105 354 1040 q 400 1199 354 1164 q 462 1214 419 1214 q 538 1187 512 1214 q 577 1096 577 1150 q 566 1044 577 1075 q 590 1044 578 1044 q 616 1044 603 1044 l 616 970 q 571 970 593 970 q 532 973 550 970 q 455 903 502 932 q 220 820 319 820 l 220 895 q 417 968 323 895 q 446 994 432 980 m 491 1056 q 495 1066 493 1061 q 502 1096 502 1080 q 489 1129 502 1120 q 465 1139 478 1139 q 442 1132 449 1139 q 430 1105 430 1124 q 459 1067 430 1079 q 491 1056 473 1062 "},"⊡":{"x_min":54,"x_max":783,"ha":836,"o":"m 331 532 l 502 532 l 502 325 l 331 325 l 331 532 m 686 166 l 686 705 l 149 705 l 149 166 l 686 166 m 54 800 l 783 800 l 783 71 l 54 71 l 54 800 "},"Θ":{"x_min":79,"x_max":756,"ha":836,"o":"m 553 482 l 282 482 l 282 597 l 553 597 l 553 482 m 613 505 q 567 824 613 728 q 417 920 521 920 q 267 824 313 920 q 222 505 222 728 q 267 186 222 282 q 417 91 313 91 q 567 186 521 91 q 613 505 613 281 m 756 505 q 672 110 756 240 q 417 -20 588 -20 q 162 109 245 -20 q 79 505 79 239 q 162 900 79 770 q 417 1031 246 1031 q 672 900 588 1031 q 756 505 756 770 "},"Ř":{"x_min":97,"x_max":835.578125,"ha":836,"o":"m 515 478 q 605 427 568 464 q 698 276 642 389 l 835 0 l 688 0 l 568 255 q 474 396 516 364 q 365 428 432 428 l 235 428 l 235 0 l 97 0 l 97 1013 l 378 1013 q 634 937 545 1013 q 723 719 723 862 q 668 556 723 619 q 515 478 614 492 m 235 900 l 235 541 l 384 541 q 530 585 482 541 q 579 719 579 629 q 527 853 579 807 q 379 900 476 900 l 235 900 m 313 1105 l 170 1285 l 265 1285 l 377 1164 l 489 1285 l 584 1285 l 441 1105 l 313 1105 "},"⍗":{"x_min":4,"x_max":832,"ha":836,"o":"m 4 -138 l 4 1151 l 832 1151 l 832 -138 l 4 -138 m 473 1074 l 473 78 l 581 187 l 642 126 l 455 -61 l 755 -61 l 755 1074 l 473 1074 m 362 1074 l 81 1074 l 81 -61 l 379 -61 l 192 126 l 253 187 l 362 78 l 362 1074 "},"ﭰ":{"x_min":-13,"x_max":564,"ha":836,"o":"m 373 882 l 475 882 l 475 780 l 373 780 l 373 882 m 373 1051 l 475 1051 l 475 949 l 373 949 l 373 1051 m 204 882 l 306 882 l 306 780 l 204 780 l 204 882 m 204 1051 l 306 1051 l 306 949 l 204 949 l 204 1051 m 405 364 q 434 445 434 393 q 389 519 434 484 q 337 536 367 536 q 275 507 302 536 q 248 445 248 479 q 285 364 248 390 q 340 348 312 348 q 405 364 389 348 m -13 125 l 150 125 q 309 140 207 125 q 404 211 363 148 q 435 277 425 244 q 326 239 392 239 q 185 285 238 239 q 119 431 119 344 q 124 496 119 466 q 241 643 140 596 q 346 668 295 668 q 452 634 407 668 q 548 516 517 585 q 564 386 564 481 q 511 148 564 245 q 376 26 460 56 q 204 0 302 0 l -13 0 l -13 125 "},"ϙ":{"x_min":93,"x_max":743.25,"ha":836,"o":"m 417 672 q 274 598 322 672 q 225 379 225 524 q 274 160 225 234 q 417 86 322 86 q 562 160 513 86 q 611 379 611 234 q 562 598 611 524 q 417 672 513 672 m 480 -15 l 480 -289 l 355 -289 l 355 -15 q 176 82 241 1 q 93 379 93 184 q 176 675 93 573 q 417 778 259 778 q 659 675 575 778 q 743 379 743 573 q 659 82 743 184 q 480 -15 595 2 "},"𝙿":{"x_min":134,"x_max":774,"ha":836,"o":"m 271 900 l 271 520 l 429 520 q 577 570 524 520 q 631 710 631 620 q 578 850 631 800 q 429 900 525 900 l 271 900 m 134 1013 l 429 1013 q 686 935 599 1013 q 774 710 774 858 q 686 483 774 560 q 429 407 599 407 l 271 407 l 271 0 l 134 0 l 134 1013 "},"✔":{"x_min":50,"x_max":786,"ha":836,"o":"m 178 442 q 213 404 201 442 q 246 333 236 333 q 263 345 254 333 q 571 693 429 590 q 689 738 632 738 q 779 733 764 738 q 786 718 786 731 q 772 691 786 708 q 317 122 390 254 q 202 77 292 77 q 140 92 172 77 q 92 183 126 100 q 50 368 50 289 q 91 416 50 397 q 178 442 149 442 "},"ᾝ":{"x_min":-422,"x_max":745,"ha":836,"o":"m 518 -289 l 428 -289 q 369 -164 369 -289 l 369 -62 l 470 -62 l 470 -173 q 504 -244 470 -244 l 518 -244 l 518 -289 m 94 1013 l 232 1013 l 232 597 l 607 597 l 607 1013 l 745 1013 l 745 0 l 607 0 l 607 482 l 232 482 l 232 0 l 94 0 l 94 1013 m -422 1000 l -422 1119 l -259 1119 l -259 1000 l -356 1000 q -259 894 -356 894 l -259 826 q -422 1000 -422 826 m -28 1111 l 105 1111 l -115 856 l -219 856 l -28 1111 "},"ṅ":{"x_min":132,"x_max":712,"ha":836,"o":"m 348 1053 l 487 1053 l 487 915 l 348 915 l 348 1053 m 712 470 l 712 0 l 587 0 l 587 470 q 551 620 587 572 q 438 669 515 669 q 304 606 351 669 q 257 429 257 544 l 257 0 l 132 0 l 132 760 l 257 760 l 257 645 q 347 744 290 710 q 481 778 404 778 q 654 701 597 778 q 712 470 712 625 "},"ᶼ":{"x_min":237,"x_max":598,"ha":836,"o":"m 245 879 l 525 879 l 525 814 l 303 509 l 525 509 l 525 453 l 525 453 l 525 445 q 536 369 525 387 q 582 351 548 351 l 598 351 l 598 291 l 575 291 q 492 327 518 291 q 466 445 466 364 l 466 453 l 237 453 l 237 517 l 459 823 l 245 823 l 245 879 "},"и":{"x_min":132,"x_max":712,"ha":836,"o":"m 587 548 l 257 0 l 132 0 l 132 760 l 257 760 l 257 211 l 587 760 l 712 760 l 712 0 l 587 0 l 587 548 "},"³":{"x_min":221.53125,"x_max":627,"ha":836,"o":"m 495 759 q 593 709 559 745 q 627 618 627 672 q 562 488 627 533 q 378 443 498 443 q 300 450 338 443 q 221 470 261 457 l 221 552 q 306 525 267 534 q 375 517 344 517 q 483 544 443 517 q 524 618 524 571 q 486 694 524 668 q 374 720 448 720 l 330 720 l 330 793 l 380 793 q 476 814 443 793 q 510 876 510 835 q 477 935 510 914 q 385 957 444 957 q 317 948 355 957 q 240 925 279 940 l 240 1007 q 326 1024 286 1018 q 399 1031 366 1031 q 555 991 498 1031 q 612 883 612 951 q 582 804 612 835 q 495 759 552 772 "},"⇀":{"x_min":45,"x_max":792,"ha":836,"o":"m 792 325 l 45 325 l 45 436 l 642 436 l 533 544 l 594 605 l 792 408 l 792 325 "},"ن":{"x_min":37,"x_max":790,"ha":836,"o":"m 333 586 l 435 586 l 435 484 l 333 484 l 333 586 m 790 172 q 722 -65 790 45 q 577 -185 674 -144 q 395 -225 482 -225 q 195 -182 278 -225 q 37 84 37 -100 q 72 299 37 202 l 197 299 q 160 84 160 181 q 269 -82 160 -37 q 395 -99 307 -99 q 495 -85 452 -99 q 640 62 601 -50 q 664 193 664 128 q 616 466 664 362 l 741 466 q 790 172 790 358 "},"≅":{"x_min":60,"x_max":777,"ha":836,"o":"m 60 494 l 777 494 l 777 377 l 60 377 l 60 494 m 60 247 l 777 247 l 777 130 l 60 130 l 60 247 m 777 792 l 777 672 q 677 613 726 632 q 575 595 629 595 q 437 629 514 595 q 415 639 422 636 q 328 670 363 662 q 258 679 293 679 q 157 658 205 679 q 60 595 109 638 l 60 713 q 162 773 112 754 q 268 792 211 792 q 338 784 304 792 q 422 755 364 778 q 444 744 429 752 q 586 708 523 708 q 680 728 633 708 q 777 792 726 748 "},"♬":{"x_min":12,"x_max":825,"ha":836,"o":"m 822 922 l 825 919 l 825 211 q 679 91 825 91 q 539 176 549 91 q 669 258 539 258 q 773 228 729 258 l 776 228 l 776 598 l 295 598 l 295 219 q 157 84 295 103 l 155 84 q 12 184 12 84 q 143 256 12 256 q 248 225 199 256 l 248 922 l 822 922 m 297 807 l 297 720 l 776 720 l 776 807 l 297 807 "},"͘":{"x_min":696,"x_max":835,"ha":836,"o":"m 696 1052 l 835 1052 l 835 914 l 696 914 l 696 1052 "},"ᶣ":{"x_min":235,"x_max":601,"ha":836,"o":"m 235 614 l 235 878 l 314 878 l 314 614 q 336 530 314 557 q 407 503 359 503 q 492 537 463 503 q 522 637 522 572 l 522 878 l 601 878 l 601 290 l 522 290 l 522 517 q 464 461 501 480 q 380 443 428 443 q 270 485 306 443 q 235 614 235 528 "},"▱":{"x_min":4.0625,"x_max":832.109375,"ha":836,"o":"m 586 240 l 714 482 l 249 482 l 122 240 l 586 240 m 623 163 l 4 163 l 212 559 l 832 559 l 623 163 "},"˨":{"x_min":202.953125,"x_max":632,"ha":836,"o":"m 540 301 l 540 928 l 632 928 l 632 0 l 540 0 l 540 209 l 202 209 l 202 301 l 540 301 "},"؛":{"x_min":319,"x_max":517.609375,"ha":836,"o":"m 462 546 l 319 546 l 319 662 l 430 880 l 517 880 l 462 662 l 462 546 m 319 172 l 462 172 l 462 0 l 319 0 l 319 172 "},"ḥ":{"x_min":132,"x_max":712,"ha":836,"o":"m 348 -142 l 487 -142 l 487 -280 l 348 -280 l 348 -142 m 712 470 l 712 0 l 587 0 l 587 470 q 551 620 587 572 q 438 669 515 669 q 304 606 351 669 q 257 429 257 544 l 257 0 l 132 0 l 132 1055 l 257 1055 l 257 645 q 347 744 290 710 q 481 778 404 778 q 654 701 597 778 q 712 470 712 625 "},"Ἅ":{"x_min":-168,"x_max":811.484375,"ha":836,"o":"m 418 891 l 273 374 l 562 374 l 418 891 m 335 1012 l 501 1012 l 811 0 l 669 0 l 595 264 l 240 264 l 167 0 l 25 0 l 335 1012 m -168 1000 l -168 1119 l -5 1119 l -5 1000 l -102 1000 q -5 894 -102 894 l -5 826 q -168 1000 -168 826 m 224 1111 l 359 1111 l 138 856 l 34 856 l 224 1111 "},"Ρ":{"x_min":134,"x_max":774,"ha":836,"o":"m 271 900 l 271 520 l 429 520 q 577 570 524 520 q 631 710 631 620 q 578 850 631 800 q 429 900 525 900 l 271 900 m 134 1013 l 429 1013 q 686 935 599 1013 q 774 710 774 858 q 686 483 774 560 q 429 407 599 407 l 271 407 l 271 0 l 134 0 l 134 1013 "},"ῌ":{"x_min":93,"x_max":744,"ha":836,"o":"m 93 1013 l 231 1013 l 231 597 l 606 597 l 606 1013 l 744 1013 l 744 0 l 606 0 l 606 482 l 231 482 l 231 0 l 93 0 l 93 1013 m 517 -289 l 427 -289 q 368 -164 368 -289 l 368 -62 l 469 -62 l 469 -173 q 503 -244 469 -244 l 517 -244 l 517 -289 "},"┷":{"x_min":-13,"x_max":850,"ha":836,"o":"m -13 278 l -13 511 l 364 511 l 364 1350 l 473 1350 l 473 511 l 850 511 l 850 278 l -13 278 "},"Ṙ":{"x_min":97,"x_max":835.578125,"ha":836,"o":"m 314 1270 l 453 1270 l 453 1131 l 314 1131 l 314 1270 m 515 478 q 605 427 568 464 q 698 276 642 389 l 835 0 l 688 0 l 568 255 q 474 396 516 364 q 365 428 432 428 l 235 428 l 235 0 l 97 0 l 97 1013 l 378 1013 q 634 937 545 1013 q 723 719 723 862 q 668 556 723 619 q 515 478 614 492 m 235 900 l 235 541 l 384 541 q 530 585 482 541 q 579 719 579 629 q 527 853 579 807 q 379 900 476 900 l 235 900 "},"ª":{"x_min":183,"x_max":652,"ha":836,"o":"m 463 749 q 324 725 366 749 q 282 649 282 702 q 311 580 282 606 q 389 554 341 554 q 505 602 461 554 q 550 729 550 651 l 550 749 l 463 749 m 647 790 l 647 486 l 550 486 l 550 562 q 472 495 516 517 q 372 473 427 473 q 233 519 284 473 q 183 644 183 565 q 246 779 183 731 q 426 827 309 827 l 550 827 l 550 829 q 509 921 550 890 q 389 953 469 953 q 312 941 355 953 q 225 906 270 929 l 225 993 q 317 1021 271 1012 q 405 1031 362 1031 q 588 972 530 1031 q 647 790 647 914 m 199 401 l 652 401 l 652 318 l 199 318 l 199 401 "},"Ἓ":{"x_min":-426,"x_max":747.75,"ha":836,"o":"m 134 1013 l 734 1013 l 734 898 l 271 898 l 271 597 l 714 597 l 714 482 l 271 482 l 271 115 l 747 115 l 747 0 l 134 0 l 134 1013 m -426 1000 l -426 1119 l -263 1119 l -263 1000 l -360 1000 q -263 894 -360 894 l -263 826 q -426 1000 -426 826 m -100 1111 l 90 856 l -13 856 l -234 1111 l -100 1111 "},"ﻅ":{"x_min":7,"x_max":806,"ha":836,"o":"m 377 124 l 464 124 q 609 155 559 124 q 681 248 681 201 q 653 304 681 279 q 586 327 629 327 q 468 253 538 327 q 377 124 417 200 m 509 -1 l 158 -1 l 7 -1 l 7 124 l 159 124 l 159 1055 l 284 1055 l 284 195 q 368 323 335 282 q 569 444 465 444 q 747 388 685 444 q 806 253 806 335 q 681 49 806 124 q 509 -1 595 -1 m 393 622 l 495 622 l 495 520 l 393 520 l 393 622 "},"š":{"x_min":144.078125,"x_max":698,"ha":836,"o":"m 659 732 l 659 610 q 551 657 605 641 q 441 673 497 673 q 314 645 356 673 q 273 561 273 618 q 304 485 273 510 q 459 436 335 460 l 509 427 q 650 356 602 409 q 698 219 698 303 q 618 43 698 106 q 395 -20 538 -20 q 277 -8 339 -20 q 144 27 215 3 l 144 155 q 277 101 214 119 q 398 84 341 84 q 526 117 481 84 q 572 211 572 151 q 405 331 572 298 l 400 333 l 353 342 q 196 413 245 363 q 147 549 147 463 q 220 717 147 658 q 431 777 294 777 q 549 765 492 777 q 659 732 605 754 m 367 856 l 201 1111 l 295 1111 l 417 944 l 540 1111 l 634 1111 l 467 856 l 367 856 "},"┭":{"x_min":-13,"x_max":850.75,"ha":836,"o":"m 364 -419 l 364 278 l -13 278 l -13 511 l 473 511 l 473 453 l 850 453 l 850 336 l 473 336 l 473 -419 l 364 -419 "},"┉":{"x_min":-13,"x_max":851,"ha":836,"o":"m -13 278 l -13 511 l 115 511 l 115 278 l -13 278 m 237 278 l 237 511 l 358 511 l 358 278 l 237 278 m 480 278 l 480 511 l 601 511 l 601 278 l 480 278 m 723 278 l 723 511 l 851 511 l 851 278 l 723 278 "},"➺":{"x_min":37,"x_max":800.171875,"ha":836,"o":"m 523 349 q 800 440 648 399 q 623 249 684 380 q 606 224 617 234 q 581 207 594 214 q 552 201 568 201 q 523 207 536 201 q 498 224 509 214 q 481 249 487 234 q 476 279 476 262 q 481 307 476 294 q 498 332 487 322 q 523 349 509 343 m 44 401 q 37 441 37 420 q 44 480 37 462 q 66 513 53 500 q 100 535 81 527 q 138 544 117 544 q 177 536 159 544 q 799 455 356 455 q 177 345 344 427 q 138 339 159 339 q 100 346 117 339 q 66 368 79 355 q 44 401 51 385 m 523 533 q 498 549 509 539 q 481 574 487 560 q 476 603 476 588 q 481 633 476 619 q 498 657 487 647 q 523 674 509 668 q 552 680 536 680 q 581 674 568 680 q 606 657 594 668 q 623 633 615 649 q 800 442 684 501 q 523 533 615 492 "},"ჟ":{"x_min":108,"x_max":729,"ha":836,"o":"m 729 -12 q 413 -287 729 -287 q 108 -38 108 -287 l 234 -38 q 410 -192 234 -192 q 611 -10 611 -192 l 611 623 l 316 588 l 316 547 q 465 325 465 487 q 108 118 465 118 l 108 231 q 351 325 351 231 q 108 552 351 501 l 108 640 l 729 728 l 729 -12 "},"ნ":{"x_min":107,"x_max":728,"ha":836,"o":"m 728 371 q 414 0 728 0 q 107 332 107 0 l 107 802 q 332 1038 107 1038 l 646 1038 l 646 941 l 319 941 q 224 821 224 941 l 224 623 l 247 623 q 415 709 291 709 q 728 371 728 709 m 603 369 q 414 613 603 613 q 229 355 229 613 q 414 98 229 98 q 603 369 603 98 "},"Ƕ":{"x_min":42,"x_max":794,"ha":836,"o":"m 594 91 q 648 144 631 91 q 671 397 671 213 l 671 597 l 794 597 l 794 380 q 723 32 794 127 q 594 -20 684 -20 q 459 36 507 -20 q 368 380 368 139 l 368 482 l 165 482 l 165 0 l 42 0 l 42 1013 l 165 1013 l 165 597 l 368 597 l 368 1013 l 492 1013 l 492 397 q 547 117 492 211 q 594 91 563 91 "},"ﮊ":{"x_min":-35,"x_max":760,"ha":836,"o":"m 611 104 q 618 192 618 143 q 582 370 618 277 l 707 370 q 741 199 741 289 q 735 101 741 143 q 483 -241 707 -123 q -35 -339 298 -339 l -35 -217 q 415 -130 266 -217 q 611 104 588 -31 m 574 731 l 676 731 l 676 629 l 574 629 l 574 731 m 658 562 l 760 562 l 760 460 l 658 460 l 658 562 m 489 562 l 591 562 l 591 460 l 489 460 l 489 562 "},"1":{"x_min":166.78125,"x_max":742,"ha":836,"o":"m 183 115 l 396 115 l 396 888 l 166 837 l 166 962 l 394 1012 l 532 1012 l 532 115 l 742 115 l 742 0 l 183 0 l 183 115 "},"♏":{"x_min":33.828125,"x_max":802.59375,"ha":836,"o":"m 581 153 q 604 57 581 92 q 668 23 627 23 l 709 23 l 709 88 l 710 88 l 802 -7 l 710 -104 l 709 -102 l 709 -37 l 668 -37 q 545 29 576 -37 q 519 135 519 70 l 519 569 q 495 744 519 744 q 437 684 469 744 q 377 514 406 624 l 377 3 l 309 3 l 309 511 q 301 717 309 688 q 278 747 294 747 q 217 684 260 747 q 174 504 174 622 l 174 4 l 103 4 l 103 603 q 33 814 103 708 l 98 814 q 167 672 151 770 q 219 776 178 724 q 292 828 260 828 q 347 773 320 828 q 374 648 374 718 q 437 770 392 713 q 515 828 482 828 q 562 781 543 828 q 581 615 581 735 l 581 504 l 581 153 l 581 153 "},"ᵈ":{"x_min":222,"x_max":615,"ha":836,"o":"m 536 823 l 536 1044 l 615 1044 l 615 453 l 536 453 l 536 506 q 483 458 516 474 q 408 442 451 442 q 271 501 321 442 q 222 666 222 561 q 271 829 222 770 q 408 888 321 888 q 484 871 451 888 q 536 823 517 855 m 334 787 q 305 665 305 746 q 334 542 305 583 q 420 501 363 501 q 506 542 476 501 q 536 665 536 584 q 506 787 536 745 q 420 829 476 829 q 334 787 363 829 "},"ɩ":{"x_min":134.6875,"x_max":702,"ha":836,"o":"m 702 0 l 563 0 q 389 71 450 0 q 330 275 330 141 l 330 662 l 134 662 l 134 758 l 455 758 l 455 275 q 484 147 455 189 q 575 105 514 105 l 702 105 l 702 0 "},"ǒ":{"x_min":93,"x_max":743.25,"ha":836,"o":"m 417 672 q 274 598 322 672 q 225 378 225 524 q 274 160 225 234 q 417 85 322 85 q 562 160 513 85 q 611 378 611 234 q 562 598 611 524 q 417 672 513 672 m 417 777 q 659 675 575 777 q 743 378 743 572 q 659 82 743 184 q 417 -20 576 -20 q 176 82 259 -20 q 93 378 93 184 q 176 675 93 572 q 417 777 259 777 m 368 856 l 201 1110 l 295 1110 l 417 944 l 540 1110 l 634 1110 l 467 856 l 368 856 "},"ӡ":{"x_min":84.671875,"x_max":751,"ha":836,"o":"m 413 323 q 571 284 484 323 q 696 182 637 256 q 751 18 751 111 q 648 -213 751 -131 q 355 -296 545 -296 q 224 -283 291 -296 q 84 -245 156 -270 l 84 -113 q 209 -164 141 -147 q 351 -181 277 -181 q 547 -130 480 -181 q 615 18 615 -79 q 552 158 615 107 q 377 209 489 209 l 260 209 l 260 321 l 551 660 l 99 660 l 99 760 l 692 760 l 692 645 l 413 323 "},"ḽ":{"x_min":108.9375,"x_max":702,"ha":836,"o":"m 368 -74 l 468 -74 l 635 -328 l 541 -328 l 418 -162 l 296 -328 l 201 -328 l 368 -74 m 434 275 q 464 148 434 191 q 556 105 495 105 l 702 105 l 702 0 l 543 0 q 370 71 431 0 q 309 275 309 143 l 309 965 l 108 965 l 108 1063 l 434 1063 l 434 275 "},"ī":{"x_min":121,"x_max":741,"ha":836,"o":"m 215 1035 l 621 1035 l 621 935 l 215 935 l 215 1035 m 173 760 l 493 760 l 493 97 l 741 97 l 741 0 l 121 0 l 121 97 l 368 97 l 368 663 l 173 663 l 173 760 "},"̢":{"x_min":123,"x_max":495,"ha":836,"o":"m 123 87 l 248 87 l 248 -13 q 277 -141 248 -99 q 369 -183 308 -183 l 495 -183 l 495 -289 l 356 -289 q 183 -217 244 -289 q 123 -13 123 -145 l 123 87 "},"ӹ":{"x_min":71,"x_max":766,"ha":836,"o":"m 217 1053 l 355 1053 l 355 916 l 217 916 l 217 1053 m 483 1053 l 620 1053 l 620 916 l 483 916 l 483 1053 m 641 0 l 641 760 l 766 760 l 766 0 l 641 0 m 194 104 l 250 104 q 380 134 334 104 q 426 226 426 164 q 379 319 426 288 q 250 350 332 350 l 194 350 l 194 104 m 71 0 l 71 760 l 194 760 l 194 452 l 256 452 q 478 395 398 452 q 559 224 559 338 q 480 55 559 111 q 256 0 401 0 l 71 0 "},"ℙ":{"x_min":45,"x_max":799,"ha":836,"o":"m 110 945 l 110 68 l 240 68 l 240 945 l 110 945 m 305 945 l 305 496 l 500 496 q 531 497 516 496 l 531 943 q 500 945 516 945 l 305 945 m 45 1013 l 470 1013 q 715 938 632 1013 q 799 721 799 864 q 715 502 799 576 q 469 429 632 429 l 305 429 l 305 0 l 45 0 l 45 1013 m 599 929 l 599 512 q 667 555 638 527 q 728 721 728 613 q 668 886 728 828 q 599 929 639 914 "},"ʲ":{"x_min":330,"x_max":507,"ha":836,"o":"m 428 878 l 507 878 l 507 445 q 472 327 507 364 q 359 291 437 291 l 330 291 l 330 351 l 350 351 q 411 369 395 351 q 428 445 428 387 l 428 878 m 428 1044 l 507 1044 l 507 956 l 428 956 l 428 1044 "},"ˣ":{"x_min":185.8125,"x_max":650.359375,"ha":836,"o":"m 640 878 l 467 671 l 650 453 l 557 453 l 417 619 l 278 453 l 185 453 l 371 675 l 202 878 l 294 878 l 421 726 l 548 878 l 640 878 "},"ŏ":{"x_min":93,"x_max":743.25,"ha":836,"o":"m 209 1090 l 286 1090 q 326 1014 293 1039 q 417 989 358 989 q 507 1014 475 989 q 549 1090 540 1039 l 627 1090 q 572 944 627 993 q 417 896 517 896 q 263 944 318 896 q 209 1090 209 993 m 417 672 q 274 598 322 672 q 225 378 225 524 q 274 160 225 234 q 417 85 322 85 q 562 160 513 85 q 611 378 611 234 q 562 598 611 524 q 417 672 513 672 m 417 777 q 659 675 575 777 q 743 378 743 572 q 659 82 743 184 q 417 -20 576 -20 q 176 82 259 -20 q 93 378 93 184 q 176 675 93 572 q 417 777 259 777 "},"❉":{"x_min":23,"x_max":813,"ha":836,"o":"m 500 466 q 535 384 535 432 q 500 301 535 336 q 418 267 466 267 q 335 301 369 267 q 301 384 301 336 q 335 466 301 432 q 418 501 369 501 q 500 466 466 501 m 121 131 l 275 285 l 320 241 l 166 87 l 121 131 m 515 525 l 669 679 l 714 635 l 560 481 l 515 525 m 166 679 l 320 525 l 275 481 l 121 635 l 166 679 m 560 285 l 714 131 l 669 87 l 515 241 l 560 285 m 502 703 q 512 649 512 678 q 502 594 512 619 q 471 548 491 566 q 418 527 447 527 q 365 548 389 527 q 334 594 345 566 q 325 649 325 619 q 334 703 325 678 q 365 750 345 732 q 418 771 389 771 q 471 750 447 771 q 502 703 491 732 m 502 157 q 512 102 512 132 q 502 48 512 73 q 471 1 491 19 q 418 -19 447 -19 q 365 1 389 -19 q 334 48 345 19 q 325 102 325 73 q 334 157 325 132 q 365 203 345 185 q 418 225 389 225 q 471 203 447 225 q 502 157 491 185 m 90 460 q 144 470 115 470 q 199 460 174 470 q 245 429 227 449 q 267 376 267 405 q 245 323 267 347 q 199 292 227 303 q 144 283 174 283 q 90 292 115 283 q 43 323 61 303 q 23 376 23 347 q 43 429 23 405 q 90 460 61 449 m 636 460 q 691 470 661 470 q 745 460 720 470 q 792 429 774 449 q 813 376 813 405 q 792 323 813 347 q 745 292 774 303 q 691 283 720 283 q 636 292 661 283 q 590 323 608 303 q 569 376 569 347 q 590 429 569 405 q 636 460 608 449 "},"ý":{"x_min":70.75,"x_max":782.140625,"ha":836,"o":"m 582 243 q 502 34 550 164 q 412 -183 435 -144 q 334 -262 381 -236 q 225 -289 287 -289 l 125 -289 l 125 -185 l 198 -185 q 285 -153 253 -185 q 364 11 316 -121 l 70 759 l 202 759 l 428 165 l 649 760 l 782 760 l 582 243 m 512 1111 l 647 1111 l 426 856 l 322 856 l 512 1111 "},"ﭥ":{"x_min":-13,"x_max":850,"ha":836,"o":"m 411 58 q 214 0 360 0 l -13 0 l -13 125 l 176 125 q 316 154 286 125 q 349 259 349 188 l 349 407 l 474 407 l 474 259 q 508 154 474 188 q 648 125 538 125 l 850 125 l 850 0 l 610 0 q 411 58 465 0 m 439 609 l 541 609 l 541 507 l 439 507 l 439 609 m 439 779 l 541 779 l 541 677 l 439 677 l 439 779 m 269 609 l 371 609 l 371 507 l 269 507 l 269 609 m 269 779 l 371 779 l 371 677 l 269 677 l 269 779 "},"╝":{"x_min":-13.546875,"x_max":581,"ha":836,"o":"m -13 453 l -13 570 l 255 570 l 255 1351 l 364 1351 l 364 453 l -13 453 m -13 220 l -13 337 l 472 337 l 472 1351 l 581 1351 l 581 220 l -13 220 "},"❒":{"x_min":33,"x_max":804,"ha":836,"o":"m 715 41 l 715 683 l 74 683 l 74 41 l 715 41 m 755 1 l 33 1 l 33 723 l 96 772 l 804 772 l 804 64 l 755 1 "},"∇":{"x_min":-4.0625,"x_max":841.609375,"ha":836,"o":"m -4 966 l 841 966 l 488 0 l 347 0 l -4 966 m 417 138 l 668 849 l 168 849 l 417 138 "},"꜒":{"x_min":203,"x_max":632.046875,"ha":836,"o":"m 295 0 l 203 0 l 203 928 l 632 928 l 632 836 l 295 836 l 295 0 "},"ⱽ":{"x_min":179.03125,"x_max":657.140625,"ha":836,"o":"m 417 517 l 567 1020 l 657 1020 l 470 453 l 365 453 l 179 1020 l 268 1020 l 417 517 "},"Ί":{"x_min":-152.90625,"x_max":698,"ha":836,"o":"m 136 1013 l 698 1013 l 698 898 l 486 898 l 486 115 l 698 115 l 698 0 l 136 0 l 136 115 l 348 115 l 348 898 l 136 898 l 136 1013 m 37 1111 l 171 1111 l -48 856 l -152 856 l 37 1111 "},"ӛ":{"x_min":83,"x_max":754,"ha":836,"o":"m 216 1052 l 354 1052 l 354 915 l 216 915 l 216 1052 m 482 1052 l 619 1052 l 619 915 l 482 915 l 482 1052 m 83 346 l 83 408 l 624 408 l 624 412 q 559 604 624 536 q 376 672 494 672 q 251 653 316 672 q 112 595 186 634 l 112 719 q 249 763 183 748 q 377 777 315 777 q 654 671 554 777 q 754 378 754 565 q 656 88 754 197 q 395 -20 558 -20 q 166 78 250 -20 q 83 346 83 176 m 208 311 q 258 143 208 201 q 400 85 308 85 q 549 145 491 85 q 618 311 607 205 l 208 311 "},"╄":{"x_min":-13.8125,"x_max":850,"ha":836,"o":"m 363 -419 l 363 278 l 309 278 l 309 336 l -13 336 l -13 453 l 309 453 l 309 1351 l 526 1351 l 526 511 l 850 511 l 850 278 l 472 278 l 472 -419 l 363 -419 "},"ἒ":{"x_min":115,"x_max":721.859375,"ha":836,"o":"m 305 412 q 180 473 224 429 q 137 580 137 516 q 219 724 137 670 q 444 778 302 778 q 560 769 499 778 q 694 745 623 761 l 694 631 q 564 658 623 650 q 455 667 506 667 q 311 637 361 667 q 261 558 261 608 q 309 488 261 517 q 450 459 358 459 l 563 459 l 563 361 l 455 361 q 296 323 353 361 q 239 231 239 286 q 300 129 239 165 q 479 94 362 94 q 608 106 546 94 q 721 140 669 117 l 721 23 q 595 -5 656 4 q 475 -15 533 -15 q 208 47 302 -15 q 115 222 115 109 q 165 346 115 296 q 305 412 215 396 m 331 1000 q 167 826 331 826 l 167 894 q 264 1000 264 894 l 167 1000 l 167 1119 l 331 1119 l 331 1000 m 493 1111 l 684 856 l 579 856 l 359 1111 l 493 1111 "}," ":{"x_min":0,"x_max":0,"ha":836},"‴":{"x_min":86.8125,"x_max":748.703125,"ha":836,"o":"m 493 760 l 611 1013 l 748 1013 l 553 760 l 493 760 m 86 760 l 204 1013 l 341 1013 l 146 760 l 86 760 m 290 760 l 408 1013 l 545 1013 l 349 760 l 290 760 "},"ἑ":{"x_min":115,"x_max":721.859375,"ha":836,"o":"m 305 412 q 180 473 224 429 q 137 580 137 516 q 219 724 137 670 q 444 778 302 778 q 560 769 499 778 q 694 745 623 761 l 694 631 q 564 658 623 650 q 455 667 506 667 q 311 637 361 667 q 261 558 261 608 q 309 488 261 517 q 449 459 358 459 l 563 459 l 563 361 l 454 361 q 296 323 353 361 q 239 231 239 286 q 300 129 239 165 q 479 94 362 94 q 608 106 546 94 q 721 140 669 117 l 721 23 q 595 -5 656 4 q 475 -15 533 -15 q 208 47 302 -15 q 115 222 115 109 q 165 346 115 296 q 305 412 215 396 m 337 1000 l 337 1119 l 499 1119 l 499 1000 l 403 1000 q 499 894 403 894 l 499 826 q 337 1000 337 826 "},"ᴝ":{"x_min":29.640625,"x_max":808,"ha":836,"o":"m 500 1 l 29 1 l 29 126 l 500 126 q 650 162 602 126 q 699 275 699 199 q 636 410 699 363 q 459 457 574 457 l 30 457 l 30 582 l 788 582 l 788 457 l 673 457 q 773 366 739 423 q 808 231 808 309 q 731 58 808 115 q 500 1 655 1 "},"Ь":{"x_min":134,"x_max":774,"ha":836,"o":"m 271 113 l 429 113 q 578 162 525 113 q 631 302 631 212 q 577 442 631 392 q 429 493 524 493 l 271 493 l 271 113 m 134 0 l 134 1013 l 271 1013 l 271 606 l 429 606 q 686 529 599 606 q 774 302 774 452 q 686 77 774 154 q 429 0 599 0 l 134 0 "},"ƽ":{"x_min":84.671875,"x_max":751,"ha":836,"o":"m 351 -181 q 604 -48 562 -181 q 615 18 615 -17 q 552 158 615 109 q 377 209 489 209 l 174 209 l 174 760 l 684 760 l 684 635 l 299 635 l 299 323 l 412 323 q 571 284 482 323 q 696 181 638 255 q 751 17 751 111 q 647 -213 751 -131 q 355 -296 544 -296 q 84 -245 228 -296 l 84 -113 q 351 -181 199 -181 "},"↢":{"x_min":45,"x_max":791.65625,"ha":836,"o":"m 627 380 l 791 216 l 730 155 l 561 325 l 194 325 l 303 216 l 242 155 l 45 352 l 45 408 l 242 605 l 303 544 l 194 436 l 561 436 l 730 605 l 791 544 l 627 380 "},"̅":{"x_min":0,"x_max":836,"ha":836,"o":"m 836 1049 l 836 995 l 0 995 l 0 1049 l 836 1049 "},"̸":{"x_min":5.421875,"x_max":813.796875,"ha":836,"o":"m 75 -47 l 5 0 l 745 1057 l 813 1007 l 75 -47 "},"ᾯ":{"x_min":-229,"x_max":786,"ha":836,"o":"m 50 0 l 50 117 l 216 117 q 95 305 132 207 q 58 530 58 403 q 155 865 58 741 q 416 990 253 990 q 678 865 580 990 q 777 530 777 741 q 739 305 777 403 q 618 117 701 207 l 786 117 l 786 0 l 472 0 l 472 117 q 599 279 553 168 q 644 541 644 391 q 583 787 644 697 q 418 877 522 877 q 252 787 313 877 q 192 541 192 697 q 237 279 192 391 q 364 117 282 168 l 364 0 l 50 0 m -87 1000 l -87 1119 l 75 1119 l 75 1000 l -21 1000 q 75 894 -21 894 l 75 826 q -87 1000 -87 826 m -8 1207 l -47 1244 q -72 1264 -61 1258 q -93 1271 -83 1271 q -131 1245 -119 1271 q -144 1165 -144 1220 l -229 1165 q -194 1306 -229 1256 q -97 1357 -159 1357 q -49 1347 -71 1357 q -2 1315 -27 1338 l 35 1278 q 61 1258 50 1264 q 81 1252 72 1252 q 119 1277 107 1252 q 132 1357 132 1302 l 217 1357 q 182 1216 217 1266 q 86 1166 147 1166 q 37 1175 59 1166 q -8 1207 16 1184 m 517 -289 l 427 -289 q 368 -164 368 -289 l 368 -62 l 469 -62 l 469 -173 q 503 -244 469 -244 l 517 -244 l 517 -289 "},"¤":{"x_min":139.125,"x_max":746.5625,"ha":836,"o":"m 589 436 q 546 539 589 497 q 443 581 504 581 q 339 539 381 581 q 297 436 297 497 q 339 331 297 373 q 443 289 381 289 q 546 331 504 289 q 589 436 589 374 m 572 627 l 685 739 l 746 676 l 633 564 q 664 499 654 530 q 674 435 674 467 q 663 370 674 401 q 632 308 653 339 l 746 195 l 682 132 l 569 245 q 507 214 538 224 q 443 204 476 204 q 377 213 410 204 q 312 242 345 223 l 201 132 l 139 193 l 251 305 q 220 372 230 340 q 211 435 211 403 q 221 500 211 468 q 252 562 231 532 l 139 675 l 202 739 l 315 625 q 377 656 346 646 q 443 667 408 667 q 506 657 474 667 q 572 627 538 647 "},"p":{"x_min":129,"x_max":752,"ha":836,"o":"m 254 95 l 254 -289 l 129 -289 l 129 760 l 254 760 l 254 662 q 337 748 285 719 q 457 778 389 778 q 673 671 595 778 q 752 376 752 564 q 673 85 752 191 q 457 -19 594 -19 q 335 9 387 -19 q 254 95 283 39 m 621 379 q 575 598 621 524 q 438 672 529 672 q 300 597 347 672 q 254 379 254 523 q 300 160 254 235 q 438 86 347 86 q 575 159 529 86 q 621 379 621 233 "},"Ἤ":{"x_min":-409.296875,"x_max":744,"ha":836,"o":"m 93 1013 l 231 1013 l 231 597 l 606 597 l 606 1013 l 744 1013 l 744 0 l 606 0 l 606 482 l 231 482 l 231 0 l 93 0 l 93 1013 m -246 1000 q -409 826 -246 826 l -409 894 q -313 1000 -313 894 l -409 1000 l -409 1119 l -246 1119 l -246 1000 m -29 1111 l 104 1111 l -115 856 l -220 856 l -29 1111 "},"ﭩ":{"x_min":-13,"x_max":850,"ha":836,"o":"m 411 58 q 214 0 360 0 l -13 0 l -13 125 l 176 125 q 316 154 286 125 q 349 259 349 188 l 349 407 l 474 407 l 474 259 q 507 154 474 188 q 648 125 537 125 l 850 125 l 850 0 l 610 0 q 411 58 465 0 m 446 601 l 484 601 q 552 609 536 601 q 588 646 588 632 q 567 678 588 667 q 518 660 557 675 q 446 601 484 647 m 500 532 l 381 532 l 305 532 l 305 601 l 360 601 l 360 871 l 429 871 l 429 653 q 524 730 453 703 q 614 729 567 746 q 659 656 659 712 q 615 560 659 594 q 500 532 578 532 "},"►":{"x_min":4,"x_max":832.046875,"ha":836,"o":"m 4 91 l 4 630 l 832 360 l 4 91 "},"Ӭ":{"x_min":94,"x_max":728,"ha":836,"o":"m 194 1268 l 332 1268 l 332 1130 l 194 1130 l 194 1268 m 460 1268 l 597 1268 l 597 1130 l 460 1130 l 460 1268 m 318 -20 q 94 35 198 -20 l 94 175 q 324 91 196 91 q 518 190 452 91 q 583 448 583 291 l 156 448 l 156 563 l 581 563 q 518 816 561 750 q 324 920 451 920 q 94 835 197 920 l 94 975 q 318 1031 198 1031 q 620 892 511 1031 q 728 504 728 753 q 620 117 728 255 q 318 -20 512 -20 "},"῭":{"x_min":188.859375,"x_max":619,"ha":836,"o":"m 216 1053 l 354 1053 l 354 916 l 216 916 l 216 1053 m 482 1053 l 619 1053 l 619 916 l 482 916 l 482 1053 m 323 1362 l 513 1107 l 409 1107 l 188 1362 l 323 1362 "},"ບ":{"x_min":85,"x_max":752,"ha":836,"o":"m 288 638 q 245 682 288 682 q 202 638 202 682 q 245 595 202 595 q 288 638 288 595 m 85 216 q 208 497 85 364 q 85 645 85 523 q 240 778 85 778 q 401 649 401 778 q 307 444 401 546 q 213 227 213 341 q 412 89 213 89 q 627 289 627 89 l 627 759 l 752 759 l 752 290 q 412 -12 752 -12 q 85 216 85 -12 "},"ђ":{"x_min":24,"x_max":752,"ha":836,"o":"m 24 663 l 24 760 l 153 760 l 153 1055 l 278 1055 l 278 760 l 581 760 l 581 663 l 278 663 l 278 393 q 368 492 311 458 q 509 526 425 526 q 690 447 628 526 q 752 218 752 369 q 667 -132 752 -6 q 421 -288 582 -257 l 421 -177 q 562 -65 503 -160 q 621 218 621 29 q 585 369 621 321 q 465 417 549 417 q 325 354 372 417 q 278 176 278 292 l 278 0 l 153 0 l 153 663 l 24 663 "},"ϕ":{"x_min":74,"x_max":762.25,"ha":836,"o":"m 480 -289 l 355 -289 l 355 -15 q 163 82 233 0 q 74 379 74 184 q 163 675 74 562 q 355 773 226 755 l 355 1013 l 480 1013 l 480 773 q 672 675 600 757 q 762 379 762 573 q 672 82 762 196 q 480 -15 608 1 l 480 -289 m 480 96 q 574 160 538 111 q 630 379 630 234 q 574 598 630 506 q 480 662 545 645 l 480 96 m 355 96 l 355 662 q 261 598 296 647 q 206 379 206 524 q 261 160 206 253 q 355 96 288 114 "},"y":{"x_min":70.75,"x_max":782.140625,"ha":836,"o":"m 582 243 q 502 34 550 164 q 412 -183 435 -144 q 334 -262 381 -236 q 225 -289 287 -289 l 125 -289 l 125 -185 l 198 -185 q 285 -153 253 -185 q 364 11 316 -121 l 70 759 l 202 759 l 428 165 l 649 760 l 782 760 l 582 243 "},"‗":{"x_min":0,"x_max":836,"ha":836,"o":"m 836 -274 l 836 -328 l 0 -328 l 0 -274 l 836 -274 m 836 -111 l 836 -165 l 0 -165 l 0 -111 l 836 -111 "},"ḓ":{"x_min":83,"x_max":706,"ha":836,"o":"m 367 -74 l 467 -74 l 633 -328 l 539 -328 l 417 -162 l 295 -328 l 201 -328 l 367 -74 m 581 662 l 581 1055 l 706 1055 l 706 0 l 581 0 l 581 95 q 498 9 549 39 q 378 -19 446 -19 q 161 87 240 -19 q 83 381 83 193 q 162 672 83 567 q 378 778 241 778 q 499 748 446 778 q 581 662 551 718 m 215 379 q 261 159 215 233 q 396 86 307 86 q 533 160 486 86 q 581 379 581 235 q 533 597 581 523 q 396 672 486 672 q 261 598 307 672 q 215 379 215 524 "},"✗":{"x_min":89,"x_max":748,"ha":836,"o":"m 657 823 q 671 814 662 823 q 690 790 681 805 q 716 819 707 819 q 739 804 724 819 q 748 783 748 794 q 735 755 748 768 q 513 482 621 631 q 636 241 558 372 q 643 223 643 229 q 626 197 643 210 l 608 184 q 611 167 611 178 q 599 141 611 150 q 578 132 584 132 q 552 146 564 132 q 416 345 486 231 q 199 15 321 222 q 139 -14 181 -14 q 116 9 119 -14 q 89 58 89 24 q 95 119 89 102 q 112 150 97 127 q 351 472 225 326 q 261 718 284 632 q 257 744 257 737 q 267 765 257 751 q 286 780 277 780 q 307 764 294 780 q 319 780 311 773 q 344 788 328 788 q 367 772 362 788 q 446 596 397 679 q 636 809 524 697 q 657 823 649 823 "},"𝚒":{"x_min":121,"x_max":741,"ha":836,"o":"m 173 759 l 493 759 l 493 97 l 741 97 l 741 0 l 121 0 l 121 97 l 368 97 l 368 662 l 173 662 l 173 759 m 368 1055 l 493 1055 l 493 897 l 368 897 l 368 1055 "},"ƅ":{"x_min":40.4375,"x_max":795,"ha":836,"o":"m 616 159 q 663 378 663 233 q 616 598 663 524 q 481 672 570 672 q 343 598 390 672 q 297 378 297 523 q 343 160 297 235 q 481 85 390 85 q 616 159 570 85 m 297 662 q 379 747 326 718 q 500 777 431 777 q 716 672 637 777 q 795 381 795 566 q 716 86 795 193 q 499 -20 637 -20 q 379 9 431 -20 q 297 95 328 39 l 297 0 l 172 0 l 172 642 l 40 797 l 297 1055 l 297 662 "},"ë":{"x_min":83,"x_max":754,"ha":836,"o":"m 754 411 l 754 350 l 213 350 l 213 345 q 277 153 213 221 q 460 85 342 85 q 585 104 520 85 q 725 162 650 123 l 725 38 q 587 -5 653 9 q 459 -20 521 -20 q 182 86 282 -20 q 83 378 83 192 q 180 669 83 560 q 441 777 278 777 q 670 679 586 777 q 754 411 754 581 m 628 447 q 578 614 628 557 q 436 672 529 672 q 287 612 345 672 q 217 447 228 552 l 628 447 m 225 1052 l 363 1052 l 363 915 l 225 915 l 225 1052 m 491 1052 l 628 1052 l 628 915 l 491 915 l 491 1052 "},"б":{"x_min":89,"x_max":743.25,"ha":836,"o":"m 611 378 q 417 672 611 672 q 225 378 225 672 q 273 160 225 234 q 417 85 322 85 q 611 378 611 85 m 193 694 q 425 777 274 777 q 659 675 575 777 q 743 378 743 572 q 659 82 743 184 q 417 -20 576 -20 q 174 84 259 -20 q 89 378 89 188 q 89 420 89 409 l 89 534 q 89 643 89 615 q 90 681 89 671 q 128 833 103 783 q 301 1018 189 960 q 578 1063 387 1063 q 636 1078 613 1063 l 684 982 q 625 970 660 973 l 463 954 q 346 918 396 947 q 198 735 212 839 l 193 694 "},"Ẏ":{"x_min":25.1875,"x_max":811.171875,"ha":836,"o":"m 348 1270 l 487 1270 l 487 1131 l 348 1131 l 348 1270 m 25 1013 l 171 1013 l 417 566 l 664 1013 l 811 1013 l 486 454 l 486 0 l 348 0 l 348 454 l 25 1013 "},"⇈":{"x_min":28.453125,"x_max":806.53125,"ha":836,"o":"m 417 610 l 554 747 l 609 747 l 806 549 l 745 488 l 637 597 l 637 0 l 526 0 l 526 597 l 417 488 l 309 597 l 309 0 l 198 0 l 198 597 l 89 488 l 28 549 l 226 747 l 281 747 l 417 610 "},"ṝ":{"x_min":215,"x_max":783.328125,"ha":836,"o":"m 215 1035 l 621 1035 l 621 935 l 215 935 l 215 1035 m 348 -142 l 487 -142 l 487 -280 l 348 -280 l 348 -142 m 783 603 q 702 648 743 634 q 611 663 660 663 q 432 589 494 663 q 371 377 371 516 l 371 0 l 246 0 l 246 760 l 371 760 l 371 611 q 466 735 402 692 q 620 778 531 778 q 706 766 666 778 q 783 730 746 755 l 783 603 "},"ӌ":{"x_min":132,"x_max":713,"ha":836,"o":"m 588 125 l 588 383 q 529 324 569 348 q 497 306 531 325 q 362 272 440 272 q 189 348 246 272 q 132 579 132 424 l 132 760 l 257 760 l 257 579 q 293 429 257 477 q 405 381 329 381 q 540 443 493 381 q 588 621 588 505 l 588 761 l 713 761 l 713 0 l 588 0 l 588 -194 l 455 -194 l 455 125 l 588 125 "},"☻":{"x_min":22,"x_max":813,"ha":836,"o":"m 22 505 q 137 786 22 670 q 417 903 253 903 q 697 786 581 903 q 813 505 813 670 q 697 226 813 342 q 417 111 581 111 q 137 226 253 111 q 22 505 22 342 m 230 503 l 195 503 q 414 277 195 277 q 640 504 640 277 l 602 504 q 417 339 552 339 q 230 503 296 339 m 645 656 q 576 731 645 731 q 500 653 500 731 q 571 580 500 580 q 645 656 645 580 m 337 657 q 267 731 337 731 q 191 653 191 731 q 263 580 191 580 q 337 657 337 580 "},"‐":{"x_min":241,"x_max":594,"ha":836,"o":"m 241 436 l 594 436 l 594 325 l 241 325 l 241 436 "},"⚗":{"x_min":15.140625,"x_max":821.328125,"ha":836,"o":"m 319 723 q 492 765 412 765 q 545 761 520 765 q 685 657 647 741 q 704 576 704 617 q 695 517 704 547 q 609 415 673 445 q 488 406 545 385 q 389 517 431 426 q 352 580 372 554 q 260 575 333 607 q 76 394 177 541 l 15 429 q 319 723 131 637 m 773 310 l 821 3 l 756 3 l 714 244 l 569 244 l 569 3 l 498 3 l 498 244 l 352 244 l 309 3 l 244 3 l 293 310 l 773 310 "},"ʋ":{"x_min":43.875,"x_max":775,"ha":836,"o":"m 404 668 l 622 668 q 738 524 700 600 q 775 357 775 449 q 678 99 775 198 q 429 0 582 0 l 382 0 q 203 65 259 0 q 149 275 149 130 l 149 663 l 43 663 l 43 760 l 274 760 l 274 275 q 299 138 274 171 q 396 105 326 105 l 431 105 q 588 171 528 105 q 648 345 648 237 q 603 512 648 444 q 487 631 549 593 q 404 668 435 660 "},"𝙱":{"x_min":113,"x_max":772,"ha":836,"o":"m 251 484 l 251 113 l 413 113 q 583 154 532 113 q 634 292 634 196 q 580 437 634 391 q 413 484 526 484 l 251 484 m 251 900 l 251 595 l 410 595 q 553 632 509 595 q 598 755 598 670 q 554 866 598 832 q 410 900 510 900 l 251 900 m 113 1013 l 412 1013 q 651 945 567 1013 q 736 755 736 878 q 691 609 736 662 q 558 542 647 555 q 715 457 658 527 q 772 278 772 386 q 681 70 772 140 q 412 0 591 0 l 113 0 l 113 1013 "},"➩":{"x_min":68,"x_max":767.390625,"ha":836,"o":"m 411 246 l 411 361 l 68 361 l 68 603 l 411 603 l 411 717 l 532 717 l 767 482 l 532 246 l 411 246 m 450 400 l 450 285 l 646 482 l 450 678 l 450 564 l 107 564 l 107 400 l 450 400 "},"┼":{"x_min":-13,"x_max":850,"ha":836,"o":"m 473 336 l 473 -419 l 364 -419 l 364 336 l -13 336 l -13 453 l 364 453 l 364 1351 l 473 1351 l 473 453 l 850 453 l 850 336 l 473 336 "},"₰":{"x_min":30.90625,"x_max":790,"ha":836,"o":"m 125 349 l 30 414 q 205 578 130 578 q 333 524 289 578 q 416 452 393 452 q 485 496 448 452 q 332 789 332 617 q 386 965 332 906 q 538 1031 446 1031 q 683 965 617 1031 q 740 789 740 909 q 667 519 740 635 q 790 279 790 408 q 704 56 790 147 q 462 -20 632 -20 l 462 90 q 614 140 552 90 q 664 280 664 180 q 583 417 664 340 q 416 332 490 332 q 289 402 340 332 q 220 450 256 450 q 125 349 185 450 m 564 597 q 611 789 611 670 q 592 881 611 848 q 535 924 569 924 q 477 881 500 924 q 461 789 461 848 q 564 597 461 677 "},"ﻓ":{"x_min":-13,"x_max":564,"ha":836,"o":"m 288 882 l 390 882 l 390 780 l 288 780 l 288 882 m 405 364 q 434 445 434 393 q 389 519 434 484 q 337 536 367 536 q 275 507 302 536 q 248 445 248 479 q 284 364 248 390 q 340 348 311 348 q 405 364 389 348 m -13 125 l 150 125 q 309 140 207 125 q 404 211 363 148 q 435 277 425 244 q 326 239 392 239 q 185 285 238 239 q 119 431 119 344 q 124 496 119 466 q 241 643 140 596 q 345 668 294 668 q 451 634 406 668 q 548 516 517 585 q 564 386 564 481 q 511 148 564 245 q 376 26 460 56 q 204 0 302 0 l -13 0 l -13 125 "},"ц":{"x_min":84,"x_max":758,"ha":836,"o":"m 758 102 l 758 -194 l 656 -194 l 656 0 l 84 0 l 84 759 l 209 759 l 209 102 l 538 102 l 538 759 l 663 759 l 663 102 l 758 102 "},"✝":{"x_min":105,"x_max":722,"ha":836,"o":"m 485 651 l 722 651 l 722 509 l 485 509 l 485 3 l 343 3 l 343 509 l 105 509 l 105 651 l 343 651 l 343 889 l 485 889 l 485 651 "},"w":{"x_min":0,"x_max":836.1875,"ha":836,"o":"m 0 760 l 123 760 l 255 145 l 364 538 l 470 538 l 580 145 l 712 760 l 836 760 l 658 0 l 539 0 l 417 416 l 297 0 l 177 0 l 0 760 "},"⌌":{"x_min":372,"x_max":813,"ha":836,"o":"m 511 566 l 813 566 l 813 489 l 511 489 l 511 566 m 372 428 l 449 428 l 449 102 l 372 102 l 372 428 "},"о":{"x_min":93,"x_max":743.25,"ha":836,"o":"m 417 672 q 274 598 322 672 q 225 378 225 524 q 274 160 225 234 q 417 85 322 85 q 562 160 513 85 q 611 378 611 234 q 562 598 611 524 q 417 672 513 672 m 417 777 q 659 675 575 777 q 743 378 743 572 q 659 82 743 184 q 417 -20 576 -20 q 176 82 259 -20 q 93 378 93 184 q 176 675 93 572 q 417 777 259 777 "},"⋜":{"x_min":58,"x_max":775,"ha":836,"o":"m 775 440 l 231 281 l 775 124 l 775 0 l 58 224 l 58 338 l 775 563 l 775 440 m 775 622 l 58 622 l 58 737 l 775 737 l 775 622 "},"Д":{"x_min":22,"x_max":813,"ha":836,"o":"m 732 116 l 813 116 l 813 -218 l 698 -218 l 698 1 l 137 1 l 137 -218 l 22 -218 l 22 116 l 74 116 q 132 341 106 116 q 153 697 153 514 l 153 1013 l 732 1013 l 732 116 m 594 898 l 291 898 l 291 696 q 271 349 291 544 q 249 145 253 155 q 246 130 246 136 q 277 116 246 116 l 594 116 l 594 898 "},"⊄":{"x_min":60,"x_max":777,"ha":836,"o":"m 433 658 l 383 658 q 226 592 290 658 q 162 435 162 527 q 226 278 162 341 q 290 232 255 248 l 433 658 m 257 134 q 154 205 200 158 q 60 435 60 299 q 154 665 60 569 q 383 760 248 760 l 469 760 l 520 911 l 629 875 l 590 760 l 777 760 l 777 658 l 555 658 l 406 213 l 777 213 l 777 111 l 384 111 q 370 111 377 111 l 319 -40 l 210 -4 l 257 134 "},"➵":{"x_min":57.125,"x_max":779.765625,"ha":836,"o":"m 617 474 l 617 594 q 779 455 691 503 q 617 315 691 406 l 617 436 l 443 436 l 443 474 l 617 474 m 153 434 l 442 434 l 346 338 l 57 338 l 153 434 m 153 474 l 57 571 l 346 571 l 442 474 l 153 474 "},"ﭴ":{"x_min":-13,"x_max":757,"ha":836,"o":"m 240 -203 l 342 -203 l 342 -305 l 240 -305 l 240 -203 m 240 -34 l 342 -34 l 342 -136 l 240 -136 l 240 -34 m 577 367 q 451 398 521 382 q 271 422 393 411 q 107 425 216 425 l 107 548 q 206 553 155 553 q 433 529 316 553 q 757 427 607 494 l 757 323 q 645 271 705 306 q 483 160 533 205 q 334 54 385 72 q 73 0 184 0 l -13 0 l -13 125 l 54 125 q 296 173 208 125 q 445 285 367 213 q 577 367 509 343 "},"↙":{"x_min":125,"x_max":711.5,"ha":836,"o":"m 125 39 l 125 318 l 211 318 l 211 164 l 632 586 l 711 507 l 289 86 l 443 86 l 443 0 l 164 0 l 125 39 "},"Ӂ":{"x_min":10.484375,"x_max":826.515625,"ha":836,"o":"m 205 1289 l 286 1289 q 328 1233 294 1252 q 418 1214 362 1214 q 507 1232 474 1214 q 550 1289 540 1251 l 631 1289 q 569 1166 623 1208 q 418 1125 515 1125 q 266 1166 320 1125 q 205 1289 213 1207 m 355 1013 l 482 1013 l 482 609 l 674 1013 l 814 1013 l 620 604 l 826 0 l 692 0 l 542 441 l 482 314 l 482 0 l 355 0 l 355 314 l 294 441 l 144 0 l 10 0 l 216 604 l 22 1013 l 162 1013 l 355 609 l 355 1013 "},"Ḁ":{"x_min":24.859375,"x_max":810.140625,"ha":836,"o":"m 566 -190 q 523 -296 566 -253 q 417 -340 480 -340 q 311 -296 354 -340 q 269 -190 269 -253 q 311 -85 269 -128 q 417 -42 354 -42 q 523 -85 480 -42 q 566 -190 566 -128 m 500 -190 q 475 -132 500 -156 q 417 -108 451 -108 q 358 -131 382 -108 q 335 -190 335 -155 q 358 -250 335 -226 q 417 -274 382 -274 q 475 -249 451 -274 q 500 -190 500 -225 m 417 892 l 273 374 l 561 374 l 417 892 m 334 1012 l 500 1012 l 810 1 l 668 1 l 593 264 l 239 264 l 166 1 l 24 1 l 334 1012 "},"◜":{"x_min":211,"x_max":625,"ha":836,"o":"m 211 361 q 418 718 211 599 q 625 778 521 778 l 625 695 q 459 646 542 695 q 294 361 294 552 l 211 361 "},"◎":{"x_min":4,"x_max":832,"ha":836,"o":"m 372 439 q 327 361 327 413 q 372 282 327 308 q 417 269 395 269 q 463 282 440 269 q 509 361 509 308 q 463 439 509 413 q 417 453 440 453 q 372 439 395 453 m 334 217 q 252 361 252 265 q 334 504 252 456 q 417 528 376 528 q 500 504 459 528 q 584 361 584 456 q 500 217 584 265 q 417 194 459 194 q 334 217 376 194 m 252 647 q 87 360 87 552 q 252 74 87 169 q 417 26 335 26 q 583 74 500 26 q 749 360 749 170 q 583 647 749 551 q 417 695 500 695 q 252 647 335 695 m 210 2 q 4 360 4 121 q 210 718 4 599 q 417 778 313 778 q 624 718 520 778 q 832 360 832 599 q 624 2 832 121 q 417 -57 520 -57 q 210 2 313 -57 "},"Ĵ":{"x_min":73.578125,"x_max":657.5,"ha":836,"o":"m 386 1288 l 514 1288 l 657 1109 l 562 1109 l 449 1229 l 338 1109 l 243 1109 l 386 1288 m 73 40 l 73 200 q 201 118 135 145 q 337 91 266 91 q 472 141 434 91 q 511 329 511 192 l 511 897 l 252 897 l 252 1012 l 648 1012 l 648 329 q 576 59 648 138 q 337 -20 504 -20 q 207 -5 272 -20 q 73 40 143 9 "},"❲":{"x_min":310,"x_max":525.921875,"ha":836,"o":"m 393 0 l 525 -132 l 466 -191 l 310 -34 l 310 791 l 466 948 l 525 889 l 393 756 l 393 0 "},"Ҕ":{"x_min":146,"x_max":773,"ha":836,"o":"m 284 483 l 284 0 l 146 0 l 146 1013 l 772 1013 l 772 898 l 284 898 l 284 598 l 494 598 q 697 517 620 598 q 773 278 773 439 l 773 70 q 702 -195 773 -111 q 478 -278 633 -278 l 427 -278 l 427 -163 l 469 -163 q 597 -112 559 -163 q 635 70 635 -61 l 635 267 q 592 429 635 375 q 466 483 550 483 l 284 483 "},"✮":{"x_min":42.046875,"x_max":794.140625,"ha":836,"o":"m 417 396 l 436 341 l 493 341 l 446 307 l 464 252 l 417 286 l 371 252 l 389 307 l 343 341 l 400 341 l 417 396 m 417 712 l 506 439 l 794 439 l 562 269 l 651 -3 l 417 165 l 185 -3 l 273 269 l 42 439 l 329 439 l 417 712 m 417 555 l 364 391 l 191 391 l 331 288 l 277 123 l 417 225 l 558 123 l 504 288 l 644 391 l 471 391 l 417 555 "},"٦":{"x_min":103.953125,"x_max":731.21875,"ha":836,"o":"m 620 881 q 645 444 620 683 q 731 0 664 256 l 598 0 q 519 444 540 219 q 500 744 500 646 q 337 726 434 726 q 103 759 217 726 l 103 881 q 337 848 226 848 q 620 881 480 848 "},"г":{"x_min":174,"x_max":684.1875,"ha":836,"o":"m 299 658 l 299 0 l 174 0 l 174 760 l 684 760 l 684 658 l 299 658 "},"⌏":{"x_min":9,"x_max":450,"ha":836,"o":"m 9 566 l 311 566 l 311 489 l 9 489 l 9 566 m 373 954 l 450 954 l 450 628 l 373 628 l 373 954 "},"Ŀ":{"x_min":146,"x_max":772.96875,"ha":836,"o":"m 570 677 l 741 677 l 741 470 l 570 470 l 570 677 m 146 1012 l 284 1012 l 284 115 l 772 115 l 772 0 l 146 0 l 146 1012 "},"ﺀ":{"x_min":294,"x_max":725,"ha":836,"o":"m 294 57 l 294 177 q 382 198 326 181 q 463 234 428 211 q 332 302 367 250 q 297 412 297 355 q 311 507 297 456 q 401 630 331 587 q 535 672 468 672 q 671 657 609 672 l 671 531 q 555 551 602 551 q 487 532 520 551 q 422 424 422 500 q 558 312 422 346 q 636 312 597 302 q 725 349 685 325 l 725 224 q 524 129 663 183 q 294 57 367 68 "},"ᾙ":{"x_min":-121,"x_max":744,"ha":836,"o":"m 93 1013 l 231 1013 l 231 597 l 606 597 l 606 1013 l 744 1013 l 744 0 l 606 0 l 606 482 l 231 482 l 231 0 l 93 0 l 93 1013 m -121 1000 l -121 1119 l 41 1119 l 41 1000 l -55 1000 q 41 894 -55 894 l 41 826 q -121 1000 -121 826 m 517 -289 l 427 -289 q 368 -164 368 -289 l 368 -62 l 469 -62 l 469 -173 q 503 -244 469 -244 l 517 -244 l 517 -289 "},"ئ":{"x_min":17,"x_max":836.515625,"ha":836,"o":"m 776 8 q 534 -156 686 -123 q 351 -182 414 -182 q 215 -164 264 -182 q 17 83 17 -93 q 59 239 17 162 l 184 239 q 140 82 140 150 q 251 -47 140 -16 q 359 -61 302 -61 q 514 -37 441 -61 q 631 39 587 -13 q 672 110 672 87 q 653 170 672 141 q 540 244 630 205 q 475 363 475 274 q 538 506 475 464 q 656 540 591 540 q 790 490 753 540 q 836 353 824 445 l 711 353 q 698 411 711 394 q 653 431 679 434 q 623 416 639 430 q 600 357 600 396 q 685 300 600 329 q 784 208 746 278 q 806 105 806 169 q 776 8 806 53 m 205 525 l 258 537 q 218 575 228 551 q 207 631 207 601 q 243 725 207 695 q 346 757 282 757 q 424 734 388 757 l 424 666 q 346 689 389 689 q 290 676 302 689 q 271 637 271 654 q 334 566 271 584 q 438 579 357 559 l 438 510 l 205 458 l 205 525 "},"𝚙":{"x_min":129,"x_max":752,"ha":836,"o":"m 254 95 l 254 -289 l 129 -289 l 129 760 l 254 760 l 254 662 q 337 748 285 719 q 457 778 389 778 q 673 671 595 778 q 752 376 752 564 q 673 85 752 191 q 457 -19 594 -19 q 335 9 387 -19 q 254 95 283 39 m 621 379 q 575 598 621 524 q 438 672 529 672 q 300 597 347 672 q 254 379 254 523 q 300 160 254 235 q 438 86 347 86 q 575 159 529 86 q 621 379 621 233 "},"ʟ":{"x_min":166,"x_max":669.890625,"ha":836,"o":"m 166 777 l 303 777 l 303 115 l 669 115 l 669 0 l 166 0 l 166 777 "},"Ǟ":{"x_min":25.109375,"x_max":811.5625,"ha":836,"o":"m 216 1185 l 354 1185 l 354 1047 l 216 1047 l 216 1185 m 482 1185 l 619 1185 l 619 1047 l 482 1047 l 482 1185 m 215 1324 l 621 1324 l 621 1224 l 215 1224 l 215 1324 m 417 892 l 273 374 l 562 374 l 417 892 m 334 1012 l 500 1012 l 811 0 l 669 0 l 594 264 l 239 264 l 166 0 l 25 0 l 334 1012 "},"⋧":{"x_min":58,"x_max":775,"ha":836,"o":"m 58 296 l 601 455 l 58 612 l 58 737 l 775 512 l 775 398 l 470 303 l 517 292 l 475 105 q 584 83 534 83 q 678 103 631 83 q 775 166 724 123 l 775 46 q 675 -11 724 7 q 573 -30 627 -30 q 450 -2 518 -30 l 408 -186 l 316 -165 l 361 34 q 326 44 342 41 q 256 53 291 53 q 155 33 203 53 q 58 -30 107 13 l 58 88 q 160 147 110 128 q 266 166 209 166 q 336 158 305 166 q 386 143 366 151 l 418 286 l 58 173 l 58 296 "},"Җ":{"x_min":10.484375,"x_max":826,"ha":836,"o":"m 10 0 l 216 604 l 22 1013 l 162 1013 l 355 609 l 355 1013 l 482 1013 l 482 609 l 674 1013 l 814 1013 l 620 604 l 786 116 l 826 116 l 826 -218 l 711 -218 l 711 0 l 692 0 l 542 441 l 482 315 l 482 0 l 355 0 l 355 315 l 294 441 l 144 0 l 10 0 "},"❍":{"x_min":24,"x_max":811,"ha":836,"o":"m 64 361 q 160 128 64 225 q 393 32 256 32 q 626 128 530 32 q 723 361 723 225 q 678 527 723 448 q 555 649 634 606 q 393 692 476 692 q 231 649 310 692 q 108 527 152 606 q 64 361 64 448 m 417 -7 q 392 -7 405 -7 q 132 100 240 -7 q 24 361 24 208 q 73 546 24 457 q 212 683 123 635 q 392 731 301 731 q 417 731 405 731 q 440 731 429 731 q 623 683 534 731 q 761 547 712 635 q 811 361 811 458 q 702 100 811 208 q 440 -7 594 -7 q 417 -7 429 -7 "},"€":{"x_min":25.453125,"x_max":720,"ha":836,"o":"m 143 643 q 268 932 176 834 q 513 1031 361 1031 q 619 1017 570 1031 q 720 975 669 1003 l 720 834 q 621 898 675 875 q 514 922 567 922 q 356 851 415 922 q 281 643 297 781 l 607 643 l 574 570 l 274 570 q 273 541 273 556 q 273 494 273 525 q 273 471 273 484 q 273 443 273 458 l 518 443 l 485 368 l 281 368 q 355 159 296 230 q 514 89 414 89 q 621 111 568 89 q 720 176 674 134 l 720 35 q 620 -6 671 7 q 513 -20 570 -20 q 266 77 359 -20 q 143 368 173 175 l 25 368 l 58 443 l 138 443 q 136 464 136 451 q 136 505 136 495 q 136 549 136 517 q 138 570 136 562 l 25 570 l 58 643 l 143 643 "},"ﮑ":{"x_min":-13,"x_max":851,"ha":836,"o":"m 280 0 l -13 0 l -13 125 l 266 125 q 398 195 366 125 q 409 244 409 219 q 372 335 409 291 l 161 593 q 128 690 128 635 q 134 736 128 710 q 225 845 155 816 l 732 1055 l 732 929 l 327 759 q 265 712 280 739 q 261 687 261 704 q 282 641 261 666 l 677 162 q 718 135 692 145 q 791 125 748 125 l 851 125 l 851 0 l 761 0 q 677 16 716 0 q 585 73 608 45 l 520 154 q 494 105 505 123 q 280 0 429 0 "},"Ἀ":{"x_min":24.78125,"x_max":810.640625,"ha":836,"o":"m 417 891 l 272 374 l 561 374 l 417 891 m 334 1012 l 500 1012 l 810 0 l 668 0 l 594 264 l 239 264 l 166 0 l 24 0 l 334 1012 m 262 1000 q 98 826 262 826 l 98 894 q 195 1000 195 894 l 98 1000 l 98 1119 l 262 1119 l 262 1000 "},"С":{"x_min":94,"x_max":727,"ha":836,"o":"m 727 35 q 619 -6 674 7 q 503 -20 565 -20 q 201 117 308 -20 q 94 505 94 255 q 202 892 94 753 q 503 1031 310 1031 q 619 1017 565 1031 q 727 975 674 1003 l 727 835 q 619 898 676 876 q 503 920 561 920 q 303 816 369 920 q 237 505 237 713 q 303 194 237 297 q 503 91 369 91 q 620 112 563 91 q 727 175 677 134 l 727 35 "},"└":{"x_min":363,"x_max":849.75,"ha":836,"o":"m 363 336 l 363 1351 l 472 1351 l 472 453 l 849 453 l 849 336 l 363 336 "},"◓":{"x_min":4,"x_max":832,"ha":836,"o":"m 87 361 q 252 74 87 169 q 417 26 335 26 q 582 74 500 26 q 749 361 749 170 l 87 361 m 210 2 q 4 361 4 122 q 210 719 4 599 q 417 779 313 779 q 624 719 520 779 q 832 361 832 599 q 624 2 832 122 q 417 -57 520 -57 q 210 2 313 -57 "},"Ӓ":{"x_min":24.75,"x_max":810.921875,"ha":836,"o":"m 417 892 l 273 374 l 562 374 l 417 892 m 334 1012 l 500 1012 l 810 0 l 669 0 l 594 264 l 239 264 l 166 0 l 24 0 l 334 1012 m 216 1269 l 354 1269 l 354 1131 l 216 1131 l 216 1269 m 482 1269 l 619 1269 l 619 1131 l 482 1131 l 482 1269 "},"◭":{"x_min":4.3125,"x_max":832.359375,"ha":836,"o":"m 418 24 l 716 24 l 418 619 l 418 24 m 4 -53 l 418 774 l 832 -53 l 4 -53 "},"ᵄ":{"x_min":220,"x_max":616,"ha":836,"o":"m 372 664 l 398 664 q 502 685 467 664 q 537 749 537 706 q 510 808 537 787 q 438 830 484 830 q 336 790 373 830 q 299 679 299 750 l 299 664 l 372 664 m 220 634 l 220 877 l 299 877 l 299 814 q 362 870 324 852 q 455 888 400 888 q 572 851 529 888 q 616 753 616 814 q 562 645 616 682 q 404 609 508 609 l 299 609 l 299 598 q 327 524 299 547 q 419 501 356 501 q 500 511 459 501 q 581 541 541 521 l 581 471 q 496 449 536 456 q 419 442 456 442 q 317 457 359 442 q 249 504 275 473 q 226 551 233 523 q 220 634 220 578 "},"Ὕ":{"x_min":-473,"x_max":811.84375,"ha":836,"o":"m 25 1013 l 171 1013 l 418 565 l 664 1013 l 811 1013 l 487 454 l 487 0 l 349 0 l 349 454 l 25 1013 m -473 1000 l -473 1119 l -310 1119 l -310 1000 l -407 1000 q -310 894 -407 894 l -310 826 q -473 1000 -473 826 m -80 1111 l 54 1111 l -166 856 l -270 856 l -80 1111 "},"♣":{"x_min":34,"x_max":801.96875,"ha":836,"o":"m 418 921 q 594 795 538 921 q 602 735 602 766 q 536 580 602 670 l 503 547 l 504 547 q 592 563 545 563 l 603 563 q 789 450 735 563 q 801 379 801 413 q 685 207 801 265 q 623 197 663 200 q 432 350 489 197 l 431 350 l 431 344 q 477 93 431 153 l 477 90 l 360 90 l 357 93 q 405 350 405 164 l 405 352 l 403 352 q 210 197 347 197 q 47 309 104 197 q 34 379 34 347 q 170 556 34 509 q 235 563 207 563 l 241 563 q 331 547 288 563 l 334 547 l 334 548 q 271 626 287 588 q 238 733 238 688 l 238 741 q 357 911 238 853 q 418 921 397 921 "},"ᴹ":{"x_min":192,"x_max":644,"ha":836,"o":"m 192 1020 l 306 1020 l 417 730 l 529 1020 l 644 1020 l 644 453 l 565 453 l 565 954 l 450 655 l 385 655 l 271 954 l 271 453 l 192 453 l 192 1020 "},"¶":{"x_min":72.15625,"x_max":699,"ha":836,"o":"m 395 1012 l 699 1012 l 699 -133 l 603 -133 l 603 929 l 474 929 l 474 -133 l 378 -133 l 378 445 q 152 521 232 445 q 72 722 72 596 q 160 932 72 853 q 395 1012 249 1012 "},"ﻔ":{"x_min":-13,"x_max":850,"ha":836,"o":"m 371 780 l 473 780 l 473 678 l 371 678 l 371 780 m 483 516 q 624 360 607 462 q 630 298 630 326 q 615 215 630 248 q 571 136 595 170 q 697 125 597 125 l 850 125 l 850 0 l 636 0 q 418 38 544 0 q 201 0 293 0 l -13 0 l -13 125 l 140 125 q 266 136 239 125 q 221 215 246 163 q 208 298 208 246 q 213 360 208 328 q 354 516 229 457 q 418 526 374 526 q 483 516 461 526 m 441 394 q 418 401 428 401 q 396 394 409 401 q 342 336 358 372 q 336 302 336 322 q 352 237 336 273 q 418 177 372 191 q 486 237 461 191 q 502 302 502 271 q 495 336 502 319 q 441 394 479 371 "},"☁":{"x_min":35,"x_max":802,"ha":836,"o":"m 521 314 l 530 314 q 670 217 621 314 l 678 181 q 717 196 694 196 q 774 139 774 185 q 759 97 774 119 q 802 58 802 88 l 802 47 q 761 5 794 5 l 35 5 l 35 9 q 114 81 58 9 q 156 97 134 97 l 169 97 l 165 118 q 231 184 165 163 l 247 184 l 265 184 l 263 188 q 347 287 263 250 l 375 291 q 415 272 396 291 q 521 314 465 314 "},"Ụ":{"x_min":100,"x_max":736,"ha":836,"o":"m 348 -142 l 487 -142 l 487 -280 l 348 -280 l 348 -142 m 100 389 l 100 1013 l 238 1013 l 238 326 q 242 221 238 252 q 256 172 246 189 q 318 112 277 132 q 418 92 359 92 q 517 112 476 92 q 580 172 558 132 q 594 220 590 189 q 599 325 599 252 l 599 1013 l 736 1013 l 736 389 q 716 168 736 233 q 649 60 697 103 q 547 0 605 20 q 418 -19 489 -19 q 289 0 346 -19 q 186 60 231 20 q 119 169 139 102 q 100 389 100 235 "},"­":{"x_min":241,"x_max":594,"ha":836,"o":"m 241 436 l 594 436 l 594 325 l 241 325 l 241 436 "},"خ":{"x_min":60,"x_max":812,"ha":836,"o":"m 311 814 l 413 814 l 413 712 l 311 712 l 311 814 m 60 547 q 379 590 247 590 q 710 553 577 590 l 710 453 q 365 331 511 453 q 213 38 213 205 q 263 -117 213 -53 q 537 -227 350 -227 q 812 -146 668 -227 l 812 -271 q 540 -340 710 -340 q 178 -207 293 -340 q 90 46 90 -104 q 234 372 90 221 q 392 477 299 441 q 215 462 323 477 q 60 422 123 450 l 60 547 "},"ḳ":{"x_min":160,"x_max":815.328125,"ha":836,"o":"m 382 -142 l 521 -142 l 521 -280 l 382 -280 l 382 -142 m 160 1055 l 289 1055 l 289 444 l 616 760 l 768 760 l 469 473 l 815 0 l 662 0 l 382 392 l 289 304 l 289 0 l 160 0 l 160 1055 "},"Ѝ":{"x_min":94,"x_max":742,"ha":836,"o":"m 380 1288 l 514 1109 l 409 1109 l 255 1288 l 380 1288 m 94 0 l 94 1013 l 226 1013 l 226 179 l 568 1013 l 742 1013 l 742 0 l 609 0 l 609 833 l 267 0 l 94 0 "},"̯":{"x_min":209,"x_max":627,"ha":836,"o":"m 627 -329 l 550 -329 q 510 -252 542 -277 q 418 -227 477 -227 q 328 -252 361 -227 q 286 -329 295 -277 l 209 -329 q 263 -182 209 -231 q 418 -134 318 -134 q 572 -182 517 -134 q 627 -329 627 -231 "},"❦":{"x_min":44,"x_max":792,"ha":836,"o":"m 481 616 q 487 666 487 642 q 470 724 487 702 q 428 742 458 742 q 399 731 412 742 q 389 708 389 723 q 412 658 389 677 q 481 616 453 627 m 514 549 q 477 465 502 508 q 576 501 529 501 q 677 457 645 501 q 702 371 702 423 q 531 186 702 251 q 448 111 448 154 q 505 57 448 57 q 578 80 569 57 q 636 153 606 153 q 671 103 671 153 q 497 18 671 18 q 282 102 384 18 q 173 332 173 192 q 316 529 173 529 q 418 451 373 529 q 469 571 460 534 q 286 692 414 597 q 208 720 248 720 q 127 677 162 720 q 105 619 105 649 q 116 588 105 598 q 128 561 128 577 q 113 538 128 548 q 83 523 94 523 q 52 547 65 523 q 44 602 44 561 q 107 717 44 666 q 223 759 159 759 q 308 738 281 759 l 350 707 q 372 769 350 752 q 438 787 396 787 q 508 753 481 787 q 536 669 536 716 q 527 592 536 625 q 607 583 560 583 q 671 601 648 583 q 697 638 697 621 q 685 683 697 672 q 662 714 662 702 q 674 760 662 744 q 722 782 691 782 q 780 743 757 782 q 792 696 792 725 q 713 576 792 629 q 594 542 660 542 q 514 549 558 542 "},"✴":{"x_min":24.421875,"x_max":811.765625,"ha":836,"o":"m 417 777 l 458 480 l 696 662 l 515 423 l 811 383 l 515 343 l 696 104 l 458 286 l 417 -10 l 377 286 l 139 104 l 320 343 l 24 383 l 320 423 l 139 662 l 377 480 l 417 777 "},"ᶹ":{"x_min":221,"x_max":615,"ha":836,"o":"m 381 827 l 519 827 l 519 827 q 591 747 568 789 q 615 653 615 704 q 554 508 615 564 q 398 453 493 453 l 367 453 q 255 489 290 453 q 221 606 221 526 l 221 878 l 300 878 l 300 606 q 316 530 300 549 q 377 512 333 512 l 398 512 q 497 549 460 512 q 535 646 535 586 q 504 743 535 701 q 434 806 473 785 q 381 827 401 822 "},"♌":{"x_min":41,"x_max":794.1875,"ha":836,"o":"m 176 236 q 264 234 219 217 q 328 296 309 252 q 330 385 347 341 q 269 448 313 429 q 180 450 225 468 q 116 389 135 433 q 115 301 97 345 q 176 236 132 256 m 272 674 q 338 830 272 770 q 511 891 404 891 q 678 825 613 891 q 744 654 744 759 q 658 392 744 542 q 572 135 572 243 q 652 61 572 61 q 754 113 695 61 l 794 70 q 652 -1 718 -1 q 550 34 593 -1 q 508 137 508 70 q 593 399 508 256 q 678 658 678 542 q 629 787 678 738 q 502 837 580 837 q 381 790 426 837 q 337 667 337 744 q 350 588 337 631 q 379 508 364 545 q 406 384 406 449 q 387 271 406 319 q 288 175 357 202 q 150 177 218 148 q 54 278 82 207 q 41 344 41 311 q 57 415 41 380 q 157 511 87 483 q 312 499 236 541 q 299 565 326 499 q 272 674 272 631 "},"⊋":{"x_min":60,"x_max":777,"ha":836,"o":"m 777 115 l 777 0 l 445 0 l 332 -141 l 243 -69 l 298 0 l 60 0 l 60 115 l 390 115 l 474 220 q 452 220 464 220 l 60 220 l 60 322 l 453 322 q 610 386 544 322 q 675 544 675 450 q 610 701 675 636 q 453 766 546 766 l 60 766 l 60 868 l 453 868 q 682 773 589 868 q 777 544 777 678 q 682 314 777 409 q 536 230 619 250 l 593 183 l 538 115 l 777 115 "},"Ƨ":{"x_min":94,"x_max":744,"ha":836,"o":"m 151 978 q 287 1017 223 1004 q 410 1031 351 1031 q 652 949 561 1031 q 744 731 744 867 q 680 558 744 623 q 475 462 616 494 l 402 445 q 264 383 304 423 q 225 267 225 343 q 282 137 225 184 q 443 91 340 91 q 583 114 514 91 q 731 186 653 137 l 731 40 q 587 -4 659 10 q 444 -20 515 -20 q 183 56 273 -20 q 94 276 94 132 q 159 470 94 399 q 366 575 224 541 l 438 591 q 576 650 539 615 q 613 752 613 685 q 556 874 613 829 q 403 920 500 920 q 277 899 340 920 q 151 839 214 879 l 151 978 "},"⚋":{"x_min":56,"x_max":781,"ha":836,"o":"m 56 102 l 351 102 l 351 5 l 56 5 l 56 102 m 486 102 l 781 102 l 781 5 l 486 5 l 486 102 "},"У":{"x_min":70.75,"x_max":782.140625,"ha":836,"o":"m 502 288 q 415 106 462 181 q 334 26 386 55 q 225 0 287 0 l 125 0 l 125 117 l 198 117 q 285 148 253 117 q 338 232 315 180 q 358 282 348 254 l 70 1013 l 217 1013 l 428 450 l 637 1013 l 782 1013 l 502 288 "},"ᾢ":{"x_min":47,"x_max":789,"ha":836,"o":"m 700 759 q 789 384 789 580 q 755 105 789 189 q 577 -19 704 -19 q 476 15 520 -19 q 417 101 432 50 q 360 16 404 52 q 257 -19 317 -19 q 80 105 131 -19 q 47 384 47 189 q 136 759 47 580 l 265 759 q 179 378 179 573 q 191 183 179 225 q 262 86 218 86 q 343 162 320 86 q 360 474 360 218 l 475 474 q 492 162 475 218 q 573 86 515 86 q 645 183 617 86 q 656 378 656 225 q 571 759 656 573 l 700 759 m 330 1000 q 166 826 330 826 l 166 894 q 263 1000 263 894 l 166 1000 l 166 1119 l 330 1119 l 330 1000 m 492 1111 l 683 856 l 578 856 l 358 1111 l 492 1111 m 516 -289 l 426 -289 q 367 -164 367 -289 l 367 -62 l 468 -62 l 468 -173 q 502 -244 468 -244 l 516 -244 l 516 -289 "},"ү":{"x_min":62.75,"x_max":773.25,"ha":836,"o":"m 62 760 l 195 760 l 418 165 l 641 760 l 773 760 l 483 12 l 483 -289 l 353 -289 l 353 12 l 62 760 "},"Ί":{"x_min":-152.90625,"x_max":698,"ha":836,"o":"m 136 1013 l 698 1013 l 698 898 l 486 898 l 486 115 l 698 115 l 698 0 l 136 0 l 136 115 l 348 115 l 348 898 l 136 898 l 136 1013 m 37 1111 l 171 1111 l -48 856 l -152 856 l 37 1111 "},"⇑":{"x_min":193.0625,"x_max":643.9375,"ha":836,"o":"m 363 597 l 363 0 l 307 0 l 307 541 l 254 488 l 193 549 l 391 747 l 446 747 l 643 549 l 582 488 l 530 541 l 530 0 l 474 0 l 474 597 l 418 652 l 363 597 "},"┅":{"x_min":-13,"x_max":850,"ha":836,"o":"m 641 278 l 641 511 l 850 511 l 850 278 l 641 278 m 318 278 l 318 511 l 519 511 l 519 278 l 318 278 m -13 278 l -13 511 l 196 511 l 196 278 l -13 278 "},"⅓":{"x_min":18.765625,"x_max":763,"ha":836,"o":"m 632 123 q 729 73 696 109 q 763 -17 763 36 q 698 -147 763 -102 q 514 -193 634 -193 q 436 -185 474 -193 q 357 -165 397 -178 l 357 -83 q 443 -110 404 -101 q 511 -119 481 -119 q 620 -91 580 -119 q 660 -17 660 -64 q 622 58 660 32 q 511 84 585 84 l 467 84 l 467 157 l 517 157 q 613 178 580 157 q 647 240 647 199 q 614 299 647 278 q 522 321 581 321 q 454 312 492 321 q 377 289 416 304 l 377 371 q 463 388 423 382 q 536 395 503 395 q 692 355 635 395 q 749 247 749 315 q 719 168 749 199 q 632 123 689 136 m 35 342 l 18 415 l 737 593 l 755 519 l 35 342 m 71 634 l 210 634 l 210 1048 l 58 1020 l 58 1099 l 214 1125 l 308 1125 l 308 634 l 446 634 l 446 559 l 71 559 l 71 634 "},"Ģ":{"x_min":69,"x_max":749,"ha":836,"o":"m 427 -155 l 589 -155 l 462 -389 l 363 -389 l 427 -155 m 749 82 q 625 6 694 32 q 476 -20 556 -20 q 176 118 283 -20 q 69 505 69 256 q 177 892 69 753 q 479 1031 286 1031 q 601 1013 543 1031 q 714 958 659 995 l 714 818 q 601 895 659 870 q 479 920 543 920 q 278 816 345 920 q 212 505 212 712 q 276 192 212 294 q 476 91 341 91 q 555 101 521 91 q 618 134 590 112 l 618 406 l 470 406 l 470 519 l 749 519 l 749 82 "},"ᾇ":{"x_min":47,"x_max":794,"ha":836,"o":"m 518 353 l 489 510 q 338 671 458 671 q 231 595 272 671 q 179 378 179 502 q 228 158 179 229 q 338 86 280 86 q 477 230 428 86 l 518 353 m 338 778 q 589 561 549 778 l 656 759 l 767 759 l 628 348 l 655 199 q 685 138 661 166 q 734 105 713 105 l 794 105 l 794 0 l 719 0 q 599 56 656 0 q 560 145 571 85 q 466 11 528 71 q 338 -17 435 -17 q 127 86 204 -17 q 47 380 47 192 q 132 675 47 583 q 338 778 229 778 m 336 1000 l 336 1119 l 498 1119 l 498 1000 l 402 1000 q 498 894 402 894 l 498 826 q 336 1000 336 826 m 414 1207 l 375 1244 q 350 1264 361 1258 q 329 1271 339 1271 q 291 1245 303 1271 q 279 1165 279 1220 l 194 1165 q 228 1306 194 1256 q 325 1357 263 1357 q 373 1347 351 1357 q 420 1315 395 1338 l 459 1278 q 484 1258 473 1264 q 504 1252 495 1252 q 543 1277 531 1252 q 556 1357 556 1302 l 641 1357 q 606 1216 641 1266 q 509 1166 571 1166 q 461 1175 482 1166 q 414 1207 439 1184 m 448 -289 l 358 -289 q 299 -164 299 -289 l 299 -62 l 400 -62 l 400 -173 q 434 -244 400 -244 l 448 -244 l 448 -289 "},"⍚":{"x_min":4,"x_max":832,"ha":836,"o":"m 832 -138 l 4 -138 l 4 -61 l 832 -61 l 832 -138 m 132 496 l 417 210 l 703 496 l 417 782 l 132 496 m 4 496 l 417 910 l 832 496 l 417 82 l 4 496 "},"؟":{"x_min":148,"x_max":688.828125,"ha":836,"o":"m 523 172 l 523 0 l 385 0 l 385 172 l 523 172 m 389 272 l 389 355 q 386 411 389 390 q 380 445 384 431 q 362 480 375 462 q 317 530 349 498 l 258 589 q 172 693 196 647 q 148 791 148 740 q 223 965 148 899 q 424 1031 299 1031 q 559 1012 494 1031 q 688 954 625 993 l 688 827 q 562 896 622 872 q 448 920 501 920 q 330 882 374 920 q 286 785 286 845 q 303 719 286 751 q 358 652 320 688 l 419 591 q 499 489 480 533 q 519 376 519 445 l 519 272 l 389 272 "},"⁵":{"x_min":216,"x_max":605,"ha":836,"o":"m 242 1019 l 560 1019 l 560 955 l 320 955 l 320 816 q 356 825 337 822 q 393 828 374 828 q 548 775 491 828 q 605 635 605 724 q 545 494 605 545 q 381 443 485 443 q 289 449 331 443 q 216 467 248 455 l 216 544 q 293 516 250 526 q 373 507 332 507 q 481 540 443 507 q 520 635 520 573 q 480 730 520 696 q 371 764 441 764 q 304 757 336 764 q 242 736 271 749 l 242 1019 "},"ớ":{"x_min":22,"x_max":815,"ha":836,"o":"m 441 1110 l 576 1110 l 355 856 l 251 856 l 441 1110 m 547 591 l 547 672 q 618 626 588 641 q 669 612 648 612 q 716 630 700 612 q 732 685 732 649 q 726 728 732 707 q 711 770 721 749 l 801 770 q 811 721 808 744 q 815 678 815 698 q 785 556 815 595 q 693 518 756 518 q 625 535 660 518 q 547 591 589 553 m 346 672 q 203 598 251 672 q 154 378 154 524 q 203 160 154 234 q 346 85 251 85 q 491 160 442 85 q 540 378 540 234 q 491 598 540 524 q 346 672 442 672 m 346 777 q 588 675 504 777 q 672 378 672 572 q 588 82 672 184 q 346 -20 505 -20 q 105 82 188 -20 q 22 378 22 184 q 105 675 22 572 q 346 777 188 777 "},"ჶ":{"x_min":37,"x_max":799,"ha":836,"o":"m 799 275 q 590 0 799 0 q 487 78 504 0 l 473 78 l 473 -24 q 243 -288 473 -288 l 243 -192 q 364 -34 364 -192 l 364 491 q 311 612 364 612 l 244 612 q 166 484 166 612 l 166 267 q 252 121 166 121 l 252 21 q 37 276 37 21 l 37 439 q 243 709 37 709 q 413 610 367 709 l 424 610 q 590 709 466 709 q 799 441 799 709 l 799 275 m 671 211 l 671 494 q 578 613 671 613 l 526 613 q 477 499 477 613 l 477 241 q 590 98 477 98 q 671 211 671 98 "},"ٿ":{"x_min":47,"x_max":814,"ha":836,"o":"m 454 542 l 556 542 l 556 440 l 454 440 l 454 542 m 454 712 l 556 712 l 556 610 l 454 610 l 454 712 m 285 542 l 387 542 l 387 440 l 285 440 l 285 542 m 285 712 l 387 712 l 387 610 l 285 610 l 285 712 m 796 365 q 814 227 814 316 q 701 61 814 143 q 409 -14 598 -14 q 153 24 257 -14 q 47 217 47 64 q 74 343 47 259 l 199 343 q 170 216 170 249 q 249 122 170 143 q 405 106 316 106 q 605 150 533 106 q 689 273 689 201 q 671 365 689 317 l 796 365 "},"á":{"x_min":90,"x_max":718,"ha":836,"o":"m 475 381 l 434 381 q 270 342 325 381 q 215 228 215 304 q 256 121 215 159 q 370 84 297 84 q 533 155 474 84 q 592 353 592 227 l 592 381 l 475 381 m 718 432 l 718 0 l 592 0 l 592 111 q 491 11 552 43 q 344 -20 431 -20 q 159 45 228 -20 q 90 220 90 110 q 175 413 90 347 q 425 479 260 479 l 592 479 l 592 498 q 546 630 592 589 q 401 672 501 672 q 272 653 337 672 q 146 599 207 635 l 146 724 q 278 764 215 751 q 401 777 341 777 q 562 750 495 777 q 670 666 629 722 q 707 582 696 632 q 718 432 718 532 m 512 1110 l 646 1110 l 426 856 l 322 856 l 512 1110 "},"ﯼ":{"x_min":17,"x_max":836.515625,"ha":836,"o":"m 776 8 q 534 -156 686 -123 q 351 -182 414 -182 q 215 -164 264 -182 q 17 83 17 -93 q 59 239 17 162 l 184 239 q 140 82 140 150 q 251 -47 140 -16 q 359 -61 302 -61 q 514 -37 441 -61 q 631 39 587 -13 q 672 110 672 87 q 653 170 672 141 q 540 244 630 205 q 475 363 475 274 q 538 506 475 464 q 656 540 591 540 q 790 490 753 540 q 836 353 824 445 l 711 353 q 698 411 711 394 q 653 431 679 434 q 623 416 639 430 q 600 357 600 396 q 685 300 600 329 q 784 208 746 278 q 806 105 806 169 q 776 8 806 53 "},"♛":{"x_min":37,"x_max":800,"ha":836,"o":"m 95 565 q 37 617 43 565 q 45 647 37 633 q 67 669 53 662 q 97 677 82 677 q 127 669 113 677 q 150 647 142 662 q 158 617 158 633 q 125 570 158 582 l 242 291 l 242 679 q 173 729 183 679 q 180 759 173 745 q 203 780 188 773 q 235 788 218 788 q 265 780 250 788 q 287 759 279 773 q 295 729 295 745 q 269 686 295 705 l 385 274 l 385 726 q 360 769 360 742 q 368 798 360 784 q 390 820 376 813 q 419 827 405 827 q 450 820 435 827 q 472 798 464 813 q 481 769 481 784 q 453 726 481 739 l 453 273 l 565 681 q 541 729 541 706 q 548 758 541 744 q 571 780 556 773 q 601 788 586 788 q 633 780 618 788 q 655 758 647 773 q 664 729 664 744 q 609 674 657 683 l 559 291 l 700 575 q 677 617 677 593 q 685 647 677 633 q 707 669 693 662 q 738 677 722 677 q 769 669 754 677 q 791 647 783 662 q 800 617 800 633 q 738 566 792 566 l 650 311 l 650 3 l 175 3 l 175 311 l 95 565 m 618 199 l 618 242 l 218 242 l 218 199 l 618 199 m 618 35 l 618 78 l 218 78 l 218 35 l 618 35 "},"⇥":{"x_min":44.5625,"x_max":791,"ha":836,"o":"m 680 408 l 680 605 l 791 605 l 791 155 l 680 155 l 680 352 l 482 155 l 421 216 l 530 325 l 44 325 l 44 436 l 530 436 l 421 544 l 482 605 l 680 408 "},"K":{"x_min":93,"x_max":831.171875,"ha":836,"o":"m 93 1013 l 231 1013 l 231 562 l 658 1013 l 819 1013 l 425 599 l 831 0 l 665 0 l 335 507 l 231 396 l 231 0 l 93 0 l 93 1013 "},"Y":{"x_min":25.515625,"x_max":811.84375,"ha":836,"o":"m 25 1013 l 171 1013 l 418 565 l 664 1013 l 811 1013 l 487 454 l 487 0 l 349 0 l 349 454 l 25 1013 "},"E":{"x_min":134,"x_max":747.75,"ha":836,"o":"m 134 1013 l 734 1013 l 734 898 l 271 898 l 271 597 l 714 597 l 714 482 l 271 482 l 271 115 l 747 115 l 747 0 l 134 0 l 134 1013 "},"Ƥ":{"x_min":38,"x_max":798,"ha":836,"o":"m 798 710 q 586 421 798 474 q 453 407 528 407 l 391 407 l 391 0 l 254 0 l 254 900 q 176 868 217 900 q 144 765 144 842 l 144 732 l 38 732 l 38 779 q 103 958 38 902 q 253 1013 168 1013 l 453 1013 q 785 814 729 1013 q 798 710 798 768 m 453 520 q 640 626 596 520 q 655 710 655 664 q 602 850 655 800 q 453 900 549 900 l 391 900 l 391 520 l 453 520 "},"❄":{"x_min":22.125,"x_max":813.875,"ha":836,"o":"m 347 463 l 207 549 l 93 480 l 58 544 l 136 592 l 22 662 l 57 727 l 172 656 l 172 753 l 243 753 l 243 613 l 383 527 l 383 700 l 269 769 l 304 833 l 383 785 l 383 927 l 453 927 l 453 785 l 531 833 l 566 769 l 453 700 l 453 528 l 593 613 l 593 753 l 664 753 l 664 656 l 778 727 l 813 662 l 699 592 l 777 544 l 742 480 l 628 549 l 488 463 l 628 377 l 742 446 l 777 382 l 699 334 l 813 264 l 778 199 l 664 270 l 664 174 l 593 174 l 593 313 l 453 399 l 453 226 l 566 157 l 531 93 l 453 141 l 453 1 l 383 1 l 383 141 l 304 93 l 269 157 l 383 226 l 383 399 l 243 313 l 243 174 l 172 174 l 172 270 l 57 199 l 22 264 l 136 334 l 58 382 l 93 446 l 207 377 l 347 463 "},"Ï":{"x_min":136,"x_max":698,"ha":836,"o":"m 136 1013 l 698 1013 l 698 898 l 486 898 l 486 115 l 698 115 l 698 0 l 136 0 l 136 115 l 348 115 l 348 898 l 136 898 l 136 1013 m 216 1269 l 354 1269 l 354 1131 l 216 1131 l 216 1269 m 482 1269 l 619 1269 l 619 1131 l 482 1131 l 482 1269 "},"❡":{"x_min":70,"x_max":765.84375,"ha":836,"o":"m 299 250 q 330 243 315 250 q 357 225 345 237 q 375 198 368 214 q 381 166 381 183 q 375 135 381 150 q 357 108 368 119 q 330 90 345 96 q 301 84 315 84 q 275 79 286 84 q 256 66 265 75 q 242 46 246 57 q 238 23 238 35 q 243 0 238 10 q 257 -20 248 -13 q 277 -34 268 -30 q 307 -39 290 -39 q 377 -24 343 -39 q 442 18 417 -5 q 486 83 472 49 q 501 158 501 121 l 501 352 l 331 352 q 135 421 209 352 q 70 584 70 483 q 141 752 70 688 q 331 817 213 817 l 501 817 l 501 927 l 578 954 l 578 817 l 765 817 l 688 749 l 578 749 l 578 164 q 557 60 578 106 q 500 -29 533 5 q 419 -89 463 -68 q 336 -110 376 -110 q 241 -96 278 -110 q 177 -57 202 -82 q 137 1 149 -28 q 124 69 124 33 q 137 138 124 111 q 177 197 151 166 q 235 236 198 220 q 299 250 267 250 m 501 420 l 501 749 l 396 749 l 396 420 l 501 420 "},"☦":{"x_min":83,"x_max":755,"ha":836,"o":"m 345 913 l 345 872 l 482 872 l 482 913 l 345 913 m 358 947 l 358 1017 l 473 1017 l 473 947 l 559 947 l 559 837 l 474 837 l 474 777 l 480 777 l 755 777 l 755 658 l 474 658 l 474 294 l 571 200 l 571 94 l 479 184 l 479 -1 l 358 -1 l 358 300 l 266 390 l 266 496 l 357 407 l 357 658 l 83 658 l 83 778 l 358 778 l 358 837 l 279 837 l 279 947 l 358 947 m 390 393 l 437 393 l 437 693 l 619 693 l 619 742 l 437 742 l 437 809 l 389 809 l 389 742 l 208 742 l 208 693 l 390 693 l 390 393 "},"✿":{"x_min":24,"x_max":811,"ha":836,"o":"m 488 532 q 418 546 455 546 q 347 532 380 546 q 288 492 315 517 q 247 432 260 463 q 234 360 234 399 q 247 290 234 324 q 288 230 260 258 q 347 190 315 205 q 418 177 380 177 q 488 190 455 177 q 547 230 520 205 q 587 290 574 258 q 601 360 601 324 q 587 432 601 399 q 547 492 574 463 q 488 532 520 517 m 551 542 q 603 578 583 570 q 660 591 632 591 q 717 578 688 591 q 766 545 742 568 q 800 496 788 525 q 811 438 811 470 q 800 380 811 407 q 766 331 790 355 q 717 298 747 311 q 660 287 692 287 q 631 289 645 287 q 673 259 656 277 q 707 210 697 235 q 719 152 719 183 q 707 94 719 119 q 674 45 695 65 q 624 11 650 22 q 567 1 598 1 q 509 11 535 1 q 461 45 480 25 q 427 94 435 71 q 417 131 420 112 q 408 94 415 111 q 374 45 395 65 q 325 11 350 22 q 267 1 298 1 q 210 11 235 1 q 161 45 180 25 q 127 94 138 69 q 117 152 117 121 q 127 210 117 184 q 161 259 140 241 q 200 289 181 277 q 175 286 188 286 q 117 297 142 286 q 68 331 87 312 q 34 379 45 354 q 24 437 24 407 q 34 495 24 470 q 68 544 47 524 q 117 577 92 567 q 175 589 144 589 q 231 577 207 589 q 285 541 263 564 q 277 556 281 549 q 267 614 267 583 q 277 673 267 647 q 311 721 290 701 q 360 755 335 744 q 417 766 387 766 q 475 755 450 766 q 524 721 505 742 q 558 672 547 697 q 569 614 569 645 q 558 556 569 582 q 551 542 554 549 "},"ῶ":{"x_min":47,"x_max":789,"ha":836,"o":"m 700 759 q 789 384 789 580 q 755 105 789 188 q 577 -20 704 -20 q 475 14 520 -20 q 417 101 431 49 q 360 16 403 52 q 257 -20 317 -20 q 80 105 131 -20 q 47 384 47 188 q 136 759 47 580 l 264 759 q 179 378 179 572 q 190 182 179 224 q 262 85 218 85 q 343 161 320 85 q 360 474 360 218 l 475 474 q 492 161 475 218 q 574 85 515 85 q 645 182 617 85 q 656 378 656 224 q 571 759 656 572 l 700 759 m 414 929 l 375 966 q 350 986 361 980 q 329 993 338 993 q 291 967 303 993 q 279 887 279 942 l 194 887 q 228 1028 194 978 q 325 1079 263 1079 q 373 1069 351 1079 q 420 1037 395 1060 l 458 1000 q 484 980 472 986 q 504 974 495 974 q 543 999 531 974 q 556 1079 556 1024 l 641 1079 q 606 938 641 988 q 509 888 571 888 q 461 897 482 888 q 414 929 439 906 "},"ứ":{"x_min":26,"x_max":809,"ha":836,"o":"m 406 1110 l 540 1110 l 320 856 l 215 856 l 406 1110 m 541 591 l 541 671 q 612 626 582 641 q 663 612 642 612 q 710 630 694 612 q 726 686 726 649 q 720 728 726 707 q 705 770 715 749 l 795 770 q 805 721 802 744 q 809 678 809 698 q 779 556 809 595 q 686 518 749 518 q 618 535 654 518 q 541 591 583 553 m 26 287 l 26 758 l 151 758 l 151 287 q 187 137 151 185 q 299 89 223 89 q 433 151 387 89 q 480 328 480 213 l 480 758 l 606 758 l 606 0 l 480 0 l 480 114 q 390 14 447 48 q 256 -20 332 -20 q 82 56 139 -20 q 26 287 26 132 "},"ȴ":{"x_min":108.9375,"x_max":702,"ha":836,"o":"m 494 97 q 548 85 502 85 q 633 190 633 85 q 590 233 633 233 q 494 97 547 233 m 450 -8 q 417 -100 431 -61 l 336 -100 l 383 30 q 335 99 370 34 q 309 275 309 150 l 309 965 l 108 965 l 108 1063 l 434 1063 l 434 275 q 442 172 434 196 q 590 338 520 338 q 702 191 702 338 q 532 -20 702 -20 q 450 -8 484 -20 "},"Ɖ":{"x_min":5,"x_max":747,"ha":836,"o":"m 295 1013 q 637 889 527 1013 q 747 505 747 766 q 636 123 747 246 q 295 0 526 0 l 90 0 l 90 481 l 5 481 l 5 582 l 90 582 l 90 1013 l 295 1013 m 295 113 q 536 198 468 113 q 605 505 605 283 q 536 814 605 729 q 295 900 468 900 l 230 900 l 230 582 l 409 582 l 409 481 l 230 481 l 230 113 l 295 113 "},"K":{"x_min":93,"x_max":831.171875,"ha":836,"o":"m 93 1013 l 231 1013 l 231 562 l 658 1013 l 819 1013 l 425 599 l 831 0 l 665 0 l 335 507 l 231 396 l 231 0 l 93 0 l 93 1013 "},"┞":{"x_min":309,"x_max":849.484375,"ha":836,"o":"m 363 -419 l 363 336 l 309 336 l 309 1351 l 526 1351 l 526 453 l 849 453 l 849 336 l 472 336 l 472 -419 l 363 -419 "},"ϋ":{"x_min":34.59375,"x_max":766,"ha":836,"o":"m 428 105 q 595 226 532 105 q 636 433 636 306 q 619 589 636 502 q 532 758 604 670 l 659 758 l 659 759 q 737 614 706 697 q 766 432 766 536 q 679 142 766 279 q 410 -1 588 -1 q 232 64 288 -1 q 177 274 177 130 l 177 662 l 34 662 l 34 759 l 305 759 l 305 267 q 328 137 305 168 q 428 105 352 105 m 216 1052 l 354 1052 l 354 915 l 216 915 l 216 1052 m 482 1052 l 619 1052 l 619 915 l 482 915 l 482 1052 "},"ﺙ":{"x_min":47,"x_max":814,"ha":836,"o":"m 796 365 q 814 227 814 316 q 701 61 814 143 q 409 -14 598 -14 q 153 24 257 -14 q 47 217 47 64 q 74 343 47 259 l 199 343 q 170 216 170 249 q 249 122 170 143 q 405 106 316 106 q 605 150 533 106 q 689 273 689 201 q 671 365 689 317 l 796 365 m 385 712 l 487 712 l 487 610 l 385 610 l 385 712 m 469 542 l 571 542 l 571 440 l 469 440 l 469 542 m 300 542 l 402 542 l 402 440 l 300 440 l 300 542 "},"ἶ":{"x_min":195,"x_max":662,"ha":836,"o":"m 481 760 l 481 268 q 503 138 481 169 q 600 105 527 105 l 662 105 l 662 0 l 586 0 q 408 65 463 0 q 353 275 353 131 l 353 663 l 210 663 l 210 760 l 481 760 m 500 1000 q 336 826 500 826 l 336 894 q 433 1000 433 894 l 336 1000 l 336 1119 l 500 1119 l 500 1000 m 415 1207 l 376 1244 q 351 1264 362 1258 q 330 1271 340 1271 q 292 1245 304 1271 q 280 1165 280 1220 l 195 1165 q 229 1306 195 1256 q 326 1357 264 1357 q 374 1347 352 1357 q 421 1315 396 1338 l 460 1278 q 485 1258 474 1264 q 505 1252 496 1252 q 543 1277 531 1252 q 556 1357 556 1302 l 641 1357 q 606 1216 641 1266 q 510 1166 571 1166 q 462 1175 483 1166 q 415 1207 440 1184 "},"b":{"x_min":131,"x_max":754,"ha":836,"o":"m 622 379 q 575 598 622 524 q 440 672 529 672 q 302 597 349 672 q 256 379 256 523 q 302 160 256 235 q 440 86 349 86 q 575 159 529 86 q 622 379 622 233 m 256 662 q 338 748 285 718 q 459 778 390 778 q 675 672 596 778 q 754 381 754 567 q 675 87 754 193 q 458 -19 596 -19 q 338 9 390 -19 q 256 95 287 39 l 256 0 l 131 0 l 131 1055 l 256 1055 l 256 662 "},"☔":{"x_min":20,"x_max":816.875,"ha":836,"o":"m 194 727 l 196 727 q 138 629 182 629 l 135 629 q 108 650 108 633 l 108 651 q 194 727 108 677 m 392 847 l 393 847 q 335 749 379 749 l 333 749 q 306 769 306 752 l 306 770 q 392 847 306 796 m 562 904 l 563 904 q 506 806 549 806 l 502 806 q 476 826 476 810 l 476 828 q 562 904 476 853 m 593 766 l 594 766 q 536 668 580 668 l 533 668 q 506 688 506 671 l 506 689 q 593 766 506 716 m 763 866 l 765 866 q 707 768 751 768 l 704 768 q 677 788 677 771 l 677 789 q 763 866 677 816 m 816 766 l 816 766 q 760 668 804 668 l 756 668 q 730 688 730 670 l 730 689 q 816 766 730 715 m 773 604 l 774 604 q 716 506 760 506 l 713 506 q 686 526 686 510 l 686 527 q 773 604 686 554 m 402 628 l 430 628 l 433 625 l 433 573 l 433 573 q 775 367 642 573 q 795 325 795 331 l 795 322 l 795 322 q 775 348 784 328 q 732 358 758 358 l 711 358 q 586 316 639 358 l 586 294 q 582 287 586 288 l 567 314 q 431 341 495 341 l 431 51 q 381 -2 431 9 l 366 -2 q 304 39 322 -2 l 304 50 l 304 61 l 308 64 l 328 64 l 331 61 l 331 56 q 365 14 335 14 l 370 14 q 405 38 395 14 l 408 55 l 408 341 q 267 314 308 341 q 252 290 259 290 l 249 293 l 249 298 l 252 320 l 250 320 q 125 358 218 346 l 93 358 q 30 332 46 358 l 21 325 l 20 325 l 20 325 q 137 478 47 386 q 400 573 252 573 l 400 625 l 402 628 "},"≕":{"x_min":50,"x_max":786,"ha":836,"o":"m 786 390 l 786 205 l 626 205 l 626 390 l 786 390 m 786 666 l 786 481 l 626 481 l 626 666 l 786 666 m 50 356 l 574 356 l 574 239 l 50 239 l 50 356 m 50 631 l 574 631 l 574 516 l 50 516 l 50 631 "},"≮":{"x_min":60,"x_max":777,"ha":836,"o":"m 326 274 l 60 379 l 60 491 l 441 642 l 518 889 l 622 857 l 571 693 l 777 775 l 777 651 l 528 558 l 460 337 l 777 219 l 777 95 l 428 233 l 349 -19 l 245 12 l 326 274 m 400 510 l 200 434 l 358 376 l 400 510 "},"ﬂ":{"x_min":24,"x_max":732,"ha":836,"o":"m 732 1055 l 732 0 l 607 0 l 607 951 l 404 951 q 311 923 337 951 q 285 826 285 896 l 285 758 l 484 758 l 484 662 l 285 662 l 285 0 l 160 0 l 160 662 l 24 662 l 24 759 l 160 759 l 160 811 q 217 995 160 936 q 396 1055 274 1055 l 732 1055 "},"ɢ":{"x_min":83,"x_max":755,"ha":836,"o":"m 642 120 l 642 312 l 536 312 l 536 407 l 755 407 l 755 48 q 646 12 706 25 q 456 0 593 0 q 184 107 285 0 q 83 398 83 215 q 184 691 83 584 q 464 797 286 797 q 576 785 506 797 q 734 723 647 774 l 734 606 q 576 677 652 658 q 469 692 518 692 q 281 614 349 692 q 215 398 215 538 q 281 183 215 259 q 469 105 349 105 q 642 120 587 105 "},"ຣ":{"x_min":68,"x_max":768,"ha":836,"o":"m 215 233 q 181 222 191 233 q 172 189 172 211 q 182 155 172 165 q 215 146 193 146 q 249 157 239 146 q 259 189 259 168 q 248 223 259 214 q 215 233 237 233 m 643 221 q 423 379 643 379 q 68 590 68 379 q 429 789 68 789 q 765 640 640 789 l 686 556 q 424 683 566 683 q 193 588 193 683 q 443 480 193 480 q 768 230 768 480 q 454 -12 768 -12 q 144 48 220 -12 q 69 193 69 109 q 211 331 69 331 q 364 188 364 331 q 349 122 364 135 q 495 97 399 97 q 643 221 643 97 "},"Ʈ":{"x_min":32,"x_max":804,"ha":836,"o":"m 32 1012 l 804 1012 l 804 897 l 488 897 l 488 -13 q 517 -141 488 -99 q 609 -183 548 -183 l 735 -183 l 735 -289 l 583 -289 q 410 -217 471 -289 q 350 -13 350 -145 l 350 897 l 32 897 l 32 1012 "},"Ὢ":{"x_min":-426.296875,"x_max":786,"ha":836,"o":"m 50 0 l 50 117 l 216 117 q 95 305 132 207 q 58 530 58 403 q 155 865 58 741 q 416 990 253 990 q 678 865 580 990 q 777 530 777 741 q 739 305 777 403 q 618 117 701 207 l 786 117 l 786 0 l 472 0 l 472 117 q 599 279 553 168 q 644 541 644 391 q 583 787 644 697 q 418 877 522 877 q 252 787 313 877 q 192 541 192 697 q 237 279 192 391 q 364 117 282 168 l 364 0 l 50 0 m -263 1000 q -426 826 -263 826 l -426 894 q -330 1000 -330 894 l -426 1000 l -426 1119 l -263 1119 l -263 1000 m -100 1111 l 89 856 l -14 856 l -234 1111 l -100 1111 "},"⍺":{"x_min":47,"x_max":794,"ha":836,"o":"m 519 353 l 489 510 q 338 671 458 671 q 231 595 272 671 q 179 378 179 502 q 229 158 179 229 q 338 86 281 86 q 477 230 428 86 l 519 353 m 338 778 q 588 561 548 778 l 655 759 l 766 759 l 628 348 l 655 199 q 684 138 661 166 q 734 105 712 105 l 794 105 l 794 0 l 719 0 q 598 56 655 0 q 559 145 571 85 q 466 11 528 71 q 338 -17 435 -17 q 127 86 204 -17 q 47 380 47 192 q 132 675 47 583 q 338 778 229 778 "},"↽":{"x_min":45,"x_max":792,"ha":836,"o":"m 45 436 l 792 436 l 792 325 l 194 325 l 303 216 l 242 155 l 45 352 l 45 436 "},"Ḡ":{"x_min":69,"x_max":749,"ha":836,"o":"m 248 1248 l 654 1248 l 654 1148 l 248 1148 l 248 1248 m 749 82 q 625 6 694 32 q 476 -20 556 -20 q 176 118 283 -20 q 69 505 69 256 q 177 892 69 753 q 479 1031 286 1031 q 601 1013 543 1031 q 714 958 659 995 l 714 818 q 601 895 658 870 q 479 920 543 920 q 278 816 345 920 q 212 505 212 712 q 276 192 212 294 q 476 91 341 91 q 555 101 521 91 q 618 134 590 112 l 618 406 l 470 406 l 470 519 l 749 519 l 749 82 "},"ﭢ":{"x_min":47,"x_max":814,"ha":836,"o":"m 796 365 q 814 227 814 316 q 701 61 814 143 q 409 -14 598 -14 q 153 24 257 -14 q 47 217 47 64 q 74 343 47 259 l 199 343 q 170 216 170 249 q 249 122 170 143 q 405 106 316 106 q 605 150 533 106 q 689 273 689 201 q 672 365 689 317 l 796 365 m 443 542 l 545 542 l 545 440 l 443 440 l 443 542 m 443 712 l 545 712 l 545 610 l 443 610 l 443 712 m 273 542 l 375 542 l 375 440 l 273 440 l 273 542 m 273 712 l 375 712 l 375 610 l 273 610 l 273 712 "},"ȭ":{"x_min":93,"x_max":743.25,"ha":836,"o":"m 218 1249 l 624 1249 l 624 1149 l 218 1149 l 218 1249 m 417 672 q 274 598 322 672 q 225 378 225 524 q 274 160 225 234 q 417 85 322 85 q 562 160 513 85 q 611 378 611 234 q 562 598 611 524 q 417 672 513 672 m 417 777 q 659 675 575 777 q 743 378 743 572 q 659 82 743 184 q 417 -20 576 -20 q 176 82 259 -20 q 93 378 93 184 q 176 675 93 572 q 417 777 259 777 m 415 929 l 376 966 q 351 986 362 980 q 330 993 340 993 q 292 967 304 993 q 280 887 280 942 l 195 887 q 229 1028 195 978 q 326 1079 264 1079 q 374 1069 352 1079 q 421 1037 396 1060 l 459 1000 q 485 980 474 986 q 505 974 496 974 q 543 999 531 974 q 556 1079 556 1024 l 641 1079 q 606 938 641 988 q 510 888 571 888 q 462 897 483 888 q 415 929 440 906 "},"Ŋ":{"x_min":100,"x_max":736,"ha":836,"o":"m 736 677 l 736 -13 q 675 -217 736 -145 q 502 -289 614 -289 l 364 -289 l 364 -183 l 476 -183 q 568 -141 537 -183 q 598 0 598 -99 l 598 684 q 558 863 598 806 q 435 921 519 921 q 288 847 339 921 q 237 635 237 773 l 237 0 l 100 0 l 100 1013 l 237 1013 l 237 878 q 336 992 273 953 q 483 1032 398 1032 q 673 943 610 1032 q 736 677 736 855 "},"ُ":{"x_min":220,"x_max":616,"ha":836,"o":"m 446 994 q 427 1002 440 995 q 354 1105 354 1040 q 400 1199 354 1164 q 462 1214 419 1214 q 538 1187 512 1214 q 577 1096 577 1150 q 566 1044 577 1075 q 590 1044 578 1044 q 616 1044 603 1044 l 616 970 q 571 970 593 970 q 532 973 550 970 q 455 903 502 932 q 220 820 319 820 l 220 895 q 417 968 323 895 q 446 994 432 980 m 491 1056 q 495 1066 493 1061 q 502 1096 502 1080 q 489 1129 502 1120 q 465 1139 478 1139 q 442 1132 449 1139 q 430 1105 430 1124 q 459 1067 430 1079 q 491 1056 473 1062 "},"𝚠":{"x_min":0,"x_max":836.1875,"ha":836,"o":"m 0 760 l 123 760 l 255 145 l 364 538 l 470 538 l 580 145 l 712 760 l 836 760 l 658 0 l 539 0 l 417 416 l 297 0 l 177 0 l 0 760 "},"ﻴ":{"x_min":-13,"x_max":850,"ha":836,"o":"m 443 -101 l 545 -101 l 545 -203 l 443 -203 l 443 -101 m 274 -101 l 376 -101 l 376 -203 l 274 -203 l 274 -101 m 411 58 q 214 0 360 0 l -13 0 l -13 125 l 176 125 q 316 154 286 125 q 349 259 349 188 l 349 407 l 474 407 l 474 259 q 507 154 474 188 q 648 125 537 125 l 850 125 l 850 0 l 610 0 q 411 58 465 0 "},"Ẋ":{"x_min":12.296875,"x_max":823.375,"ha":836,"o":"m 348 1270 l 487 1270 l 487 1131 l 348 1131 l 348 1270 m 58 1013 l 205 1013 l 428 631 l 654 1013 l 801 1013 l 498 536 l 823 0 l 676 0 l 428 436 l 160 0 l 12 0 l 351 536 l 58 1013 "},"ď":{"x_min":83,"x_max":889.109375,"ha":836,"o":"m 754 1056 l 889 1056 l 812 801 l 708 801 l 754 1056 m 581 662 l 581 1055 l 706 1055 l 706 0 l 581 0 l 581 95 q 498 9 549 39 q 378 -19 446 -19 q 161 87 240 -19 q 83 381 83 193 q 162 672 83 567 q 378 778 241 778 q 499 748 446 778 q 581 662 551 718 m 215 379 q 261 159 215 233 q 396 86 307 86 q 533 160 486 86 q 581 379 581 235 q 533 597 581 523 q 396 672 486 672 q 261 598 307 672 q 215 379 215 524 "},"ﻺ":{"x_min":64.21875,"x_max":850,"ha":836,"o":"m 90 -271 l 142 -259 q 102 -221 113 -246 q 91 -166 91 -196 q 127 -72 91 -101 q 230 -41 166 -41 q 308 -63 272 -41 l 308 -131 q 230 -109 273 -109 q 174 -121 186 -109 q 155 -160 155 -142 q 218 -231 155 -212 q 323 -218 241 -237 l 323 -287 l 90 -339 l 90 -271 m 563 213 q 474 107 523 151 q 227 -14 336 -14 q 105 7 155 -14 l 105 132 q 227 111 169 111 q 396 213 304 111 l 64 956 l 185 956 l 474 305 q 507 371 494 334 q 533 589 533 464 l 533 1055 l 658 1055 l 658 406 q 681 231 658 288 q 778 124 724 124 l 850 124 l 850 -1 l 762 -1 q 574 164 643 -1 q 563 213 563 191 "},"ṯ":{"x_min":89,"x_max":700,"ha":836,"o":"m 216 -142 l 622 -142 l 622 -242 l 216 -242 l 216 -142 m 417 975 l 417 760 l 700 760 l 700 663 l 417 663 l 417 250 q 448 133 417 166 q 560 100 480 100 l 700 100 l 700 0 l 547 0 q 349 56 407 0 q 292 250 292 112 l 292 663 l 89 663 l 89 760 l 292 760 l 292 975 l 417 975 "},"ŧ":{"x_min":89,"x_max":700,"ha":836,"o":"m 417 975 l 417 760 l 700 760 l 700 663 l 417 663 l 417 504 l 572 504 l 572 408 l 417 408 l 417 250 q 448 133 417 166 q 559 100 480 100 l 700 100 l 700 0 l 547 0 q 349 56 407 0 q 292 250 292 112 l 292 408 l 137 408 l 137 504 l 292 504 l 292 663 l 89 663 l 89 760 l 292 760 l 292 975 l 417 975 "},"ﺧ":{"x_min":-13,"x_max":758,"ha":836,"o":"m 357 746 l 459 746 l 459 644 l 357 644 l 357 746 m 578 366 q 452 397 521 382 q 272 421 394 410 q 107 424 216 424 l 107 547 q 206 552 155 552 q 433 528 316 552 q 758 426 608 493 l 758 322 q 646 271 706 306 q 484 160 534 204 q 334 54 385 72 q 73 0 184 0 l -13 0 l -13 125 l 54 125 q 296 173 208 125 q 446 284 367 212 q 578 366 509 342 "},"⋟":{"x_min":58,"x_max":775,"ha":836,"o":"m 374 712 q 775 571 526 607 l 775 435 q 374 562 525 473 q 58 817 195 668 l 58 988 q 374 712 178 847 m 58 -8 q 529 250 255 197 q 58 510 255 314 l 58 672 q 374 434 182 536 q 775 307 542 345 l 775 194 q 374 68 535 153 q 58 -170 182 -33 l 58 -8 "},"À":{"x_min":25.09375,"x_max":811.09375,"ha":836,"o":"m 417 892 l 273 374 l 562 374 l 417 892 m 335 1012 l 501 1012 l 811 0 l 669 0 l 594 264 l 240 264 l 166 0 l 25 0 l 335 1012 m 380 1288 l 514 1109 l 409 1109 l 255 1288 l 380 1288 "},"Ώ":{"x_min":-34.09375,"x_max":786,"ha":836,"o":"m 50 0 l 50 117 l 216 117 q 95 305 132 207 q 58 530 58 403 q 155 865 58 741 q 416 990 253 990 q 678 865 580 990 q 776 530 776 741 q 738 305 776 403 q 617 117 700 207 l 786 117 l 786 0 l 472 0 l 472 117 q 598 279 553 168 q 644 541 644 391 q 583 787 644 697 q 417 877 522 877 q 252 787 313 877 q 192 541 192 697 q 237 279 192 391 q 364 117 282 168 l 364 0 l 50 0 m 156 1111 l 290 1111 l 70 856 l -34 856 l 156 1111 "},"┰":{"x_min":-13,"x_max":850,"ha":836,"o":"m 310 -419 l 310 336 l -13 336 l -13 453 l 850 453 l 850 336 l 527 336 l 527 -419 l 310 -419 "},"̟":{"x_min":238,"x_max":570,"ha":836,"o":"m 358 -400 l 238 -400 l 238 -308 l 358 -308 l 358 -188 l 450 -188 l 450 -308 l 570 -308 l 570 -400 l 450 -400 l 450 -520 l 358 -520 l 358 -400 "},"'":{"x_min":358,"x_max":476,"ha":836,"o":"m 476 1012 l 476 636 l 358 636 l 358 1012 l 476 1012 "},"ჼ":{"x_min":275,"x_max":561,"ha":836,"o":"m 420 892 q 561 706 561 892 q 416 513 561 513 q 275 707 275 513 l 275 932 q 400 1055 275 1055 l 559 1055 l 559 1000 l 384 1000 q 337 945 337 1000 l 337 838 l 420 892 m 498 707 q 413 829 498 829 q 337 703 337 829 q 416 567 337 567 q 498 707 498 567 "},"⚅":{"x_min":41,"x_max":794,"ha":836,"o":"m 504 376 q 512 411 504 397 q 539 437 523 426 q 574 447 552 447 q 610 437 596 447 q 636 411 625 427 q 646 376 646 397 q 636 340 646 354 q 610 314 626 325 q 574 305 596 305 q 539 314 553 305 q 512 340 523 324 q 504 376 504 354 m 189 376 q 198 411 189 397 q 224 437 208 426 q 260 447 238 447 q 295 437 281 447 q 321 411 310 427 q 331 376 331 397 q 321 340 331 354 q 295 314 311 325 q 260 305 281 305 q 224 314 238 305 q 198 340 209 324 q 189 376 189 354 m 189 559 q 198 594 189 580 q 224 620 209 609 q 260 630 238 630 q 295 620 281 630 q 321 594 310 610 q 331 559 331 580 q 321 523 331 537 q 295 497 311 508 q 260 488 281 488 q 224 497 239 488 q 198 523 209 507 q 189 559 189 537 m 504 190 q 513 225 504 211 q 539 251 523 240 q 575 261 553 261 q 610 251 596 261 q 637 225 626 241 q 646 190 646 211 q 637 154 646 169 q 610 128 626 139 q 575 119 597 119 q 539 128 553 119 q 513 154 524 139 q 504 190 504 168 m 189 190 q 198 225 189 211 q 224 251 209 240 q 260 261 238 261 q 295 251 281 261 q 321 225 310 241 q 331 189 331 211 q 321 154 331 169 q 295 128 311 139 q 260 119 281 119 q 224 128 239 119 q 198 154 209 139 q 189 190 189 168 m 504 559 q 513 594 504 580 q 539 620 523 609 q 575 630 553 630 q 610 620 596 630 q 637 594 626 610 q 646 559 646 580 q 637 523 646 537 q 610 497 626 508 q 575 488 597 488 q 539 497 553 488 q 513 523 524 507 q 504 559 504 537 m 41 -3 l 41 753 l 794 753 l 794 -3 l 41 -3 m 124 81 l 710 81 l 710 669 l 124 669 l 124 81 "},"ﭗ":{"x_min":47,"x_max":849.53125,"ha":836,"o":"m 368 -13 q 153 24 242 -13 q 47 217 47 68 q 74 344 47 259 l 199 344 q 170 217 170 250 q 249 123 170 144 q 401 107 315 107 q 536 144 448 107 q 626 205 596 169 q 664 287 664 249 q 644 366 664 329 l 769 366 q 782 254 782 316 q 798 152 782 186 q 827 125 811 125 l 849 125 l 849 0 l 798 0 q 731 29 763 0 q 689 112 702 58 q 564 25 629 57 q 368 -13 485 -13 m 340 -339 l 442 -339 l 442 -237 l 340 -237 l 340 -339 m 425 -169 l 526 -169 l 526 -67 l 425 -67 l 425 -169 m 255 -169 l 357 -169 l 357 -67 l 255 -67 l 255 -169 "},"ٴ":{"x_min":302,"x_max":535,"ha":836,"o":"m 302 970 l 354 982 q 314 1020 324 995 q 303 1075 303 1045 q 339 1169 303 1140 q 442 1201 378 1201 q 520 1178 484 1201 l 520 1110 q 442 1133 485 1133 q 386 1120 398 1133 q 367 1081 367 1099 q 430 1010 367 1029 q 535 1023 453 1004 l 535 954 l 302 902 l 302 970 "},"▩":{"x_min":4,"x_max":832,"ha":836,"o":"m 680 48 l 704 24 l 755 24 l 755 75 l 731 99 l 680 48 m 81 647 l 104 623 l 155 675 l 133 697 l 81 697 l 81 647 m 81 435 l 100 416 l 151 467 l 104 514 l 81 491 l 81 435 m 264 674 l 311 628 l 363 679 l 345 697 l 287 697 l 264 674 m 159 569 l 205 522 l 257 573 l 209 620 l 159 569 m 81 232 l 104 209 l 151 256 l 100 307 l 81 288 l 81 232 m 472 679 l 524 628 l 571 674 l 548 697 l 490 697 l 472 679 m 366 573 l 417 522 l 469 573 l 417 624 l 366 573 m 260 467 l 311 416 l 363 467 l 311 518 l 260 467 m 154 362 l 206 310 l 257 361 l 205 412 l 154 362 m 81 24 l 131 24 l 155 48 l 104 99 l 81 75 l 81 24 m 681 675 l 731 623 l 755 647 l 755 697 l 702 697 l 681 675 m 579 573 l 630 522 l 676 569 l 626 620 l 579 573 m 472 467 l 524 416 l 575 467 l 524 518 l 472 467 m 366 361 l 417 310 l 469 361 l 417 412 l 366 361 m 261 256 l 312 204 l 363 255 l 311 306 l 261 256 m 159 154 l 210 103 l 257 150 l 206 201 l 159 154 m 685 467 l 735 416 l 755 435 l 755 491 l 731 514 l 685 467 m 578 361 l 629 310 l 681 362 l 630 412 l 578 361 m 472 255 l 523 204 l 575 256 l 523 306 l 472 255 m 367 150 l 417 98 l 469 150 l 417 200 l 367 150 m 265 48 l 290 24 l 343 24 l 363 44 l 312 95 l 265 48 m 684 256 l 731 209 l 755 232 l 755 288 l 735 307 l 684 256 m 578 150 l 625 103 l 676 154 l 629 201 l 578 150 m 472 44 l 493 24 l 545 24 l 570 48 l 523 95 l 472 44 m 4 -53 l 4 774 l 832 774 l 832 -53 l 4 -53 "},"Ɠ":{"x_min":35,"x_max":801,"ha":836,"o":"m 715 82 q 590 6 659 32 q 442 -20 522 -20 q 142 118 249 -20 q 35 505 35 256 q 143 892 35 753 q 444 1031 252 1031 q 566 1012 508 1031 q 589 1004 578 1008 q 614 1039 599 1022 q 788 1111 675 1111 l 801 1111 l 801 1005 q 709 963 744 1005 q 679 836 679 927 l 679 818 q 567 895 624 870 q 444 920 509 920 q 244 816 311 920 q 177 505 177 712 q 242 192 177 294 q 441 91 307 91 q 521 101 486 91 q 583 134 555 112 l 583 406 l 436 406 l 436 519 l 715 519 l 715 82 "},"Ć":{"x_min":94,"x_max":727,"ha":836,"o":"m 727 35 q 619 -6 674 7 q 503 -20 565 -20 q 201 117 308 -20 q 94 505 94 255 q 202 892 94 753 q 503 1031 310 1031 q 619 1017 565 1031 q 727 975 674 1003 l 727 835 q 619 898 676 876 q 503 920 561 920 q 303 816 369 920 q 237 505 237 713 q 303 194 237 297 q 503 91 369 91 q 620 112 563 91 q 727 175 677 134 l 727 35 m 516 1288 l 642 1288 l 487 1109 l 382 1109 l 516 1288 "},"ẓ":{"x_min":138,"x_max":706,"ha":836,"o":"m 348 -142 l 487 -142 l 487 -280 l 348 -280 l 348 -142 m 154 761 l 705 761 l 705 646 l 269 102 l 706 102 l 706 0 l 138 0 l 138 115 l 573 661 l 154 661 l 154 761 "},"↫":{"x_min":45,"x_max":791,"ha":836,"o":"m 593 718 q 668 703 635 718 q 732 660 702 689 q 776 597 761 633 q 791 521 791 562 q 776 447 791 483 q 733 382 763 413 q 669 339 708 356 q 615 325 636 325 l 513 325 l 513 181 l 402 181 l 402 325 l 194 325 l 303 216 l 242 155 l 45 352 l 45 408 l 242 605 l 303 544 l 194 436 l 402 436 l 402 520 q 416 596 402 560 q 458 660 431 633 q 521 704 489 690 q 593 718 555 718 m 593 607 q 564 600 582 607 q 537 581 549 593 q 519 553 527 571 q 513 520 513 538 l 513 436 l 588 436 q 626 442 608 436 q 654 461 641 448 q 673 488 666 472 q 680 521 680 504 q 673 554 680 539 q 654 581 667 569 q 626 600 644 592 q 593 607 610 607 "},"Ğ":{"x_min":69,"x_max":749,"ha":836,"o":"m 239 1288 l 320 1288 q 362 1233 328 1252 q 451 1214 396 1214 q 541 1232 508 1214 q 584 1288 573 1251 l 664 1288 q 603 1166 657 1208 q 451 1125 549 1125 q 300 1166 353 1125 q 239 1288 246 1207 m 749 82 q 625 6 694 32 q 476 -20 556 -20 q 176 118 283 -20 q 69 505 69 256 q 177 892 69 753 q 479 1031 286 1031 q 601 1013 543 1031 q 714 958 659 995 l 714 818 q 601 895 659 870 q 479 920 543 920 q 278 816 345 920 q 212 505 212 712 q 276 192 212 294 q 476 91 341 91 q 555 101 521 91 q 618 134 590 112 l 618 406 l 470 406 l 470 519 l 749 519 l 749 82 "},"Ї":{"x_min":136,"x_max":698,"ha":836,"o":"m 136 1013 l 698 1013 l 698 898 l 486 898 l 486 115 l 698 115 l 698 0 l 136 0 l 136 115 l 348 115 l 348 898 l 136 898 l 136 1013 m 216 1269 l 354 1269 l 354 1131 l 216 1131 l 216 1269 m 482 1269 l 619 1269 l 619 1131 l 482 1131 l 482 1269 "},"Ź":{"x_min":106,"x_max":793,"ha":836,"o":"m 474 1288 l 600 1288 l 445 1109 l 340 1109 l 474 1288 m 121 1013 l 778 1013 l 778 908 l 249 115 l 793 115 l 793 0 l 106 0 l 106 104 l 620 898 l 121 898 l 121 1013 "},"ʻ":{"x_min":314,"x_max":551.46875,"ha":836,"o":"m 485 655 l 314 655 l 314 795 l 447 1055 l 551 1055 l 485 795 l 485 655 "},"ﺇ":{"x_min":297,"x_max":530,"ha":836,"o":"m 355 1055 l 480 1055 l 480 0 l 355 0 l 355 1055 m 297 -271 l 349 -259 q 309 -221 319 -246 q 298 -166 298 -196 q 334 -72 298 -101 q 437 -41 373 -41 q 515 -63 479 -41 l 515 -131 q 437 -109 480 -109 q 381 -121 393 -109 q 362 -160 362 -142 q 425 -231 362 -212 q 530 -218 448 -237 l 530 -287 l 297 -339 l 297 -271 "},"╒":{"x_min":363,"x_max":849.75,"ha":836,"o":"m 363 -419 l 363 570 l 849 570 l 849 453 l 472 453 l 472 337 l 849 337 l 849 220 l 472 220 l 472 -419 l 363 -419 "},"⍬":{"x_min":60.125,"x_max":776.96875,"ha":836,"o":"m 170 898 q 418 1031 254 1031 q 667 898 583 1031 q 739 578 739 784 q 776 604 760 590 l 776 485 q 742 463 761 473 q 665 113 742 235 q 416 -20 580 -20 q 168 113 252 -20 q 96 433 96 227 q 60 408 76 422 l 60 526 q 94 548 75 538 q 170 898 94 776 m 415 922 q 271 819 318 922 q 235 601 235 741 q 268 604 249 604 q 338 596 304 604 q 422 567 371 588 q 444 557 429 564 q 585 520 523 520 q 607 521 595 520 q 561 818 607 719 q 415 922 513 922 m 229 489 q 275 192 229 291 q 419 89 322 89 q 565 191 517 89 q 601 409 601 269 q 575 408 590 408 q 437 442 514 408 q 415 452 422 449 q 328 482 363 474 q 259 491 293 491 q 229 489 243 491 "},"⍟":{"x_min":-13,"x_max":850,"ha":836,"o":"m 245 795 q 73 496 73 695 q 245 197 73 297 q 418 148 331 148 q 591 197 504 148 q 764 496 764 297 q 591 795 764 695 q 418 845 504 845 q 245 795 331 845 m 202 122 q -13 496 -13 247 q 202 870 -13 745 q 418 932 309 932 q 633 870 525 932 q 850 496 850 745 q 633 122 850 247 q 418 61 525 61 q 202 122 309 61 m 180 559 l 361 559 l 418 731 l 475 559 l 656 559 l 509 451 l 566 278 l 418 386 l 271 278 l 327 451 l 180 559 "},"Ṁ":{"x_min":58,"x_max":776,"ha":836,"o":"m 348 1270 l 487 1270 l 487 1131 l 348 1131 l 348 1270 m 58 1013 l 241 1013 l 416 497 l 592 1013 l 776 1013 l 776 0 l 649 0 l 649 894 l 469 361 l 365 361 l 184 894 l 184 0 l 58 0 l 58 1013 "},"ɔ":{"x_min":125,"x_max":713,"ha":836,"o":"m 125 719 q 228 763 175 748 q 336 777 281 777 q 613 671 513 777 q 713 378 713 566 q 613 85 713 191 q 336 -20 513 -20 q 230 -5 282 -20 q 125 38 177 8 l 125 169 q 224 105 173 125 q 336 85 274 85 q 517 161 454 85 q 581 378 581 237 q 517 595 581 519 q 336 672 453 672 q 219 651 271 672 q 125 589 168 631 l 125 719 "},"≗":{"x_min":60,"x_max":777,"ha":836,"o":"m 60 356 l 777 356 l 777 239 l 60 239 l 60 356 m 60 631 l 777 631 l 777 516 l 60 516 l 60 631 m 419 979 q 335 945 369 979 q 302 865 302 912 q 335 786 302 818 q 419 754 369 754 q 502 786 468 754 q 536 865 536 818 q 501 945 536 912 q 419 979 467 979 m 418 1056 q 494 1041 458 1056 q 557 999 531 1026 q 600 938 586 972 q 615 865 615 904 q 557 733 615 787 q 417 679 500 679 q 278 732 334 679 q 223 865 223 785 q 279 1000 223 945 q 418 1056 336 1056 "},"ᵎ":{"x_min":223,"x_max":613,"ha":836,"o":"m 579 455 l 379 455 l 379 826 l 223 826 l 223 880 l 613 880 l 613 826 l 457 826 l 457 509 l 579 509 l 579 455 m 457 289 l 379 289 l 379 378 l 457 378 l 457 289 "},"✩":{"x_min":27.671875,"x_max":808.328125,"ha":836,"o":"m 27 448 l 279 511 l 417 732 l 556 511 l 808 448 l 651 247 l 651 -11 l 417 85 l 185 -11 l 185 247 l 27 448 m 417 732 l 326 448 l 27 448 l 268 272 l 176 -11 l 417 164 l 659 -11 l 567 272 l 808 448 l 509 448 l 417 732 "},"┐":{"x_min":-13.0625,"x_max":473,"ha":836,"o":"m 364 -419 l 364 336 l -13 336 l -13 453 l 473 453 l 473 -419 l 364 -419 "},"ʚ":{"x_min":119,"x_max":717,"ha":836,"o":"m 380 668 q 264 631 302 668 q 221 537 221 590 q 261 448 221 485 q 377 428 283 428 l 470 428 l 470 321 l 377 321 q 261 300 283 321 q 221 211 221 264 q 264 117 221 160 q 380 81 301 81 q 611 384 611 81 q 380 668 611 668 m 529 745 q 717 377 717 643 q 530 12 717 144 q 372 -29 472 -29 q 187 30 254 -29 q 119 189 119 89 q 155 307 119 259 q 257 374 191 355 q 155 441 191 393 q 119 559 119 489 q 187 718 119 659 q 372 777 254 777 q 529 745 473 777 "},"↶":{"x_min":54.78125,"x_max":780,"ha":836,"o":"m 225 383 l 225 400 q 250 509 225 453 q 311 598 270 557 q 399 657 349 636 q 504 677 448 677 q 609 657 563 677 q 698 598 661 634 q 759 509 738 558 q 780 405 780 461 l 678 405 q 665 473 678 442 q 627 532 652 506 q 570 572 603 556 q 506 585 543 585 q 440 572 467 585 q 383 532 408 558 q 346 474 359 508 q 335 399 335 447 l 335 383 l 444 492 l 505 431 l 307 234 l 252 234 l 54 431 l 115 492 l 225 383 "},"ῖ":{"x_min":195,"x_max":662,"ha":836,"o":"m 481 760 l 481 268 q 503 138 481 169 q 600 105 527 105 l 662 105 l 662 0 l 586 0 q 408 65 463 0 q 353 275 353 131 l 353 663 l 210 663 l 210 760 l 481 760 m 415 929 l 376 966 q 351 986 362 980 q 330 993 340 993 q 292 967 304 993 q 280 887 280 942 l 195 887 q 229 1028 195 978 q 326 1079 264 1079 q 374 1069 352 1079 q 421 1037 396 1060 l 460 1000 q 485 980 474 986 q 505 974 497 974 q 543 999 531 974 q 556 1079 556 1024 l 641 1079 q 606 938 641 988 q 510 888 571 888 q 462 897 483 888 q 415 929 440 906 "},".":{"x_min":332,"x_max":503,"ha":836,"o":"m 332 207 l 503 207 l 503 0 l 332 0 l 332 207 "},"𝚄":{"x_min":100,"x_max":736,"ha":836,"o":"m 100 388 l 100 1012 l 238 1012 l 238 325 q 242 220 238 251 q 256 171 246 188 q 318 111 277 131 q 418 91 359 91 q 517 111 477 91 q 580 171 558 131 q 594 219 590 188 q 599 324 599 251 l 599 1012 l 736 1012 l 736 388 q 716 167 736 232 q 649 59 697 102 q 547 0 605 19 q 418 -20 489 -20 q 289 0 346 -20 q 186 59 231 19 q 119 168 139 101 q 100 388 100 234 "},"ǀ":{"x_min":350,"x_max":487,"ha":836,"o":"m 350 1013 l 487 1013 l 487 0 l 350 0 l 350 1013 "},"≾":{"x_min":58,"x_max":775,"ha":836,"o":"m 775 119 l 775 0 q 675 -58 724 -39 q 573 -77 627 -77 q 435 -42 512 -77 q 413 -33 420 -35 q 326 -2 361 -10 q 256 6 291 6 q 155 -13 203 6 q 58 -77 107 -33 l 58 41 q 160 100 110 81 q 266 119 209 119 q 336 111 302 119 q 420 82 370 104 q 442 72 427 79 q 584 36 521 36 q 678 56 631 36 q 775 119 724 76 m 775 826 q 303 566 577 620 q 775 306 577 503 l 775 144 q 458 383 650 281 q 58 510 290 471 l 58 622 q 458 749 297 664 q 775 988 650 850 l 775 826 "},"║":{"x_min":255,"x_max":581,"ha":836,"o":"m 255 -419 l 255 1351 l 364 1351 l 364 -419 l 255 -419 m 472 -419 l 472 1351 l 581 1351 l 581 -419 l 472 -419 "},"☌":{"x_min":37,"x_max":799.9375,"ha":836,"o":"m 390 588 q 225 520 293 588 q 157 354 157 452 q 225 190 157 258 q 390 122 293 122 q 554 190 486 122 q 623 354 623 258 q 555 520 623 452 q 390 588 488 588 m 616 628 q 641 604 629 617 q 745 354 745 500 q 641 104 745 207 q 390 1 537 1 q 140 104 244 1 q 37 354 37 207 q 139 604 37 500 q 390 708 242 708 q 512 688 455 708 l 695 1005 l 799 944 l 616 628 "},"ʂ":{"x_min":127,"x_max":708,"ha":836,"o":"m 666 737 l 666 619 q 557 660 613 646 q 438 674 500 674 q 300 645 346 674 q 253 560 253 617 q 286 491 253 516 q 420 444 319 467 l 463 435 q 652 354 596 406 q 708 210 708 302 q 625 42 708 103 q 394 -19 540 -19 q 252 -4 323 -19 q 277 -150 252 -113 q 375 -183 300 -183 l 533 -183 l 533 -289 l 360 -289 q 182 -223 238 -289 q 127 -13 127 -158 l 127 156 q 263 103 196 120 q 396 85 330 85 q 532 115 485 85 q 580 200 580 145 q 546 278 580 251 q 395 330 510 305 l 352 340 q 183 415 235 365 q 132 554 132 466 q 207 719 132 661 q 423 778 283 778 q 554 767 492 778 q 666 737 615 757 "},"ԝ":{"x_min":0,"x_max":836.1875,"ha":836,"o":"m 0 760 l 123 760 l 255 145 l 364 538 l 470 538 l 580 145 l 712 760 l 836 760 l 658 0 l 539 0 l 417 416 l 297 0 l 177 0 l 0 760 "},"à":{"x_min":90,"x_max":718,"ha":836,"o":"m 475 381 l 434 381 q 270 342 325 381 q 215 228 215 304 q 256 121 215 159 q 370 84 297 84 q 533 155 474 84 q 592 353 592 227 l 592 381 l 475 381 m 718 433 l 718 0 l 592 0 l 592 111 q 491 12 552 44 q 344 -20 431 -20 q 159 45 228 -20 q 90 220 90 110 q 175 413 90 347 q 425 479 260 479 l 592 479 l 592 498 q 546 630 592 589 q 401 672 501 672 q 272 653 337 672 q 146 599 207 635 l 146 724 q 278 764 215 751 q 401 777 341 777 q 562 750 495 777 q 670 666 629 722 q 707 582 696 632 q 718 433 718 532 m 323 1110 l 514 856 l 409 856 l 189 1110 l 323 1110 "},"ﺐ":{"x_min":47,"x_max":849.53125,"ha":836,"o":"m 315 -135 l 417 -135 l 417 -237 l 315 -237 l 315 -135 m 368 -13 q 153 24 241 -13 q 47 217 47 68 q 74 344 47 259 l 199 344 q 170 217 170 250 q 249 123 170 144 q 402 107 315 107 q 537 144 448 107 q 626 205 596 169 q 664 287 664 249 q 644 366 664 329 l 769 366 q 782 254 782 316 q 798 152 782 186 q 827 125 811 125 l 849 125 l 849 0 l 798 0 q 731 29 763 0 q 689 112 702 58 q 564 25 629 57 q 368 -13 485 -13 "},"₀":{"x_min":215,"x_max":622,"ha":836,"o":"m 377 249 q 362 284 362 263 q 378 322 362 306 q 416 337 393 337 q 457 322 442 337 q 474 284 474 306 q 457 249 474 262 q 416 235 440 235 q 377 249 393 235 m 418 518 q 329 460 359 518 q 300 283 300 402 q 329 107 300 165 q 418 50 359 50 q 507 107 477 50 q 537 283 537 165 q 507 460 537 402 q 418 518 477 518 m 417 578 q 570 503 518 578 q 622 283 622 429 q 570 63 622 138 q 417 -10 518 -10 q 265 63 316 -10 q 215 283 215 138 q 265 503 215 429 q 417 578 317 578 "},"♲":{"x_min":33,"x_max":804,"ha":836,"o":"m 361 747 l 565 747 q 610 710 595 747 l 650 640 l 701 669 l 705 669 q 708 666 708 669 l 618 511 l 438 511 l 436 513 l 436 516 q 487 546 445 525 l 487 549 q 382 727 390 717 q 359 741 359 739 l 359 744 l 361 747 m 300 738 l 312 738 q 398 671 369 738 q 414 640 414 645 q 315 470 323 478 l 313 470 q 156 562 158 558 l 156 563 q 245 714 237 710 q 300 738 268 738 m 411 725 l 411 724 l 515 540 l 504 533 l 504 532 l 608 532 l 657 620 l 642 614 q 575 723 584 717 l 565 725 l 411 725 m 184 569 l 308 497 l 390 641 q 319 717 358 717 l 304 717 q 238 663 261 717 l 184 569 m 715 525 q 801 375 724 517 l 804 354 l 804 344 q 762 270 804 304 q 732 261 751 261 l 657 261 q 558 430 650 266 l 558 432 l 715 525 m 585 425 l 666 281 l 735 281 q 782 334 763 281 l 782 348 q 758 413 782 377 l 708 497 q 585 425 591 430 m 203 485 l 214 485 q 279 373 218 485 q 305 326 305 333 l 302 324 l 300 324 l 248 353 q 148 176 155 194 l 146 165 l 149 145 l 145 143 l 144 143 q 42 312 132 157 q 33 341 33 326 l 33 345 q 77 427 33 359 l 87 449 l 85 449 l 34 479 l 34 482 l 36 485 l 203 485 m 103 465 l 103 462 l 112 455 l 114 455 l 114 453 q 54 348 114 450 l 54 342 q 135 198 54 329 l 238 378 l 239 378 l 254 373 l 254 375 l 205 465 l 103 465 m 534 310 l 536 310 l 539 307 l 539 247 l 730 247 q 770 264 752 247 l 772 264 l 775 261 l 775 261 q 670 76 771 250 q 640 62 657 62 l 539 62 l 539 0 l 536 -3 l 532 -3 q 443 153 443 146 l 443 155 l 534 310 m 400 247 l 405 243 l 405 64 l 402 62 l 248 62 q 163 131 188 62 l 161 151 l 161 157 q 206 247 161 183 l 400 247 m 516 241 l 466 152 l 516 64 l 519 64 l 519 68 q 523 83 519 83 l 642 83 q 678 133 653 83 l 732 226 l 523 226 q 519 236 519 226 l 519 241 l 516 241 m 217 226 q 183 157 185 176 l 183 152 q 228 85 183 108 l 244 83 l 384 83 l 384 226 l 217 226 "},"⌼":{"x_min":4,"x_max":832,"ha":836,"o":"m 252 783 q 86 497 86 687 q 252 210 86 306 q 417 162 334 162 q 583 210 500 162 q 749 497 749 306 q 583 783 749 687 q 417 832 500 832 q 252 783 334 832 m 81 -61 l 755 -61 l 755 249 q 624 138 705 185 q 417 79 520 79 q 210 138 313 79 q 81 248 129 185 l 81 -61 m 832 -138 l 4 -138 l 4 1151 l 832 1151 l 832 -138 m 81 745 q 210 855 129 809 q 417 915 313 915 q 624 855 520 915 q 755 744 705 808 l 755 1074 l 81 1074 l 81 745 "},"₴":{"x_min":0,"x_max":836,"ha":836,"o":"m 563 639 q 576 649 570 643 q 614 752 614 685 q 557 874 614 829 q 404 920 501 920 q 277 899 340 920 q 152 839 214 879 l 152 978 q 288 1017 224 1004 q 411 1031 352 1031 q 653 949 562 1031 q 745 731 745 867 q 730 639 745 680 l 836 639 l 836 556 l 678 556 q 476 462 614 494 l 449 456 l 836 456 l 836 373 l 254 373 q 225 267 225 334 q 282 137 225 184 q 444 91 340 91 q 584 114 514 91 q 731 186 653 137 l 731 40 q 587 -4 659 10 q 444 -20 515 -20 q 183 56 273 -20 q 94 276 94 132 q 106 373 94 329 l 0 373 l 0 456 l 147 456 q 159 470 153 463 q 300 556 208 524 l 0 556 l 0 639 l 563 639 "},"̛":{"x_min":284.546875,"x_max":552,"ha":836,"o":"m 284 591 l 284 671 q 355 626 325 641 q 406 612 385 612 q 453 630 437 612 q 469 685 469 649 q 463 728 469 707 q 448 770 458 749 l 538 770 q 548 721 545 744 q 552 678 552 698 q 522 556 552 595 q 430 518 493 518 q 362 535 397 518 q 284 591 326 553 "},"۹":{"x_min":109,"x_max":726.734375,"ha":836,"o":"m 517 406 q 337 417 378 406 q 179 489 224 445 q 109 641 109 557 q 175 803 109 737 q 359 889 260 889 q 525 831 463 889 q 625 638 612 751 q 638 444 625 546 q 726 0 665 236 l 593 0 q 517 406 531 280 m 504 529 l 504 587 q 474 701 497 660 q 363 767 435 767 q 270 729 309 767 q 231 644 231 693 q 272 569 231 606 q 346 539 294 548 q 504 529 399 529 "},"╮":{"x_min":-13,"x_max":473,"ha":836,"o":"m 364 -420 l 364 166 q 332 293 364 251 q 241 336 302 336 l -13 336 l -13 453 l 242 453 q 418 362 356 453 q 473 166 473 280 l 473 -420 l 364 -420 "},"Ṕ":{"x_min":134,"x_max":774,"ha":836,"o":"m 363 1293 l 489 1293 l 334 1114 l 229 1114 l 363 1293 m 271 900 l 271 520 l 429 520 q 577 570 524 520 q 631 710 631 620 q 578 850 631 800 q 429 900 525 900 l 271 900 m 134 1013 l 429 1013 q 686 935 599 1013 q 774 710 774 858 q 686 483 774 560 q 429 407 599 407 l 271 407 l 271 0 l 134 0 l 134 1013 "},"̳":{"x_min":0,"x_max":836,"ha":836,"o":"m 836 -274 l 836 -328 l 0 -328 l 0 -274 l 836 -274 m 836 -111 l 836 -165 l 0 -165 l 0 -111 l 836 -111 "},"ی":{"x_min":17,"x_max":836.515625,"ha":836,"o":"m 776 8 q 534 -156 686 -123 q 351 -182 414 -182 q 215 -164 264 -182 q 17 83 17 -93 q 59 239 17 162 l 184 239 q 140 82 140 150 q 251 -47 140 -16 q 359 -61 302 -61 q 514 -37 441 -61 q 631 39 587 -13 q 672 110 672 87 q 653 170 672 141 q 540 244 630 205 q 475 363 475 274 q 538 506 475 464 q 656 540 591 540 q 790 490 753 540 q 836 353 824 445 l 711 353 q 698 411 711 394 q 653 431 679 434 q 623 416 639 430 q 600 357 600 396 q 685 300 600 329 q 784 208 746 278 q 806 105 806 169 q 776 8 806 53 "},"ꜞ":{"x_min":374,"x_max":461,"ha":836,"o":"m 461 924 l 374 924 l 374 1020 l 461 1020 l 461 924 m 456 453 l 378 453 l 378 702 l 378 838 l 456 838 l 456 702 l 456 453 "},"☯":{"x_min":9,"x_max":826,"ha":836,"o":"m 418 417 l 418 403 q 472 273 418 326 q 606 221 526 221 q 742 277 687 221 q 798 417 798 333 q 684 680 798 569 q 415 792 570 792 q 148 685 255 792 q 42 410 42 579 q 98 553 49 504 q 229 602 147 602 q 363 549 308 602 q 418 417 418 496 m 663 410 q 646 371 663 387 q 608 356 629 356 q 569 371 585 356 q 553 410 553 387 q 569 449 553 433 q 608 466 585 466 q 646 449 630 466 q 663 410 663 433 m 282 410 q 266 449 282 433 q 227 466 250 466 q 189 449 205 466 q 173 410 173 433 q 189 371 173 387 q 227 356 205 356 q 266 372 250 356 q 282 410 282 388 m 826 410 q 706 121 826 240 q 417 3 587 3 q 128 121 248 3 q 9 410 9 240 q 128 699 9 579 q 417 820 248 820 q 706 699 587 820 q 826 410 826 579 "},"ງ":{"x_min":167,"x_max":670,"ha":836,"o":"m 167 633 q 222 749 167 710 q 427 789 277 789 q 670 433 670 789 l 670 10 q 617 -249 670 -168 q 426 -331 564 -331 q 241 -259 280 -331 q 193 -90 202 -187 l 321 -90 q 426 -229 343 -229 q 545 -64 545 -229 l 545 434 q 456 678 545 678 q 456 641 456 663 q 309 502 456 502 q 167 633 167 502 m 311 683 q 267 638 267 683 q 311 594 267 594 q 356 638 356 594 q 311 683 356 683 "},"e":{"x_min":83,"x_max":754,"ha":836,"o":"m 754 411 l 754 350 l 213 350 l 213 345 q 277 153 213 221 q 460 85 342 85 q 585 104 520 85 q 725 162 651 123 l 725 38 q 587 -5 653 9 q 459 -20 521 -20 q 182 86 282 -20 q 83 378 83 192 q 180 669 83 560 q 441 777 278 777 q 670 679 586 777 q 754 411 754 581 m 628 447 q 578 614 628 557 q 436 672 529 672 q 287 612 345 672 q 217 447 228 552 l 628 447 "},"⚜":{"x_min":29,"x_max":807,"ha":836,"o":"m 451 381 q 474 185 451 284 q 533 214 506 193 q 500 358 500 275 q 529 521 500 459 q 479 547 507 538 q 451 381 451 481 m 278 359 q 266 434 278 404 q 254 463 254 463 q 230 367 230 417 q 264 253 230 297 q 278 359 278 298 m 560 365 q 571 252 560 289 q 608 367 608 303 q 595 437 608 411 q 581 464 582 463 q 560 365 560 413 m 385 381 q 356 547 385 481 q 306 521 331 540 q 337 358 337 459 q 302 216 330 279 q 362 185 332 193 q 385 381 385 284 m 227 501 q 161 532 179 557 q 89 480 142 480 q 29 553 29 480 q 137 624 29 624 q 288 551 238 624 q 344 576 314 566 q 321 659 321 630 q 418 884 321 739 l 419 885 l 419 884 q 516 659 516 739 q 492 576 516 630 q 530 561 517 569 q 547 551 544 554 q 697 624 597 624 q 807 553 807 624 q 746 480 807 480 q 673 532 692 480 q 608 501 661 556 q 634 463 623 483 q 669 337 669 402 q 635 212 669 272 q 602 165 621 186 q 653 75 622 122 q 644 68 652 68 q 575 141 605 101 q 498 100 540 113 q 427 -1 442 79 l 408 -1 q 338 100 389 79 l 338 101 q 260 141 298 113 q 191 68 231 101 q 183 75 183 68 q 234 166 213 122 q 201 212 214 187 q 168 337 168 272 q 202 463 168 402 q 227 501 213 483 m 214 459 q 183 342 183 403 q 213 225 183 281 q 300 138 244 169 q 418 108 356 108 q 535 138 479 108 q 622 225 591 169 q 653 342 653 281 q 621 459 653 403 q 533 547 589 516 q 418 578 477 578 q 302 547 358 578 q 214 459 246 516 m 417 565 q 514 539 467 565 q 588 467 561 514 q 615 368 615 419 q 588 270 615 316 q 515 197 562 223 q 417 171 468 171 q 319 197 366 171 q 246 270 272 223 q 220 368 220 316 q 246 467 220 419 q 320 539 272 514 q 417 565 367 565 "},"⊏":{"x_min":60,"x_max":776.53125,"ha":836,"o":"m 60 789 l 776 789 l 776 674 l 175 674 l 175 196 l 776 196 l 776 81 l 60 81 l 60 789 "},"Ѓ":{"x_min":146,"x_max":772.96875,"ha":836,"o":"m 505 1287 l 631 1287 l 475 1109 l 371 1109 l 505 1287 m 146 0 l 146 1012 l 772 1012 l 772 897 l 284 897 l 284 0 l 146 0 "},"ﹳ":{"x_min":544,"x_max":850,"ha":836,"o":"m 669 225 q 702 154 669 187 q 799 125 732 125 l 850 125 l 850 0 l 761 0 q 603 62 665 0 q 544 216 544 121 l 544 246 l 669 246 l 669 225 "},"ò":{"x_min":93,"x_max":743.25,"ha":836,"o":"m 417 672 q 274 598 322 672 q 225 378 225 524 q 274 160 225 234 q 417 85 322 85 q 562 160 513 85 q 611 378 611 234 q 562 598 611 524 q 417 672 513 672 m 417 777 q 659 675 575 777 q 743 378 743 572 q 659 82 743 184 q 417 -20 576 -20 q 176 82 259 -20 q 93 378 93 184 q 176 675 93 572 q 417 777 259 777 m 323 1110 l 514 856 l 409 856 l 189 1110 l 323 1110 "},"ﺞ":{"x_min":60,"x_max":863.40625,"ha":836,"o":"m 423 68 l 525 68 l 525 -34 l 423 -34 l 423 68 m 836 125 l 863 125 l 863 0 l 830 0 q 659 101 742 0 q 562 275 603 169 q 508 406 558 285 q 364 335 431 390 q 213 40 213 211 q 263 -116 213 -53 q 537 -227 350 -227 q 812 -147 667 -227 l 812 -271 q 540 -340 710 -340 q 178 -207 293 -340 q 90 46 90 -104 q 233 372 90 221 q 391 477 299 441 q 215 462 323 477 q 60 422 123 450 l 60 547 q 379 590 247 590 q 710 553 577 590 l 710 448 q 615 440 636 448 l 634 378 q 718 205 669 270 q 836 125 779 125 "},"ℎ":{"x_min":56.515625,"x_max":743,"ha":836,"o":"m 728 470 l 637 0 l 512 0 l 603 471 q 605 480 604 473 q 616 555 616 528 q 584 639 616 610 q 493 669 552 669 q 347 605 407 669 q 264 429 287 542 l 181 0 l 56 0 l 262 1055 l 386 1055 l 308 645 q 418 744 358 711 q 544 778 477 778 q 690 728 638 778 q 743 591 743 679 q 739 537 743 569 q 728 470 735 505 "},"♻":{"x_min":38.578125,"x_max":797,"ha":836,"o":"m 364 732 l 561 732 q 608 689 591 732 l 645 626 l 695 654 l 699 654 l 699 652 q 610 501 619 512 l 437 501 l 437 504 q 488 536 486 531 l 388 716 q 364 729 370 729 l 364 732 m 311 727 q 386 680 365 727 l 411 636 l 313 469 q 163 556 177 546 q 250 703 239 688 q 311 727 275 727 m 711 510 q 797 358 797 369 l 797 337 q 747 256 797 286 q 720 252 740 252 l 656 252 q 560 419 648 260 q 674 487 572 431 l 711 510 m 215 474 q 303 321 302 328 l 246 353 q 146 177 148 185 l 146 156 l 148 142 l 145 142 l 42 318 l 38 334 q 81 416 40 351 q 95 442 95 436 l 44 472 l 44 474 l 160 474 l 215 474 m 530 297 l 531 297 l 531 238 l 731 238 q 763 251 748 238 l 765 251 q 663 69 765 246 q 634 58 650 58 l 531 58 l 531 0 l 528 0 l 443 148 l 530 297 m 395 238 l 398 235 l 398 60 l 395 58 l 248 58 q 165 123 189 58 l 163 147 q 205 238 163 171 l 395 238 "},"к":{"x_min":160,"x_max":815.25,"ha":836,"o":"m 160 760 l 289 760 l 289 444 l 616 760 l 768 760 l 469 473 l 815 0 l 662 0 l 381 392 l 289 304 l 289 0 l 160 0 l 160 760 "},"￼":{"x_min":0,"x_max":0,"ha":836},"┲":{"x_min":-13.8125,"x_max":849.484375,"ha":836,"o":"m 309 -419 l 309 336 l -13 336 l -13 453 l 309 453 l 309 511 l 849 511 l 849 278 l 526 278 l 526 -419 l 309 -419 "},"⁻":{"x_min":193,"x_max":645,"ha":836,"o":"m 193 729 l 645 729 l 645 665 l 193 665 l 193 729 "},"ṉ":{"x_min":132,"x_max":712,"ha":836,"o":"m 215 -142 l 621 -142 l 621 -242 l 215 -242 l 215 -142 m 712 470 l 712 0 l 587 0 l 587 470 q 551 620 587 572 q 438 669 515 669 q 304 606 351 669 q 257 429 257 544 l 257 0 l 132 0 l 132 760 l 257 760 l 257 645 q 347 744 290 710 q 481 778 403 778 q 654 701 597 778 q 712 470 712 625 "},"ᵒ":{"x_min":213,"x_max":623,"ha":836,"o":"m 417 829 q 326 787 357 829 q 296 665 296 746 q 326 542 296 584 q 417 501 357 501 q 509 542 478 501 q 540 665 540 584 q 509 787 540 746 q 417 829 478 829 m 265 830 q 417 888 318 888 q 570 830 517 888 q 623 665 623 773 q 570 498 623 555 q 417 442 517 442 q 265 498 318 442 q 213 665 213 555 q 265 830 213 773 "},"ˆ":{"x_min":201.421875,"x_max":634.765625,"ha":836,"o":"m 368 1111 l 467 1111 l 634 856 l 540 856 l 417 1022 l 295 856 l 201 856 l 368 1111 "},"ū":{"x_min":132,"x_max":712,"ha":836,"o":"m 214 1035 l 620 1035 l 620 935 l 214 935 l 214 1035 m 132 287 l 132 758 l 257 758 l 257 287 q 293 137 257 185 q 405 89 329 89 q 540 151 493 89 q 587 328 587 213 l 587 758 l 712 758 l 712 0 l 587 0 l 587 114 q 496 14 553 48 q 362 -20 439 -20 q 188 56 245 -20 q 132 287 132 132 "},"⚠":{"x_min":24.078125,"x_max":813,"ha":836,"o":"m 423 722 l 426 722 l 813 6 l 813 2 l 32 2 l 28 6 l 24 6 q 423 722 407 705 m 418 630 l 98 51 l 98 43 l 743 43 l 743 47 q 418 630 432 617 m 422 523 q 460 490 460 523 q 422 195 435 195 q 385 494 412 195 q 422 523 397 523 m 422 159 q 440 154 432 159 q 454 141 449 149 q 460 122 460 132 q 455 103 460 112 q 441 90 450 95 q 422 86 432 86 q 404 90 412 86 q 390 103 395 95 q 385 122 385 112 q 390 141 385 132 q 404 154 395 149 q 422 159 412 159 "},"☬":{"x_min":71,"x_max":766,"ha":836,"o":"m 418 930 q 510 883 459 930 l 499 873 l 490 796 q 601 717 569 768 q 636 613 636 666 q 508 428 636 489 l 508 382 l 434 382 l 434 307 q 597 387 509 307 q 682 609 682 485 q 604 790 682 719 l 617 802 l 620 802 q 766 538 766 698 q 673 164 766 358 q 548 273 598 273 q 514 245 514 273 q 588 136 514 227 q 609 82 609 111 q 573 46 600 46 q 528 66 533 40 q 432 245 491 214 l 432 151 q 484 32 432 106 q 419 -4 484 -4 q 350 33 350 -4 q 399 153 399 105 l 399 245 q 304 67 304 186 q 260 45 299 45 q 226 82 234 45 q 273 175 226 122 q 319 247 321 227 q 290 273 319 273 q 166 165 239 273 q 71 553 71 345 q 213 802 71 698 l 216 802 l 229 790 q 151 605 151 714 q 285 347 151 449 q 399 307 324 317 l 399 382 l 325 382 l 325 428 q 198 613 198 486 q 346 796 198 732 l 331 873 l 321 885 q 418 930 375 930 m 248 609 q 331 472 248 518 l 334 472 q 378 624 378 537 q 360 755 378 676 q 272 693 304 739 q 248 609 248 653 m 477 755 q 456 621 456 683 q 496 472 456 535 q 586 615 586 510 q 477 755 586 710 "},"ﺜ":{"x_min":-13,"x_max":850,"ha":836,"o":"m 411 58 q 214 0 359 0 l -13 0 l -13 125 l 176 125 q 316 154 286 125 q 349 259 349 188 l 349 407 l 474 407 l 474 259 q 508 154 474 188 q 648 125 538 125 l 850 125 l 850 0 l 610 0 q 411 58 465 0 m 364 822 l 466 822 l 466 720 l 364 720 l 364 822 m 449 653 l 551 653 l 551 551 l 449 551 l 449 653 m 279 653 l 381 653 l 381 551 l 279 551 l 279 653 "},"◸":{"x_min":4,"x_max":831.734375,"ha":836,"o":"m 81 139 l 638 697 l 81 697 l 81 139 m 4 -53 l 4 774 l 831 774 l 4 -53 "},"Ν":{"x_min":94,"x_max":742,"ha":836,"o":"m 94 1013 l 267 1013 l 609 179 l 609 1013 l 742 1013 l 742 0 l 568 0 l 226 833 l 226 0 l 94 0 l 94 1013 "},"✘":{"x_min":35,"x_max":802,"ha":836,"o":"m 695 897 q 728 879 712 897 q 745 832 740 866 q 766 829 760 832 q 793 813 785 822 q 802 793 802 805 q 792 760 802 769 q 510 445 649 630 q 685 227 598 324 q 696 202 696 217 q 678 158 696 174 q 644 148 666 148 q 634 116 643 137 q 601 82 620 82 q 562 96 579 82 q 549 79 557 85 q 512 63 528 63 q 482 79 498 63 q 358 249 430 136 q 169 13 221 94 q 147 -1 159 -1 q 124 20 135 -2 q 114 46 115 38 q 92 39 103 39 q 59 56 77 39 q 38 88 38 77 q 56 130 38 103 q 45 140 51 132 q 35 169 35 154 q 48 199 35 181 q 243 429 126 303 q 111 700 170 541 q 99 752 99 736 q 112 797 99 767 q 134 816 122 816 q 179 792 150 816 q 186 816 179 801 q 209 846 200 846 q 243 830 235 846 q 395 603 305 714 q 680 890 532 760 q 695 897 687 897 "},"ȝ":{"x_min":118,"x_max":719,"ha":836,"o":"m 530 312 q 616 283 578 306 q 675 230 654 260 q 707 169 696 199 q 719 114 719 140 q 696 17 719 64 q 637 -66 674 -29 q 549 -135 600 -102 q 444 -192 497 -168 q 330 -236 391 -216 q 218 -270 269 -257 q 118 -294 168 -283 l 118 -205 q 310 -142 227 -174 q 447 -78 394 -109 q 535 -14 501 -47 q 582 49 568 18 q 596 114 596 80 q 555 212 596 174 q 452 250 515 250 q 369 233 412 250 l 223 175 l 223 269 l 374 327 q 419 346 397 336 q 471 378 441 357 q 522 421 500 398 q 558 479 543 445 q 574 553 574 514 q 563 606 574 582 q 536 644 552 630 q 496 668 519 658 q 452 680 474 677 q 406 684 430 684 q 302 663 359 684 q 146 582 245 643 l 146 687 q 417 778 326 778 q 555 753 493 778 q 657 680 618 729 q 697 564 697 630 q 662 438 697 490 q 530 312 627 386 "},"☡":{"x_min":6.796875,"x_max":826.546875,"ha":836,"o":"m 512 1011 q 653 915 591 1011 q 682 810 682 863 q 613 650 682 716 l 250 237 l 244 195 q 297 117 244 135 l 781 259 q 826 193 826 259 l 826 191 q 771 131 826 131 l 296 -3 q 147 114 207 -3 q 133 188 133 150 l 133 204 q 209 371 133 298 q 562 775 552 756 q 569 808 569 793 q 514 884 569 862 l 508 884 l 44 746 q 6 800 12 746 l 6 820 q 61 872 6 863 l 68 872 l 512 1011 "},"ℕ":{"x_min":50,"x_max":784,"ha":836,"o":"m 715 68 l 243 945 l 118 945 l 590 68 l 715 68 m 50 1013 l 272 1013 l 732 165 l 732 1013 l 784 1013 l 784 0 l 561 0 l 102 847 l 102 0 l 50 0 l 50 1013 "},"ظ":{"x_min":7,"x_max":806,"ha":836,"o":"m 408 637 l 510 637 l 510 535 l 408 535 l 408 637 m 377 124 l 464 124 q 609 155 559 124 q 681 248 681 201 q 653 304 681 279 q 586 327 629 327 q 468 253 538 327 q 377 124 417 200 m 509 -1 l 158 -1 l 7 -1 l 7 124 l 159 124 l 159 1055 l 284 1055 l 284 195 q 368 323 335 282 q 569 444 465 444 q 747 388 685 444 q 806 253 806 335 q 681 49 806 124 q 509 -1 595 -1 "},"œ":{"x_min":9,"x_max":820,"ha":836,"o":"m 710 445 q 710 465 710 452 q 710 484 710 478 q 682 629 710 583 q 597 675 655 675 q 513 628 539 675 q 487 474 487 581 l 487 445 l 710 445 m 252 83 q 349 140 321 83 q 377 359 377 197 q 349 615 377 556 q 252 675 322 675 q 155 618 182 675 q 128 379 128 561 q 155 139 128 196 q 252 83 182 83 m 820 348 l 487 348 l 487 291 q 520 131 487 180 q 630 83 554 83 q 728 100 684 83 q 805 153 773 118 l 805 36 q 722 -6 764 7 q 630 -20 680 -20 q 513 2 563 -20 q 431 70 463 25 q 352 2 396 24 q 252 -20 309 -20 q 66 73 124 -20 q 9 379 9 167 q 66 684 9 590 q 252 778 124 778 q 356 756 312 778 q 431 691 399 735 q 500 755 456 733 q 603 778 544 778 q 771 697 722 778 q 820 409 820 617 l 820 348 "},"Ὲ":{"x_min":-251.1875,"x_max":747.75,"ha":836,"o":"m 134 1013 l 734 1013 l 734 898 l 271 898 l 271 597 l 714 597 l 714 482 l 271 482 l 271 115 l 747 115 l 747 0 l 134 0 l 134 1013 m -116 1111 l 73 856 l -30 856 l -251 1111 l -116 1111 "},"⇦":{"x_min":16.609375,"x_max":791,"ha":836,"o":"m 216 512 l 84 380 l 216 248 l 216 311 l 744 311 l 744 450 l 216 450 l 216 512 m 270 127 l 16 380 l 270 633 l 270 497 l 791 497 l 791 264 l 270 264 l 270 127 "},"Ɵ":{"x_min":79,"x_max":756,"ha":836,"o":"m 756 505 q 672 110 756 240 q 417 -20 588 -20 q 162 109 245 -20 q 79 505 79 239 q 162 900 79 770 q 417 1031 246 1031 q 672 900 588 1031 q 756 505 756 770 m 610 561 q 567 824 610 740 q 415 920 521 920 q 265 824 311 920 q 225 561 225 740 l 610 561 m 225 436 q 267 186 225 266 q 417 91 313 91 q 567 186 521 91 q 608 436 608 265 l 225 436 "},"ᵛ":{"x_min":197.34375,"x_max":638.828125,"ha":836,"o":"m 197 878 l 278 878 l 417 521 l 557 878 l 638 878 l 468 453 l 367 453 l 197 878 "},"ș":{"x_min":144.078125,"x_max":698,"ha":836,"o":"m 340 -134 l 502 -134 l 375 -368 l 276 -368 l 340 -134 m 659 732 l 659 610 q 551 657 605 641 q 441 673 497 673 q 314 645 356 673 q 273 561 273 618 q 304 485 273 510 q 459 436 335 460 l 509 427 q 650 356 602 409 q 698 219 698 303 q 618 43 698 106 q 395 -20 538 -20 q 277 -8 339 -20 q 144 27 215 3 l 144 155 q 277 101 214 119 q 398 84 341 84 q 526 117 481 84 q 572 211 572 151 q 405 331 572 298 l 400 333 l 353 342 q 196 413 245 363 q 147 549 147 463 q 220 717 147 658 q 431 777 294 777 q 549 765 492 777 q 659 732 605 754 "},"♓":{"x_min":63.9375,"x_max":771.734375,"ha":836,"o":"m 489 398 l 345 398 q 162 4 326 196 l 63 4 q 262 397 246 212 l 87 397 l 87 499 l 262 499 q 63 890 245 682 l 162 890 q 345 500 326 699 l 489 500 q 673 890 508 699 l 771 890 q 573 499 589 682 l 748 499 l 748 397 l 571 397 q 771 4 589 212 l 673 4 q 489 397 507 195 l 489 398 "},"◺":{"x_min":4,"x_max":831.734375,"ha":836,"o":"m 81 24 l 638 24 l 81 581 l 81 24 m 4 -53 l 4 774 l 831 -53 l 4 -53 "},"ἱ":{"x_min":210.59375,"x_max":662,"ha":836,"o":"m 481 760 l 481 268 q 503 138 481 169 q 601 105 527 105 l 662 105 l 662 0 l 586 0 q 408 65 463 0 q 353 275 353 131 l 353 663 l 210 663 l 210 760 l 481 760 m 337 1000 l 337 1119 l 499 1119 l 499 1000 l 403 1000 q 499 894 403 894 l 499 826 q 337 1000 337 826 "},"Ȫ":{"x_min":79,"x_max":756,"ha":836,"o":"m 216 1184 l 354 1184 l 354 1046 l 216 1046 l 216 1184 m 482 1184 l 619 1184 l 619 1046 l 482 1046 l 482 1184 m 214 1324 l 620 1324 l 620 1224 l 214 1224 l 214 1324 m 613 505 q 567 824 613 728 q 417 920 521 920 q 267 824 313 920 q 222 505 222 728 q 267 186 222 282 q 417 91 313 91 q 567 186 521 91 q 613 505 613 281 m 756 505 q 672 110 756 240 q 417 -20 588 -20 q 162 109 245 -20 q 79 505 79 239 q 162 900 79 770 q 417 1031 246 1031 q 672 900 588 1031 q 756 505 756 770 "},"ˈ":{"x_min":372,"x_max":464,"ha":836,"o":"m 464 1054 l 464 678 l 372 678 l 372 1054 l 464 1054 "},"ɘ":{"x_min":83,"x_max":754,"ha":836,"o":"m 83 411 q 166 679 83 581 q 395 777 250 777 q 656 669 558 777 q 754 378 754 560 q 654 86 754 192 q 377 -20 554 -20 q 249 -5 315 -20 q 112 38 183 9 l 112 162 q 251 104 186 123 q 376 85 316 85 q 559 153 494 85 q 624 345 624 221 l 624 350 l 83 350 l 83 411 m 208 447 l 619 447 q 550 612 608 552 q 401 672 491 672 q 258 614 309 672 q 208 447 208 556 "},"₈":{"x_min":214,"x_max":623,"ha":836,"o":"m 418 269 q 330 239 361 269 q 299 159 299 211 q 330 78 299 107 q 418 49 362 49 q 506 77 476 49 q 538 159 538 106 q 506 239 538 211 q 418 269 474 269 m 344 301 q 259 347 289 313 q 229 429 229 381 q 279 536 229 496 q 418 576 330 576 q 557 536 506 576 q 608 429 608 496 q 577 347 608 381 q 492 301 547 313 q 589 250 556 288 q 623 151 623 212 q 568 32 623 75 q 418 -11 514 -11 q 268 31 322 -11 q 214 151 214 75 q 247 250 214 212 q 344 301 280 288 m 314 422 q 340 353 314 377 q 418 329 367 329 q 496 353 469 329 q 523 422 523 377 q 496 492 523 468 q 418 517 470 517 q 340 492 367 517 q 314 422 314 468 "},"ạ":{"x_min":90,"x_max":718,"ha":836,"o":"m 348 -142 l 487 -142 l 487 -280 l 348 -280 l 348 -142 m 475 382 l 434 382 q 270 343 325 382 q 215 229 215 305 q 256 122 215 160 q 370 85 297 85 q 533 156 474 85 q 592 354 592 228 l 592 382 l 475 382 m 718 433 l 718 0 l 592 0 l 592 112 q 491 12 552 44 q 344 -19 431 -19 q 159 46 228 -19 q 90 221 90 111 q 175 414 90 348 q 425 480 260 480 l 592 480 l 592 499 q 546 631 592 590 q 401 672 501 672 q 272 653 337 672 q 146 600 207 635 l 146 725 q 278 764 215 751 q 401 778 341 778 q 562 750 495 778 q 670 666 629 722 q 707 583 696 632 q 718 433 718 533 "},"❥":{"x_min":77,"x_max":758.5625,"ha":836,"o":"m 758 441 q 473 112 616 358 q 300 -2 405 -2 q 214 13 256 -2 q 142 62 174 29 q 93 134 111 93 q 77 218 77 172 q 93 302 77 264 q 142 375 110 343 q 214 423 173 406 q 300 441 254 440 q 214 457 254 441 q 142 505 173 474 q 93 578 110 538 q 77 662 77 616 q 93 746 77 707 q 142 818 111 786 q 214 867 174 851 q 300 884 256 884 q 473 769 407 884 q 758 441 616 521 "},"⇖":{"x_min":105,"x_max":730.8125,"ha":836,"o":"m 269 501 l 191 501 l 191 422 l 612 0 l 573 -38 l 191 344 l 191 268 l 105 268 l 105 547 l 144 587 l 423 587 l 423 501 l 349 501 l 730 118 l 691 79 l 269 501 "},"д":{"x_min":71,"x_max":765,"ha":836,"o":"m 682 102 l 765 102 l 765 -194 l 663 -194 l 663 0 l 173 0 l 173 -194 l 71 -194 l 71 102 l 116 102 q 165 255 165 102 q 165 477 165 409 l 165 760 l 682 760 l 682 102 m 557 102 l 557 658 l 290 658 l 290 474 q 290 239 290 407 q 280 130 290 142 q 271 110 271 119 q 294 102 271 102 l 557 102 "},"ӥ":{"x_min":132,"x_max":712,"ha":836,"o":"m 216 1053 l 354 1053 l 354 916 l 216 916 l 216 1053 m 482 1053 l 619 1053 l 619 916 l 482 916 l 482 1053 m 587 548 l 257 0 l 132 0 l 132 760 l 257 760 l 257 211 l 587 760 l 712 760 l 712 0 l 587 0 l 587 548 "},"ʛ":{"x_min":37,"x_max":768,"ha":836,"o":"m 487 120 l 487 312 l 408 312 l 408 407 l 602 407 l 602 48 q 490 12 601 46 q 348 0 451 0 q 121 107 205 0 q 37 398 37 216 q 123 691 37 582 q 355 797 207 797 q 438 785 390 797 q 464 778 455 781 l 464 778 q 506 988 464 925 q 639 1054 546 1054 l 768 1054 l 768 948 l 680 948 q 606 915 627 948 q 588 778 588 881 l 588 678 l 587 678 l 587 606 q 439 676 567 631 q 358 692 396 692 q 217 614 268 692 q 167 398 167 538 q 217 183 167 259 q 358 105 268 105 q 487 120 447 105 "},"۴":{"x_min":118.875,"x_max":718,"ha":836,"o":"m 372 708 q 370 731 370 718 q 429 852 370 813 q 565 894 492 894 q 681 876 622 894 l 681 770 q 573 794 619 794 q 515 771 535 794 q 494 734 494 748 q 510 685 494 699 q 575 659 542 659 q 718 671 622 659 l 718 549 q 544 532 585 532 q 349 587 448 532 q 383 437 367 515 q 405 0 405 332 l 283 0 q 257 437 283 288 q 118 882 224 633 l 253 882 q 300 773 298 777 q 372 708 319 735 "},"┆":{"x_min":363,"x_max":472,"ha":836,"o":"m 363 -419 l 363 110 l 472 110 l 472 -419 l 363 -419 m 363 232 l 363 700 l 472 700 l 472 232 l 363 232 m 363 822 l 363 1351 l 472 1351 l 472 822 l 363 822 "},"➱":{"x_min":28.125,"x_max":806.96875,"ha":836,"o":"m 105 424 l 28 594 l 53 647 l 473 647 l 473 676 l 498 728 l 554 728 l 806 475 l 781 424 l 528 171 l 473 171 l 473 254 l 28 254 l 105 424 m 152 424 l 93 295 l 514 295 l 514 213 l 724 424 l 514 635 l 514 553 l 93 553 l 152 424 "},"Ḙ":{"x_min":134,"x_max":747.75,"ha":836,"o":"m 380 -74 l 480 -74 l 647 -328 l 553 -328 l 430 -162 l 308 -328 l 214 -328 l 380 -74 m 134 1013 l 734 1013 l 734 898 l 271 898 l 271 597 l 714 597 l 714 482 l 271 482 l 271 115 l 747 115 l 747 0 l 134 0 l 134 1013 "},"≵":{"x_min":58,"x_max":775,"ha":836,"o":"m 435 407 l 601 456 l 464 496 l 435 407 m 498 599 l 775 513 l 775 399 l 393 279 l 353 154 q 420 129 369 150 q 442 119 427 127 q 584 83 521 83 q 677 103 631 83 q 775 166 724 123 l 775 47 q 675 -10 726 9 q 573 -30 627 -30 q 435 4 512 -30 q 413 14 420 11 q 318 47 359 38 l 248 -164 l 138 -129 l 196 46 q 155 34 175 42 q 58 -30 107 13 l 58 88 q 160 148 110 129 q 235 165 196 161 l 258 236 l 58 173 l 58 297 l 301 368 l 354 527 l 58 612 l 58 737 l 389 633 l 467 873 l 576 837 l 498 599 "},"ھ":{"x_min":0,"x_max":794,"ha":836,"o":"m 404 28 q 224 0 323 0 q 79 24 125 0 q 0 154 0 68 q 10 241 0 205 l 135 241 q 126 172 126 202 q 146 135 126 143 q 204 125 176 125 q 292 132 244 125 q 251 250 261 203 q 239 346 239 303 q 270 459 239 403 q 354 514 302 520 q 270 550 324 541 l 270 676 q 567 508 418 630 q 784 216 744 363 q 794 142 794 181 q 766 31 794 72 q 598 -45 716 -45 q 404 28 509 -45 m 419 182 q 466 244 443 200 q 493 334 493 293 q 482 390 493 365 q 428 426 467 426 q 368 395 384 426 q 354 342 354 366 q 358 297 354 322 q 419 182 372 217 m 594 344 q 599 293 599 319 q 532 122 599 199 q 512 100 524 112 q 581 69 547 69 q 677 114 666 69 q 682 157 682 134 q 659 250 682 197 q 594 344 640 297 "},"∍":{"x_min":88,"x_max":748,"ha":836,"o":"m 89 377 l 89 492 l 623 492 q 566 580 608 541 q 408 643 499 643 l 88 643 l 88 758 l 408 758 q 578 714 500 758 q 702 597 657 671 q 748 434 748 522 q 702 272 748 347 q 578 155 657 198 q 408 112 500 112 l 88 112 l 88 227 l 408 227 q 566 288 499 227 q 623 377 608 327 l 89 377 "},"✡":{"x_min":48.15625,"x_max":788.03125,"ha":836,"o":"m 417 856 l 541 642 l 788 642 l 664 428 l 788 215 l 541 215 l 417 1 l 294 215 l 48 215 l 171 428 l 48 642 l 294 642 l 417 856 m 326 587 l 235 428 l 326 270 l 509 270 l 600 428 l 509 587 l 326 587 m 417 745 l 358 642 l 477 642 l 417 745 m 573 587 l 632 483 l 692 587 l 573 587 m 632 373 l 573 270 l 692 270 l 632 373 m 477 215 l 358 215 l 417 111 l 477 215 m 263 270 l 203 373 l 143 270 l 263 270 m 203 483 l 263 587 l 143 587 l 203 483 "},"𝚝":{"x_min":89,"x_max":700,"ha":836,"o":"m 417 975 l 417 760 l 700 760 l 700 663 l 417 663 l 417 250 q 448 133 417 166 q 559 100 480 100 l 700 100 l 700 0 l 547 0 q 349 56 407 0 q 292 250 292 112 l 292 663 l 89 663 l 89 760 l 292 760 l 292 975 l 417 975 "},"ữ":{"x_min":26,"x_max":809,"ha":836,"o":"m 308 929 l 270 966 q 244 986 255 980 q 223 993 233 993 q 185 967 197 993 q 173 887 173 942 l 88 887 q 122 1028 88 978 q 219 1079 157 1079 q 267 1069 246 1079 q 314 1037 289 1060 l 353 1000 q 379 980 367 986 q 399 974 390 974 q 437 999 425 974 q 450 1079 450 1024 l 535 1079 q 500 938 535 988 q 403 888 465 888 q 355 897 377 888 q 308 929 333 906 m 541 591 l 541 671 q 612 626 582 641 q 663 612 642 612 q 710 630 694 612 q 726 686 726 649 q 720 728 726 707 q 705 770 715 749 l 795 770 q 805 721 802 744 q 809 678 809 698 q 779 556 809 595 q 686 518 749 518 q 618 535 654 518 q 541 591 583 553 m 26 287 l 26 758 l 151 758 l 151 287 q 187 137 151 185 q 299 89 223 89 q 433 151 387 89 q 480 328 480 213 l 480 758 l 606 758 l 606 0 l 480 0 l 480 114 q 390 14 447 48 q 256 -20 333 -20 q 82 56 139 -20 q 26 287 26 132 "},"ʐ":{"x_min":131.171875,"x_max":704,"ha":836,"o":"m 144 760 l 604 760 l 604 645 l 252 100 l 617 100 l 617 -13 q 631 -150 617 -117 q 685 -183 646 -183 l 704 -183 l 704 -289 l 668 -289 q 535 -223 576 -289 q 494 -13 494 -158 l 494 0 l 131 0 l 131 114 l 483 660 l 144 660 l 144 760 "},"ﺓ":{"x_min":151,"x_max":685,"ha":836,"o":"m 357 376 q 290 317 312 376 q 273 187 273 270 q 310 101 273 131 q 387 72 349 72 q 513 110 449 72 q 564 199 564 141 q 519 295 564 251 q 357 376 435 376 m 332 498 q 589 389 466 498 q 685 205 685 305 q 585 18 685 69 q 384 -39 473 -39 q 264 -15 319 -39 q 151 197 151 34 q 176 372 151 319 q 332 498 232 498 m 415 713 l 517 713 l 517 611 l 415 611 l 415 713 m 246 713 l 348 713 l 348 611 l 246 611 l 246 713 "},"ὂ":{"x_min":93,"x_max":743.25,"ha":836,"o":"m 417 672 q 274 598 322 672 q 225 378 225 524 q 274 160 225 234 q 417 85 322 85 q 562 160 513 85 q 611 378 611 234 q 562 598 611 524 q 417 672 513 672 m 417 777 q 659 675 575 777 q 743 378 743 572 q 659 82 743 184 q 417 -20 576 -20 q 176 82 259 -20 q 93 378 93 184 q 176 675 93 572 q 417 777 259 777 m 330 1000 q 166 826 330 826 l 166 894 q 263 1000 263 894 l 166 1000 l 166 1119 l 330 1119 l 330 1000 m 492 1110 l 683 856 l 579 856 l 358 1110 l 492 1110 "},"↟":{"x_min":192.453125,"x_max":642.546875,"ha":836,"o":"m 362 373 l 253 264 l 192 325 l 362 495 l 362 597 l 253 488 l 192 549 l 390 747 l 445 747 l 642 549 l 581 488 l 473 597 l 473 495 l 642 325 l 581 264 l 473 373 l 473 0 l 362 0 l 362 373 "},"î":{"x_min":121,"x_max":741,"ha":836,"o":"m 173 760 l 493 760 l 493 97 l 741 97 l 741 0 l 121 0 l 121 97 l 368 97 l 368 663 l 173 663 l 173 760 m 368 1111 l 467 1111 l 635 856 l 540 856 l 417 1022 l 295 856 l 201 856 l 368 1111 "},"ύ":{"x_min":34.59375,"x_max":766,"ha":836,"o":"m 428 105 q 595 226 532 105 q 636 433 636 306 q 619 589 636 502 q 532 758 604 670 l 659 758 l 659 758 q 737 614 706 697 q 766 432 766 536 q 679 142 766 279 q 410 -1 588 -1 q 232 64 288 -1 q 177 274 177 130 l 177 662 l 34 662 l 34 759 l 305 759 l 305 267 q 328 137 305 168 q 428 105 352 105 m 512 1110 l 646 1110 l 426 856 l 321 856 l 512 1110 "},"ັ":{"x_min":-774,"x_max":-74,"ha":836,"o":"m -74 1061 q -417 887 -74 887 q -707 943 -641 887 q -774 1073 -774 1000 q -619 1220 -774 1220 q -456 1073 -456 1220 q -481 994 -456 1019 q -414 992 -458 992 q -222 1050 -222 992 q -280 1129 -222 1081 l -186 1222 q -74 1061 -74 1125 m -615 1031 q -575 1073 -575 1031 q -619 1116 -575 1116 q -658 1073 -658 1116 q -615 1031 -658 1031 "},"⍄":{"x_min":4,"x_max":832,"ha":836,"o":"m 4 -138 l 4 1151 l 832 1151 l 832 -138 l 4 -138 m 81 -61 l 755 -61 l 755 438 l 81 172 l 81 -61 m 81 711 l 81 295 l 636 502 l 81 711 m 81 834 l 755 568 l 755 1074 l 81 1074 l 81 834 "},"ϰ":{"x_min":35.09375,"x_max":792,"ha":836,"o":"m 333 277 q 132 14 268 97 q 72 -9 95 -9 q 35 44 35 -9 q 232 328 35 148 q 275 505 275 422 q 265 581 275 544 q 151 652 247 652 q 51 578 112 652 l 51 730 q 156 763 94 763 q 192 760 174 763 q 386 518 386 735 q 366 404 386 457 l 494 478 q 694 742 559 658 q 754 765 731 765 q 792 711 792 765 q 595 427 792 607 q 553 250 553 333 q 562 174 553 211 q 676 104 580 104 q 776 177 715 104 l 776 25 q 671 -7 733 -7 q 635 -4 653 -7 q 442 237 442 20 q 461 351 442 298 l 333 277 "},"⎞":{"x_min":190.515625,"x_max":646.25,"ha":836,"o":"m 514 -358 l 514 -199 q 427 694 514 334 q 190 1307 366 950 l 299 1307 q 537 751 411 1131 q 646 -199 646 424 l 646 -358 l 514 -358 "},"ڑ":{"x_min":-35,"x_max":836,"ha":836,"o":"m 611 104 q 618 192 618 143 q 582 370 618 277 l 707 370 q 741 199 741 289 q 735 101 741 143 q 483 -241 707 -123 q -35 -339 298 -339 l -35 -217 q 415 -130 266 -217 q 611 104 588 -31 m 623 538 l 660 538 q 728 546 713 538 q 765 583 765 569 q 744 615 765 604 q 695 597 734 612 q 623 538 660 584 m 677 469 l 558 469 l 482 469 l 482 538 l 537 538 l 537 808 l 606 808 l 606 590 q 701 667 630 640 q 791 666 744 683 q 836 593 836 649 q 792 497 836 531 q 677 469 755 469 "},"ɓ":{"x_min":131,"x_max":754,"ha":836,"o":"m 622 378 q 575 598 622 524 q 440 672 529 672 q 302 597 349 672 q 256 378 256 523 q 302 160 256 235 q 440 85 349 85 q 575 159 529 85 q 622 378 622 233 m 256 662 q 338 747 285 718 q 459 777 390 777 q 675 672 596 777 q 754 381 754 566 q 675 86 754 193 q 458 -20 596 -20 q 339 9 390 -20 q 256 95 287 38 l 256 0 l 131 0 l 131 779 q 191 983 131 911 q 364 1055 252 1055 l 503 1055 l 503 949 l 378 949 q 286 906 317 949 q 256 779 256 864 l 256 662 "},"ﭽ":{"x_min":-13,"x_max":866,"ha":836,"o":"m 357 -305 l 458 -305 l 458 -203 l 357 -203 l 357 -305 m 441 -135 l 543 -135 l 543 -33 l 441 -33 l 441 -135 m 272 -135 l 373 -135 l 373 -33 l 272 -33 l 272 -135 m 433 529 q 757 427 607 494 l 757 323 q 663 281 712 309 q 717 205 697 228 q 825 125 788 125 l 866 125 l 866 0 l 811 0 q 625 114 709 0 q 557 216 597 150 q 483 160 511 185 q 334 54 384 72 q 73 0 184 0 l -13 0 l -13 125 l 54 125 q 296 173 208 125 q 445 285 366 213 q 577 367 509 343 q 451 398 521 382 q 272 422 393 411 q 107 425 216 425 l 107 548 q 206 553 155 553 q 433 529 316 553 "},"ﭞ":{"x_min":47,"x_max":814,"ha":836,"o":"m 796 365 q 814 227 814 316 q 701 61 814 143 q 409 -14 598 -14 q 153 24 257 -14 q 47 217 47 64 q 74 343 47 259 l 199 343 q 170 216 170 249 q 249 122 170 143 q 405 106 316 106 q 605 150 533 106 q 689 273 689 201 q 672 365 689 317 l 796 365 m 385 479 l 487 479 l 487 377 l 385 377 l 385 479 m 385 649 l 487 649 l 487 547 l 385 547 l 385 649 "},"ǫ":{"x_min":93,"x_max":743.25,"ha":836,"o":"m 377 -11 l 457 -11 q 412 -82 427 -52 q 398 -133 398 -112 q 416 -180 398 -164 q 471 -196 435 -196 q 514 -190 493 -196 q 556 -175 535 -185 l 556 -265 q 507 -275 530 -272 q 464 -279 484 -279 q 342 -249 381 -279 q 304 -156 304 -219 q 321 -88 304 -124 q 377 -11 339 -53 m 417 672 q 274 598 322 672 q 225 379 225 524 q 274 160 225 234 q 417 86 322 86 q 562 160 513 86 q 611 379 611 234 q 562 598 611 524 q 417 672 513 672 m 417 777 q 659 675 575 777 q 743 378 743 572 q 659 82 743 184 q 417 -20 576 -20 q 176 82 259 -20 q 93 378 93 184 q 176 675 93 572 q 417 777 259 777 "},"₠":{"x_min":7,"x_max":833.265625,"ha":836,"o":"m 466 289 q 380 233 425 252 q 284 214 335 214 q 81 322 156 214 q 7 618 7 430 q 81 914 7 806 q 284 1023 156 1023 q 381 1004 336 1023 q 466 947 426 985 l 466 837 q 383 911 427 887 q 289 935 339 935 q 139 854 191 935 q 88 618 88 773 q 139 382 88 463 q 289 302 191 302 q 383 326 339 302 q 466 399 427 350 l 466 763 l 826 763 l 826 674 l 543 674 l 543 444 l 814 444 l 814 355 l 543 355 l 543 73 l 833 73 l 833 -16 l 466 -16 l 466 289 "},"𝚚":{"x_min":93,"x_max":715,"ha":836,"o":"m 225 376 q 271 156 225 230 q 406 83 316 83 q 543 157 497 83 q 590 376 590 231 q 543 594 590 520 q 406 669 497 669 q 271 595 316 669 q 225 376 225 521 m 590 93 q 507 7 559 37 q 387 -22 455 -22 q 171 82 250 -22 q 93 373 93 188 q 171 668 93 561 q 387 775 250 775 q 506 745 455 775 q 590 659 558 716 l 590 757 l 715 757 l 715 -292 l 590 -292 l 590 93 "},"ﭷ":{"x_min":60,"x_max":864.046875,"ha":836,"o":"m 836 125 l 864 125 l 864 0 l 830 0 q 659 101 743 0 q 562 275 604 169 q 509 406 558 285 q 365 335 431 390 q 213 40 213 211 q 263 -116 213 -53 q 537 -227 350 -227 q 812 -147 668 -227 l 812 -271 q 540 -340 710 -340 q 178 -207 293 -340 q 90 46 90 -104 q 233 372 90 221 q 392 477 299 441 q 215 462 323 477 q 60 422 123 450 l 60 547 q 379 590 247 590 q 710 553 577 590 l 710 448 q 615 440 636 448 l 635 378 q 718 205 669 270 q 836 125 779 125 m 543 85 l 645 85 l 645 -17 l 543 -17 l 543 85 m 373 85 l 475 85 l 475 -17 l 373 -17 l 373 85 "},"⌅":{"x_min":99.21875,"x_max":737.09375,"ha":836,"o":"m 106 617 l 731 617 l 731 540 l 106 540 l 106 617 m 418 472 l 737 0 l 626 0 l 418 308 l 209 0 l 99 0 l 418 472 "},"↨":{"x_min":193,"x_max":643,"ha":836,"o":"m 363 111 l 193 280 l 254 341 l 363 233 l 363 596 l 254 488 l 193 549 l 391 746 l 446 746 l 643 549 l 582 488 l 474 596 l 474 233 l 582 341 l 643 280 l 474 111 l 643 111 l 643 0 l 193 0 l 193 111 l 363 111 "},"Ξ":{"x_min":93,"x_max":743,"ha":836,"o":"m 743 1013 l 743 898 l 93 898 l 93 1013 l 743 1013 m 606 482 l 231 482 l 231 597 l 606 597 l 606 482 m 743 115 l 743 0 l 93 0 l 93 115 l 743 115 "},"⎩":{"x_min":355,"x_max":825,"ha":836,"o":"m 481 1306 l 481 17 q 519 -145 481 -87 q 634 -215 565 -215 l 825 -215 l 825 -334 l 638 -334 q 430 -226 513 -334 q 355 22 355 -129 l 355 1306 l 481 1306 "},"ٻ":{"x_min":47,"x_max":814,"ha":836,"o":"m 358 -237 l 460 -237 l 460 -339 l 358 -339 l 358 -237 m 358 -68 l 460 -68 l 460 -170 l 358 -170 l 358 -68 m 796 366 q 814 228 814 317 q 701 62 814 144 q 409 -13 598 -13 q 153 25 257 -13 q 47 217 47 65 q 74 343 47 259 l 199 343 q 170 217 170 249 q 249 123 170 144 q 405 107 316 107 q 605 150 533 107 q 689 274 689 202 q 672 366 689 317 l 796 366 "},"ŵ":{"x_min":0,"x_max":836.1875,"ha":836,"o":"m 368 1116 l 467 1116 l 634 861 l 540 861 l 417 1027 l 295 861 l 201 861 l 368 1116 m 0 760 l 123 760 l 255 145 l 364 538 l 470 538 l 580 145 l 712 760 l 836 760 l 658 0 l 539 0 l 417 416 l 297 0 l 177 0 l 0 760 "},"ڤ":{"x_min":-49,"x_max":790,"ha":836,"o":"m 509 973 l 611 973 l 611 871 l 509 871 l 509 973 m 594 803 l 696 803 l 696 701 l 594 701 l 594 803 m 424 803 l 526 803 l 526 701 l 424 701 l 424 803 m 632 299 q 660 380 660 328 q 615 454 660 418 q 564 472 594 472 q 502 443 529 472 q 475 380 475 414 q 511 300 475 324 q 567 283 537 283 q 632 299 616 283 m 722 47 q 537 -34 650 -9 q 304 -62 416 -62 q 116 -34 194 -62 q -49 213 -49 25 q -26 369 -49 306 l 98 369 q 74 213 74 305 q 155 83 74 113 q 305 60 216 60 q 448 74 391 60 q 608 127 576 108 q 678 225 652 155 q 553 174 635 174 q 411 220 463 174 q 346 366 346 278 q 351 431 346 396 q 468 578 366 532 q 572 603 521 603 q 678 569 633 603 q 774 451 743 520 q 790 322 790 416 q 722 47 790 101 "},"ᾚ":{"x_min":-476.296875,"x_max":745,"ha":836,"o":"m 94 1013 l 232 1013 l 232 597 l 607 597 l 607 1013 l 745 1013 l 745 0 l 607 0 l 607 482 l 232 482 l 232 0 l 94 0 l 94 1013 m -313 1000 q -476 826 -313 826 l -476 894 q -380 1000 -380 894 l -476 1000 l -476 1119 l -313 1119 l -313 1000 m -150 1111 l 40 856 l -64 856 l -284 1111 l -150 1111 m 518 -289 l 428 -289 q 369 -164 369 -289 l 369 -62 l 470 -62 l 470 -173 q 504 -244 470 -244 l 518 -244 l 518 -289 "},"╠":{"x_min":255,"x_max":850.234375,"ha":836,"o":"m 472 453 l 472 1351 l 581 1351 l 581 570 l 850 570 l 850 453 l 472 453 m 255 -419 l 255 1351 l 364 1351 l 364 -419 l 255 -419 m 472 -418 l 472 337 l 850 337 l 850 220 l 581 220 l 581 -418 l 472 -418 "},"№":{"x_min":6.578125,"x_max":829,"ha":836,"o":"m 589 348 q 709 529 589 529 q 829 348 829 529 q 709 167 829 167 q 589 348 589 167 m 709 441 q 675 348 675 441 q 709 255 675 255 q 744 348 744 255 q 709 441 744 441 m 589 100 l 829 100 l 829 0 l 589 0 l 589 100 m 90 207 l 90 1012 l 256 1012 l 394 199 l 394 805 q 423 953 394 894 q 602 1013 453 1013 l 602 888 q 531 866 544 888 q 519 805 519 845 l 519 0 l 352 0 l 215 813 l 215 207 q 185 59 215 118 q 6 0 155 0 l 6 125 q 77 146 64 125 q 90 207 90 167 "},"╹":{"x_min":309,"x_max":526,"ha":836,"o":"m 309 395 l 309 1351 l 526 1351 l 526 395 l 309 395 "},"ẏ":{"x_min":70.75,"x_max":782,"ha":836,"o":"m 348 1052 l 487 1052 l 487 914 l 348 914 l 348 1052 m 581 243 q 502 34 550 164 q 412 -183 435 -144 q 334 -262 381 -236 q 225 -289 287 -289 l 125 -289 l 125 -185 l 198 -185 q 284 -153 253 -185 q 364 11 316 -121 l 70 759 l 202 759 l 428 165 l 649 760 l 782 760 l 581 243 "},"┍":{"x_min":363,"x_max":849.75,"ha":836,"o":"m 363 -419 l 363 511 l 849 511 l 849 278 l 472 278 l 472 -419 l 363 -419 "},"ƫ":{"x_min":89,"x_max":700,"ha":836,"o":"m 417 975 l 417 760 l 700 760 l 700 663 l 417 663 l 417 250 q 448 133 417 166 q 560 100 480 100 l 700 100 l 700 0 l 700 -13 q 639 -217 700 -145 q 466 -289 578 -289 l 328 -289 l 328 -183 l 453 -183 q 545 -141 514 -183 q 575 -13 575 -99 l 575 0 l 547 0 q 349 56 407 0 q 292 250 292 112 l 292 663 l 89 663 l 89 760 l 292 760 l 292 975 l 417 975 "},"ί":{"x_min":210.59375,"x_max":662,"ha":836,"o":"m 481 760 l 481 268 q 504 138 481 169 q 601 105 528 105 l 662 105 l 662 0 l 586 0 q 408 65 463 0 q 353 275 353 131 l 353 663 l 210 663 l 210 760 l 481 760 m 513 1111 l 647 1111 l 427 856 l 322 856 l 513 1111 "},"؇":{"x_min":32.890625,"x_max":796.484375,"ha":836,"o":"m 605 1242 l 605 1179 q 509 1152 552 1172 q 451 1102 451 1127 q 490 1067 451 1089 q 557 1049 523 1049 l 557 986 q 461 957 519 986 q 414 889 414 933 q 434 836 414 858 q 491 808 460 808 q 571 816 533 808 q 661 845 624 828 l 661 770 q 578 745 630 756 q 491 737 534 737 q 379 784 427 737 q 337 889 337 827 q 383 989 337 940 q 447 1027 410 1017 q 397 1057 417 1039 q 374 1103 374 1079 q 469 1209 374 1160 q 605 1242 518 1232 m 768 496 l 661 532 l 494 -26 l 408 -26 l 64 1061 l 32 1061 l 32 1150 l 133 1150 l 450 152 l 598 648 l 796 581 l 768 496 "},"5":{"x_min":97,"x_max":725,"ha":836,"o":"m 140 1012 l 652 1012 l 652 897 l 265 897 l 265 648 q 323 663 294 658 q 383 669 353 669 q 632 576 540 669 q 725 324 725 483 q 628 72 725 164 q 364 -20 531 -20 q 216 -9 283 -20 q 97 23 149 1 l 97 162 q 222 111 159 128 q 350 95 285 95 q 525 154 464 95 q 587 324 587 214 q 523 493 587 433 q 346 554 460 554 q 239 541 291 554 q 140 503 187 528 l 140 1012 "},"̆":{"x_min":209,"x_max":627,"ha":836,"o":"m 209 1091 l 286 1091 q 326 1014 293 1039 q 418 989 358 989 q 508 1014 475 989 q 550 1091 540 1039 l 627 1091 q 572 944 627 993 q 417 896 517 896 q 263 944 318 896 q 209 1091 209 993 "},"₩":{"x_min":0,"x_max":836,"ha":836,"o":"m 160 784 l 169 705 l 322 705 l 334 784 l 160 784 m 654 608 l 529 608 l 605 189 l 654 608 m 675 784 l 499 784 l 511 705 l 666 705 l 675 784 m 149 881 l 355 881 l 376 1012 l 471 1012 l 491 881 l 686 881 l 702 1012 l 836 1012 l 816 881 l 836 881 l 836 784 l 802 784 l 790 705 l 836 705 l 836 608 l 775 608 l 684 0 l 555 0 l 425 602 l 416 602 l 280 0 l 151 0 l 60 608 l 0 608 l 0 705 l 46 705 l 33 784 l 0 784 l 0 881 l 19 881 l 0 1012 l 133 1012 l 149 881 m 181 608 l 230 190 l 305 608 l 181 608 m 417 784 l 404 705 l 429 705 l 417 784 "},"▓":{"x_min":-13,"x_max":850,"ha":836,"o":"m -13 -347 l -13 -99 l 94 -99 l 94 77 l -13 77 l -13 396 l 94 396 l 94 573 l -13 573 l -13 892 l 94 892 l 94 1069 l 418 1069 l 418 892 l 525 892 l 525 1069 l 850 1069 l 850 -347 l 742 -347 l 742 -170 l 634 -170 l 634 -347 l 311 -347 l 311 -170 l 203 -170 l 203 -347 l -13 -347 m 203 645 l 311 645 l 311 821 l 203 821 l 203 645 m 634 645 l 742 645 l 742 821 l 634 821 l 634 645 m 418 396 l 525 396 l 525 573 l 418 573 l 418 396 m 203 149 l 311 149 l 311 326 l 203 326 l 203 149 m 634 149 l 742 149 l 742 326 l 634 326 l 634 149 m 418 -99 l 525 -99 l 525 77 l 418 77 l 418 -99 "},"□":{"x_min":4,"x_max":832,"ha":836,"o":"m 81 24 l 755 24 l 755 697 l 81 697 l 81 24 m 4 -53 l 4 774 l 832 774 l 832 -53 l 4 -53 "},"ῳ":{"x_min":47,"x_max":789,"ha":836,"o":"m 700 759 q 789 384 789 580 q 755 105 789 189 q 577 -19 704 -19 q 476 15 520 -19 q 417 101 432 50 q 360 16 404 52 q 257 -19 317 -19 q 80 105 131 -19 q 47 384 47 189 q 136 759 47 580 l 264 759 q 179 378 179 573 q 191 183 179 225 q 262 86 218 86 q 343 162 320 86 q 360 474 360 218 l 475 474 q 492 162 475 218 q 573 86 515 86 q 645 183 617 86 q 656 378 656 225 q 571 759 656 573 l 700 759 m 516 -289 l 426 -289 q 367 -164 367 -289 l 367 -62 l 468 -62 l 468 -173 q 502 -244 468 -244 l 516 -244 l 516 -289 "},"𝙸":{"x_min":136,"x_max":698,"ha":836,"o":"m 136 1013 l 698 1013 l 698 898 l 486 898 l 486 115 l 698 115 l 698 0 l 136 0 l 136 115 l 348 115 l 348 898 l 136 898 l 136 1013 "},"ﭨ":{"x_min":-13,"x_max":647,"ha":836,"o":"m 413 58 q 131 0 364 0 l -13 0 l -13 125 l 94 125 q 317 154 287 125 q 351 259 351 188 l 351 407 l 476 407 l 476 259 q 413 58 476 133 m 434 590 l 472 590 q 540 598 524 590 q 576 635 576 621 q 555 667 576 656 q 507 649 545 664 q 434 590 472 636 m 488 521 l 369 521 l 293 521 l 293 590 l 348 590 l 348 860 l 417 860 l 417 642 q 512 719 441 692 q 602 718 555 735 q 647 645 647 701 q 603 549 647 583 q 488 521 566 521 "},"╇":{"x_min":-13,"x_max":850,"ha":836,"o":"m 364 -419 l 364 278 l -13 278 l -13 511 l 310 511 l 310 1350 l 527 1350 l 527 511 l 850 511 l 850 278 l 473 278 l 473 -419 l 364 -419 "},"Ϲ":{"x_min":94,"x_max":727,"ha":836,"o":"m 727 35 q 619 -6 674 7 q 503 -20 565 -20 q 201 117 308 -20 q 94 505 94 255 q 202 892 94 753 q 503 1031 310 1031 q 619 1017 565 1031 q 727 975 674 1003 l 727 835 q 619 898 676 876 q 503 920 561 920 q 303 816 369 920 q 237 505 237 713 q 303 194 237 297 q 503 91 369 91 q 620 112 563 91 q 727 175 677 134 l 727 35 "},"Ӳ":{"x_min":70.75,"x_max":782.140625,"ha":836,"o":"m 583 1288 l 709 1288 l 554 1109 l 449 1109 l 583 1288 m 367 1288 l 493 1288 l 337 1109 l 233 1109 l 367 1288 m 502 288 q 415 106 462 181 q 334 26 386 55 q 225 0 287 0 l 125 0 l 125 117 l 198 117 q 285 148 253 117 q 338 232 315 180 q 358 282 348 254 l 70 1013 l 217 1013 l 428 450 l 637 1013 l 782 1013 l 502 288 "},"ຝ":{"x_min":68,"x_max":761,"ha":836,"o":"m 761 202 q 698 37 761 91 q 557 -12 640 -12 l 555 -12 l 554 -12 q 417 38 487 -12 q 258 -12 348 -12 q 119 44 173 -12 q 68 203 68 98 l 68 616 q 209 768 68 768 q 356 634 356 768 q 193 514 356 499 q 193 202 193 242 q 261 113 193 113 q 355 202 355 113 l 355 412 l 480 412 l 480 202 q 557 111 480 111 q 636 202 636 111 l 636 1055 l 761 1055 l 761 202 m 210 689 q 176 678 186 689 q 167 645 167 667 q 178 611 167 620 q 210 602 188 602 q 245 613 236 602 q 254 645 254 625 q 243 679 254 670 q 210 689 232 689 "},"▇":{"x_min":-13,"x_max":850,"ha":836,"o":"m -13 -347 l -13 892 l 850 892 l 850 -347 l -13 -347 "},"✏":{"x_min":26,"x_max":809.25,"ha":836,"o":"m 693 305 q 696 316 696 311 q 693 327 696 322 q 689 336 692 332 q 681 342 687 340 l 581 404 q 570 377 581 388 q 595 316 595 350 q 570 254 595 282 q 581 229 581 245 l 681 290 q 689 296 687 292 q 693 305 692 300 m 156 264 l 156 368 l 109 423 l 65 368 l 65 264 l 109 210 l 156 264 m 26 384 l 109 481 l 520 481 l 809 316 l 520 153 l 109 153 l 26 249 l 26 384 m 184 394 l 518 394 q 531 416 531 406 q 514 442 531 429 l 146 442 l 184 394 m 528 278 q 552 316 552 289 q 528 355 552 343 l 199 355 l 199 278 l 528 278 m 88 298 q 86 316 86 307 q 88 334 86 325 q 92 350 89 342 q 100 360 96 356 q 109 364 104 364 q 118 360 114 364 q 126 350 123 356 q 131 334 130 342 q 134 316 134 325 q 131 298 134 307 q 126 283 130 290 q 118 272 123 276 q 109 268 114 268 q 100 272 104 268 q 92 283 96 276 q 88 298 89 290 m 184 240 l 146 191 l 514 191 q 531 216 531 203 q 518 240 531 227 l 184 240 "},"♇":{"x_min":146,"x_max":690,"ha":836,"o":"m 151 986 l 412 986 q 669 851 605 986 q 690 742 690 803 q 529 512 690 571 q 457 502 491 502 l 239 502 l 239 122 l 644 122 l 649 117 l 649 33 l 644 28 l 151 28 l 146 33 l 146 979 l 151 986 m 239 896 l 239 592 l 447 592 q 576 674 530 592 q 592 742 586 691 q 488 885 592 847 q 412 896 464 896 l 239 896 "},"⁾":{"x_min":319.75,"x_max":516,"ha":836,"o":"m 319 1044 l 388 1044 q 484 868 452 954 q 516 697 516 782 q 484 526 516 612 q 388 351 452 440 l 319 351 q 404 525 376 439 q 433 697 433 611 q 404 870 433 784 q 319 1044 376 957 "},"Ú":{"x_min":100,"x_max":736,"ha":836,"o":"m 100 388 l 100 1012 l 238 1012 l 238 325 q 242 220 238 251 q 256 171 246 188 q 318 111 277 131 q 418 91 359 91 q 517 111 477 91 q 580 171 558 131 q 594 219 590 188 q 599 324 599 251 l 599 1012 l 736 1012 l 736 388 q 716 167 736 232 q 649 59 697 102 q 547 0 605 19 q 418 -20 489 -20 q 289 0 346 -20 q 186 59 231 19 q 119 168 139 101 q 100 388 100 234 m 456 1287 l 582 1287 l 426 1109 l 322 1109 l 456 1287 "},"⍛":{"x_min":174,"x_max":663,"ha":836,"o":"m 663 -138 l 174 -138 l 174 -61 l 663 -61 l 663 -138 m 417 679 q 546 624 495 679 q 585 567 572 599 q 599 496 599 534 q 546 370 599 422 q 416 318 493 318 q 289 369 340 318 q 238 496 238 420 q 290 626 238 573 q 417 679 342 679 m 486 566 q 418 595 457 595 q 349 566 378 595 q 321 497 321 538 q 348 428 321 456 q 417 401 376 401 q 486 429 457 401 q 516 497 516 457 q 486 566 516 537 "},"ἠ":{"x_min":132,"x_max":712,"ha":836,"o":"m 712 470 l 712 -289 l 587 -289 l 587 470 q 551 620 587 572 q 438 669 515 669 q 304 606 351 669 q 257 429 257 544 l 257 0 l 132 0 l 132 760 l 257 760 l 257 645 q 346 744 289 710 q 481 778 403 778 q 654 701 597 778 q 712 470 712 625 m 499 1000 q 335 826 499 826 l 335 894 q 432 1000 432 894 l 335 1000 l 335 1119 l 499 1119 l 499 1000 "},"Ẇ":{"x_min":0.09375,"x_max":836.265625,"ha":836,"o":"m 348 1270 l 487 1270 l 487 1131 l 348 1131 l 348 1270 m 0 1013 l 133 1013 l 230 190 l 345 735 l 489 735 l 605 189 l 702 1013 l 836 1013 l 685 0 l 555 0 l 417 601 l 280 0 l 151 0 l 0 1013 "},"چ":{"x_min":60,"x_max":812,"ha":836,"o":"m 503 -67 l 606 -67 l 606 34 l 503 34 l 503 -67 m 589 102 l 691 102 l 691 203 l 589 203 l 589 102 m 419 102 l 521 102 l 521 203 l 419 203 l 419 102 m 60 547 q 379 590 247 590 q 710 553 577 590 l 710 453 q 364 331 510 453 q 213 38 213 205 q 263 -117 213 -53 q 537 -227 350 -227 q 812 -146 668 -227 l 812 -271 q 540 -340 710 -340 q 178 -207 293 -340 q 90 46 90 -104 q 233 372 90 221 q 392 477 299 441 q 215 462 323 477 q 60 422 123 450 l 60 547 "},"Ý":{"x_min":25.515625,"x_max":811.84375,"ha":836,"o":"m 25 1013 l 171 1013 l 418 565 l 664 1013 l 811 1013 l 487 454 l 487 0 l 349 0 l 349 454 l 25 1013 m 456 1288 l 582 1288 l 427 1109 l 322 1109 l 456 1288 "},"╪":{"x_min":-13,"x_max":850,"ha":836,"o":"m 364 -419 l 364 220 l -13 220 l -13 337 l 364 337 l 364 453 l -13 453 l -13 570 l 364 570 l 364 1351 l 473 1351 l 473 570 l 850 570 l 850 453 l 473 453 l 473 337 l 850 337 l 850 220 l 473 220 l 473 -419 l 364 -419 "},"ᴰ":{"x_min":211,"x_max":625,"ha":836,"o":"m 339 516 q 490 563 447 516 q 534 735 534 611 q 491 909 534 862 q 339 957 448 957 l 298 957 l 298 516 l 339 516 m 340 1020 q 555 950 486 1020 q 625 735 625 881 q 555 521 625 590 q 340 453 486 453 l 211 453 l 211 1020 l 340 1020 "},"ᴞ":{"x_min":43,"x_max":794,"ha":836,"o":"m 43 83 l 43 221 l 139 221 l 139 83 l 43 83 m 43 349 l 43 486 l 139 486 l 139 349 l 43 349 m 578 -1 l 249 -1 l 249 124 l 578 124 q 684 160 650 124 q 718 273 718 197 q 674 408 718 361 q 549 455 631 455 l 249 455 l 249 580 l 780 580 l 780 455 l 700 455 q 770 364 746 421 q 794 229 794 307 q 740 55 794 112 q 578 -1 686 -1 "},"◥":{"x_min":3.953125,"x_max":832,"ha":836,"o":"m 3 775 l 832 775 l 832 -52 l 3 775 "},"ຸ":{"x_min":314,"x_max":612,"ha":836,"o":"m 476 -171 q 432 -127 476 -127 q 389 -171 389 -127 q 432 -215 389 -215 q 476 -171 476 -215 m 414 -420 q 512 -284 512 -345 q 508 -261 512 -272 q 435 -286 481 -286 q 314 -178 314 -286 q 429 -52 314 -52 q 550 -104 497 -52 q 612 -261 612 -166 q 474 -486 612 -340 l 414 -420 "},"Ɗ":{"x_min":5,"x_max":830,"ha":836,"o":"m 220 1013 l 378 1013 q 720 889 610 1013 q 830 505 830 766 q 720 123 830 246 q 378 0 610 0 l 220 0 l 220 900 q 143 868 183 900 q 111 765 111 842 l 111 732 l 5 732 l 5 779 q 70 957 5 902 q 220 1013 135 1013 m 375 113 q 617 198 548 113 q 686 505 686 283 q 617 815 686 729 q 375 900 549 900 l 358 900 l 358 113 l 375 113 "},"♅":{"x_min":45.875,"x_max":791.78125,"ha":836,"o":"m 418 311 q 365 288 387 311 q 344 236 344 266 q 365 182 344 204 q 418 161 387 161 q 471 182 449 161 q 493 236 493 204 q 471 288 493 266 q 418 311 450 311 m 461 375 q 521 338 494 364 q 564 235 564 295 q 521 132 564 175 q 418 90 479 90 q 316 132 359 90 q 274 235 274 175 q 316 338 274 295 q 377 375 342 365 l 377 596 l 216 596 l 216 352 l 45 352 l 45 437 l 132 437 l 132 839 l 45 839 l 45 924 l 216 924 l 216 680 l 377 680 l 377 924 l 461 924 l 461 680 l 622 680 l 622 924 l 791 924 l 791 839 l 707 839 l 707 437 l 791 437 l 791 352 l 622 352 l 622 596 l 461 596 l 461 375 "},"ŀ":{"x_min":108.9375,"x_max":822,"ha":836,"o":"m 651 684 l 822 684 l 822 477 l 651 477 l 651 684 m 434 275 q 464 148 434 191 q 555 105 495 105 l 702 105 l 702 0 l 543 0 q 370 71 431 0 q 309 275 309 143 l 309 965 l 108 965 l 108 1063 l 434 1063 l 434 275 "},"ℝ":{"x_min":25,"x_max":822.9375,"ha":836,"o":"m 644 259 q 560 394 600 362 q 452 428 521 428 l 426 428 q 528 259 471 396 l 611 68 l 725 68 l 644 259 m 573 468 q 636 407 604 451 q 705 276 669 362 l 822 0 l 569 0 l 460 259 q 377 394 417 361 q 267 428 336 428 l 256 428 l 256 0 l 25 0 l 25 1013 l 416 1013 q 636 940 563 1013 q 709 721 709 867 q 641 513 709 580 q 573 468 613 485 m 256 945 l 256 496 l 443 496 q 471 497 458 496 l 471 943 q 443 945 458 945 l 256 945 m 531 929 l 531 512 q 593 555 568 527 q 645 721 645 613 q 594 886 645 829 q 531 929 569 914 m 83 945 l 83 68 l 199 68 l 199 945 l 83 945 "},"῾":{"x_min":336,"x_max":498.984375,"ha":836,"o":"m 336 1000 l 336 1119 l 498 1119 l 498 1000 l 402 1000 q 498 894 402 894 l 498 826 q 336 1000 336 826 "},"ﻣ":{"x_min":-13.796875,"x_max":633,"ha":836,"o":"m 588 33 q 428 -35 523 -35 q 208 31 284 -35 q 94 -1 165 -1 l -13 -1 l -13 124 l 64 124 q 129 148 100 124 q 162 205 159 172 q 267 382 176 328 q 394 421 331 421 q 487 401 441 421 q 630 231 616 347 q 633 178 633 206 q 588 33 633 81 m 275 134 q 424 88 317 88 q 469 100 456 88 q 505 182 505 135 q 501 207 505 195 q 447 278 486 267 q 394 287 420 287 q 330 268 358 287 q 286 180 296 246 q 275 134 281 155 "},"ﹾ":{"x_min":232,"x_max":604,"ha":836,"o":"m 521 1033 q 491 1106 521 1076 q 418 1136 461 1136 q 344 1106 374 1136 q 315 1033 315 1076 q 344 959 315 989 q 418 930 374 930 q 491 959 461 930 q 521 1033 521 989 m 550 1165 q 604 1033 604 1111 q 550 901 604 955 q 417 847 496 847 q 286 901 340 847 q 232 1033 232 955 q 286 1165 232 1111 q 417 1219 340 1219 q 550 1165 496 1219 "},"⁉":{"x_min":141,"x_max":814,"ha":836,"o":"m 148 1012 l 271 1012 l 271 567 l 271 326 l 148 326 l 148 567 l 148 1012 m 141 172 l 279 172 l 279 0 l 141 0 l 141 172 m 658 272 l 526 272 l 526 376 q 538 489 526 442 q 589 591 552 534 l 629 651 q 667 721 657 691 q 677 785 677 752 q 648 864 677 835 q 581 890 623 890 q 517 877 543 890 q 434 807 478 853 l 434 954 q 518 1008 479 993 q 635 1030 573 1030 q 765 969 720 1030 q 814 793 814 903 q 799 697 814 741 q 743 589 784 651 l 704 530 q 665 456 673 483 q 658 387 658 428 l 658 272 m 523 172 l 661 172 l 661 0 l 523 0 l 523 172 "},"ẅ":{"x_min":-0.34375,"x_max":836.015625,"ha":836,"o":"m 216 998 l 354 998 l 354 861 l 216 861 l 216 998 m 482 998 l 619 998 l 619 861 l 482 861 l 482 998 m 0 760 l 123 760 l 255 146 l 364 538 l 470 538 l 580 146 l 712 760 l 836 760 l 658 0 l 538 0 l 417 416 l 296 0 l 177 0 l 0 760 "},"☹":{"x_min":22,"x_max":813,"ha":836,"o":"m 22 505 q 137 786 22 670 q 417 903 253 903 q 697 786 581 903 q 813 505 813 670 q 697 226 813 342 q 417 111 581 111 q 137 226 253 111 q 22 505 22 342 m 102 505 q 194 283 102 376 q 417 190 287 190 q 641 283 548 190 q 734 505 734 376 q 641 729 734 637 q 417 822 548 822 q 194 729 287 822 q 102 505 102 637 m 418 445 q 266 310 307 445 l 234 310 q 420 498 234 498 q 602 310 602 498 l 571 310 q 418 445 518 445 m 545 568 q 486 628 486 568 q 549 692 486 692 q 607 629 607 687 q 545 568 607 568 m 290 568 q 231 628 231 568 q 294 692 231 692 q 352 629 352 687 q 290 568 352 568 "},"ǡ":{"x_min":90,"x_max":718,"ha":836,"o":"m 215 1249 l 621 1249 l 621 1149 l 215 1149 l 215 1249 m 348 1052 l 487 1052 l 487 914 l 348 914 l 348 1052 m 475 381 l 434 381 q 270 342 325 381 q 215 228 215 304 q 256 121 215 159 q 370 84 297 84 q 533 155 474 84 q 592 353 592 227 l 592 381 l 475 381 m 718 433 l 718 0 l 592 0 l 592 111 q 491 12 552 44 q 344 -20 431 -20 q 159 45 228 -20 q 90 220 90 110 q 175 413 90 347 q 425 479 260 479 l 592 479 l 592 498 q 546 630 592 589 q 401 672 501 672 q 272 653 337 672 q 146 599 207 635 l 146 724 q 278 764 215 751 q 401 777 342 777 q 562 750 496 777 q 670 666 629 722 q 707 582 696 632 q 718 433 718 532 "},"ᵥ":{"x_min":197.34375,"x_max":638.828125,"ha":836,"o":"m 197 425 l 278 425 l 417 68 l 557 425 l 638 425 l 468 0 l 367 0 l 197 425 "},"К":{"x_min":93,"x_max":831.171875,"ha":836,"o":"m 93 1013 l 231 1013 l 231 562 l 658 1013 l 819 1013 l 425 599 l 831 0 l 665 0 l 335 507 l 231 396 l 231 0 l 93 0 l 93 1013 "},"ʣ":{"x_min":20,"x_max":798,"ha":836,"o":"m 147 594 q 114 378 114 516 q 147 162 114 240 q 241 84 181 84 q 334 162 300 84 q 369 378 369 240 q 334 594 369 516 q 241 673 300 673 q 147 594 181 673 m 369 643 l 369 1055 l 444 1055 l 444 759 l 798 759 l 798 644 l 517 99 l 798 99 l 798 -1 l 443 -1 l 432 -1 l 369 -1 l 369 113 q 306 12 346 47 q 215 -20 268 -20 q 74 89 129 -20 q 20 378 20 199 q 74 667 20 557 q 215 777 129 777 q 306 744 268 777 q 369 643 345 711 m 444 659 l 444 134 l 714 659 l 444 659 "},"ΰ":{"x_min":34.59375,"x_max":766,"ha":836,"o":"m 428 105 q 595 226 532 105 q 636 433 636 306 q 619 589 636 502 q 532 758 604 670 l 659 758 l 659 759 q 737 614 706 697 q 766 432 766 536 q 679 142 766 279 q 410 -1 588 -1 q 232 64 288 -1 q 177 274 177 130 l 177 662 l 34 662 l 34 759 l 305 759 l 305 267 q 328 137 305 168 q 428 105 352 105 m 216 1052 l 354 1052 l 354 915 l 216 915 l 216 1052 m 482 1052 l 619 1052 l 619 915 l 482 915 l 482 1052 m 512 1361 l 646 1361 l 426 1107 l 322 1107 l 512 1361 "},"⬔":{"x_min":4,"x_max":831.734375,"ha":836,"o":"m 81 24 l 754 24 l 81 696 l 81 24 m 4 -53 l 4 774 l 831 774 l 831 -53 l 4 -53 "},"მ":{"x_min":107,"x_max":730,"ha":836,"o":"m 730 335 q 429 0 730 0 q 107 356 107 0 q 418 710 107 710 q 597 624 551 710 l 611 624 l 611 799 q 418 960 611 960 q 261 856 261 960 l 261 814 l 134 814 l 134 856 q 418 1056 134 1056 q 730 799 730 1056 l 730 335 m 602 335 q 418 612 602 612 q 234 357 234 612 q 427 98 234 98 q 602 335 602 98 "},"꜋":{"x_min":203,"x_max":632,"ha":836,"o":"m 203 301 l 318 301 l 318 209 l 203 209 l 203 301 m 540 0 l 540 928 l 632 928 l 632 0 l 540 0 "},"↖":{"x_min":125,"x_max":711.5,"ha":836,"o":"m 125 547 l 164 587 l 443 587 l 443 501 l 289 501 l 711 79 l 632 0 l 211 422 l 211 268 l 125 268 l 125 547 "},"⅞":{"x_min":18.296875,"x_max":759,"ha":836,"o":"m 554 86 q 466 56 497 86 q 435 -23 435 28 q 466 -104 435 -75 q 554 -134 498 -134 q 642 -105 612 -134 q 674 -23 674 -76 q 642 56 674 28 q 554 86 610 86 m 480 118 q 395 164 425 130 q 365 246 365 198 q 415 353 365 313 q 554 393 466 393 q 693 353 642 393 q 744 246 744 313 q 713 164 744 198 q 628 118 683 130 q 725 67 692 105 q 759 -31 759 29 q 704 -150 759 -107 q 554 -194 650 -194 q 404 -151 458 -194 q 350 -31 350 -107 q 383 67 350 29 q 480 118 416 105 m 450 239 q 476 170 450 194 q 554 146 503 146 q 632 170 605 146 q 659 239 659 194 q 632 309 659 285 q 554 334 606 334 q 476 309 503 334 q 450 239 450 285 m 34 341 l 18 414 l 737 592 l 755 519 l 34 341 m 40 1125 l 436 1125 l 436 1092 l 210 559 l 122 559 l 341 1061 l 40 1061 l 40 1125 "}}}
